<?xml version="1.0" encoding="utf-8"?>
<!-- Generator: Adobe Illustrator 16.0.0, SVG Export Plug-In . SVG Version: 6.00 Build 0)  -->
<!DOCTYPE svg PUBLIC "-//W3C//DTD SVG 1.1//EN" "http://www.w3.org/Graphics/SVG/1.1/DTD/svg11.dtd">
<svg version="1.1" xmlns="http://www.w3.org/2000/svg" xmlns:xlink="http://www.w3.org/1999/xlink" x="0px" y="0px" width="2450px"
	 height="660px" viewBox="0 0 2450 660" enable-background="new 0 0 2450 660" xml:space="preserve">
<g id="Layer_2" display="none">
	
		<image display="inline" overflow="visible" width="506" height="330" xlink:href="../../../Desktop/Screen Shot 2018-09-15 at 1.05.13 PM.png"  transform="matrix(4.8419 0 0 2.3125 0 -101.2222)">
	</image>
</g>
<g id="Layer_1">
	
		<radialGradient id="SVGID_1_" cx="1825.5225" cy="364.54" r="2532.2844" gradientTransform="matrix(1.0236 0 0 0.2866 -82.6729 260.0567)" gradientUnits="userSpaceOnUse">
		<stop  offset="0" style="stop-color:#F05123;stop-opacity:0.7"/>
		<stop  offset="0.35" style="stop-color:#000000;stop-opacity:0"/>
	</radialGradient>
	<ellipse fill="url(#SVGID_1_)" cx="1785.9" cy="364.5" rx="2769.6" ry="425.2"/>
	<path fill="#0D0D0C" d="M1170.9,689.5c0,0,298.1-405.8,715.7-399c417.5,6.8,681.4,399,681.4,399H1170.9z"/>
	<g opacity="0.25">
		<path fill="#7E4783" d="M1800.6,644.5c-3.3-5.1-7-9.8-11.2-14.2c19.4-9.9,36.9-23,51.8-38.5c11.3-10.3,20.8-22.6,27.7-36.4
			c19-32.1,29.1-69.9,27-109.9c-4.4-85.5-62.9-155.3-140.6-178.1c3-11.8,4.2-24.2,3.6-36.9c-3.6-69-62.3-122-131.3-118.4
			c-18.8,1-36.4,6.1-52.1,14.3c-32.4-32.7-78-52-127.5-49.4c-86,4.4-153.4,73.1-158.3,157.1c-16.9-9.8-36.7-15-57.6-13.9
			c-39.4,2-72.5,25.7-88.6,58.9c-23.9-26.3-59-42.1-97.2-40.1c-45.2,2.3-83.4,28.9-102.8,66.4c-41.6,16.7-73.2,52.3-84.7,95.8
			c-25.8,2.2-49.2,11.9-68.3,26.8c-1.1-0.1-2.1-0.2-3.2-0.3c2-8.2,2.9-16.9,2.4-25.7c-2.5-48.9-44.2-86.6-93.2-84
			c-14.6,0.8-28.2,5-40,11.9c-30-34.7-75.1-55.7-124.5-53.2c-84.9,4.4-150.1,76.7-145.8,161.6c0.6,11.2,2.3,22,5.2,32.4
			c-12.9-2.6-26.2-3.6-39.9-2.9c-15.8,0.8-31,3.9-45.3,8.9C281.1,397,204.7,341.2,117.4,345.7c-97.3,5-173.5,83.2-178.1,178.5
			c-13.1-2.7-26.8-3.8-40.8-3.1c-12,0.6-23.6,2.6-34.8,5.6c-23.6-13-51-19.9-79.8-18.4c-63,3.3-114.8,45.1-133.8,101.4
			c-2.2,0-4.5,0.1-6.8,0.2c-101.8,5.3-180,92-174.8,193.8s92,180,193.8,174.8c2.3-0.1,4.5-0.3,6.7-0.5
			c7.8,72.4,71,126.9,144.6,123.1c60.3-3.1,109.6-44.5,125.7-99.4c5.4-1.5,10.7-3.3,15.8-5.2c13.9,57.2,66.9,98.2,127.8,95.1
			c56.8-2.9,102.7-43.3,115.1-96c6.8,1.8,14,2.7,21.3,2.3c0,0,0.1,0,0.1,0c18.4,41.4,53,73.7,95.5,89.1c0,1.2,0.1,2.5,0.1,3.7
			c3,57.9,52.4,102.5,110.3,99.5c24.3-1.3,46.2-10.6,63.2-25.4c17.1,5.3,35.3,7.7,54.2,6.7c52.1-2.7,96.9-30.5,123.2-71.1
			c0.1,0,0.3,0,0.4,0c44.2-2.3,78.1-39.9,75.8-84.1c-0.8-15.5-6-29.8-14.3-41.7c25.3,30.7,64.4,49.5,107.2,47.3
			c39.8-2.1,74.6-21.8,96.9-51.3c13-1.4,25.5-4.5,37.2-9c23.4,34.2,63.4,55.7,107.8,53.4c39.7-2.1,74.1-22.8,95-53.2
			c5.2,37.3,38.2,65,76.5,63.1c40.5-2.1,71.6-36.6,69.6-77.1c-0.2-3.2-0.5-6.3-1.1-9.3c22.8-7.4,43.8-18.7,62.1-33.1
			c2,0.3,4,0.6,6,0.9c-11.3,23.9-17,50.9-15.5,79.2c4.7,91.6,82.8,162,174.4,157.3c90.9-4.7,161-81.7,157.3-172.5
			c23.1-3.9,44.2-13.7,61.6-27.7c11.4,2.1,23.2,2.9,35.2,2.3c83-4.3,146.8-75,142.5-158C1936.8,709.9,1875.7,649.4,1800.6,644.5z
			 M1328.3,390.1c-2.4-1.2-4.8-2.4-7.2-3.6c2.6-3.5,5-7.1,7.2-11C1328,380.4,1328,385.2,1328.3,390.1z M696.7,948.1
			c3.2-4.3,6.2-8.7,9-13.3c4.2,12.2,10.2,23.5,17.6,33.7C716,959.9,706.9,953,696.7,948.1z"/>
	</g>
	<g opacity="0.2">
		<path fill="#E29EC6" d="M1421.2,842.6c3.4,3.4,7.1,6.4,11.1,9.1c-13.4,11-24.8,24.1-33.7,38.6c-7.1,9.9-12.3,21.1-15.4,32.9
			c-9.3,28.1-10.8,59.1-2.4,89.9c17.9,65.6,75,109.9,139.2,114.5c-0.3,9.6,0.8,19.5,3.5,29.3c14.4,52.9,69,84.1,121.9,69.7
			c14.4-3.9,27.3-10.9,38-19.9c30.6,19.9,69.3,27.2,107.3,16.8c66-18,106.7-82.6,96.3-148.7c14.7,4.8,31,5.4,47.1,1.1
			c30.2-8.2,52-32.2,58.8-60.6c23,16.4,52.9,22.7,82.2,14.7c34.7-9.4,59.9-36.5,68.5-68.9c29.5-20,48-53,49.6-88.6
			c19.6-6.1,36.2-17.5,48.5-32.3c0.8-0.1,1.7-0.2,2.5-0.3c-0.2,6.7,0.6,13.6,2.5,20.4c10.2,37.6,49,59.7,86.5,49.5
			c11.2-3.1,21-8.6,29.1-16c29.1,21.9,67.7,30.6,105.6,20.3c65.1-17.7,103.5-84.9,85.8-150c-2.3-8.6-5.5-16.7-9.5-24.3
			c10.4-0.2,21-1.6,31.5-4.5c12.2-3.3,23.4-8.3,33.6-14.6c33,57.5,101.7,87.9,168.7,69.7c74.7-20.3,120.6-93.8,108.1-168.6
			c10.6-0.1,21.4-1.6,32.2-4.5c9.2-2.5,17.9-6,26-10.2c20.5,6.1,42.9,6.8,65.1,0.8c48.3-13.2,81.5-54.4,86.7-101.3
			c1.7-0.4,3.5-0.8,5.2-1.3c78.1-21.3,124.2-101.8,102.9-179.9c-21.3-78.1-101.8-124.2-179.9-102.9c-1.7,0.5-3.4,1-5.2,1.5
			c-18.3-54.9-76.5-86.5-133-71.1c-46.3,12.6-77.6,53-80.7,98.3c-3.9,2.1-7.7,4.3-11.4,6.8c-20.4-42-68.5-65-115.2-52.2
			c-43.5,11.9-72.4,51-73.1,93.9c-5.6-0.3-11.3,0.3-16.9,1.8c0,0,0,0-0.1,0c-21.3-29-53.6-48.2-89.2-53c-0.2-1-0.5-1.9-0.7-2.9
			c-12.1-44.4-57.9-70.7-102.4-58.6c-18.6,5.1-34,16.1-44.8,30.4c-14.1-1.2-28.7,0-43.2,4c-39.9,10.9-70,40-83.6,76
			c-0.1,0-0.2,0.1-0.3,0.1c-33.9,9.2-53.9,44.2-44.6,78c3.2,11.9,9.7,22.1,18.1,29.9c-24.8-19.6-58.3-27.5-91.2-18.6
			c-30.6,8.3-54.2,29.5-66.6,56.2c-9.9,3.3-19,7.8-27.4,13.3c-23.9-22.6-58.6-32.5-92.7-23.2c-30.5,8.3-53.6,30.2-64.7,57.4
			c-10.4-28.1-40.6-44-70-36c-31.1,8.5-49.4,40.5-41,71.6c0.7,2.4,1.5,4.8,2.4,7.1c-16.4,9.6-30.8,21.9-42.6,36.2
			c-1.6,0.1-3.2,0.2-4.8,0.3c4.7-20.5,4.6-42.4-1.3-64.1c-19.1-70.3-91.6-111.7-161.9-92.6c-69.8,19-111.1,90.6-93,160.4
			c-17.3,7-32,18.1-43.1,31.9c-9.2,0.3-18.5,1.6-27.7,4.2c-63.7,17.3-101.2,83-83.9,146.7C1304.5,814.9,1362.1,851.5,1421.2,842.6z
			 M1830.7,960.2c2,0.6,4.1,1.1,6.2,1.5c-1.4,3.2-2.7,6.4-3.7,9.7C1832.5,967.7,1831.7,964,1830.7,960.2z M2226.5,420.6
			c-1.7,3.9-3.3,7.8-4.7,11.8c-5.3-8.7-11.9-16.5-19.4-23.1C2209.6,414.7,2217.8,418.5,2226.5,420.6z"/>
	</g>
	<path opacity="0.4" fill="#424272" d="M985,863.7c2.5,4.1,5.4,7.9,8.6,11.5c-15.6,7.6-29.7,17.7-41.8,29.7
		c-9.2,8-16.9,17.6-22.6,28.4c-15.6,25.2-24.2,55-23.2,86.8c2.1,67.9,47.4,124.3,108.7,143.7c-2.5,9.3-3.8,19.1-3.4,29.3
		c1.7,54.8,47.5,97.9,102.3,96.2c15-0.5,29-4.2,41.6-10.5c25.2,26.5,61.1,42.5,100.4,41.3c68.4-2.1,123-55.5,128.3-122.2
		c13.2,8.1,28.9,12.5,45.5,12c31.3-1,58-19.2,71.3-45.3c18.5,21.3,46.1,34.4,76.5,33.4c35.9-1.1,66.7-21.5,82.7-51
		c33.3-12.6,59-40.4,68.8-74.7c20.5-1.3,39.3-8.6,54.7-20.2c0.8,0.1,1.7,0.2,2.5,0.3c-1.7,6.5-2.6,13.3-2.3,20.4
		c1.2,38.9,33.7,69.5,72.6,68.2c11.6-0.4,22.5-3.5,32-8.8c23.2,28.1,58.7,45.5,98,44.3c67.5-2.1,120.5-58.5,118.4-126
		c-0.3-8.9-1.5-17.5-3.6-25.8c10.2,2.2,20.8,3.3,31.7,2.9c12.6-0.4,24.7-2.6,36.1-6.3c18.7,63.6,78.5,109.1,147.9,107
		c77.3-2.4,139.1-63.2,144.3-138.8c10.4,2.4,21.2,3.4,32.3,3.1c9.5-0.3,18.8-1.6,27.7-3.9c18.5,10.7,40.1,16.6,63.1,15.9
		c50.1-1.6,91.9-33.9,107.9-78.3c1.8,0,3.6,0,5.4-0.1c80.9-2.5,144.4-70.1,141.9-151c-2.5-80.9-70.1-144.4-151-141.9
		c-1.8,0.1-3.6,0.2-5.4,0.3c-5-57.6-54.3-102-112.8-100.1c-48,1.5-87.8,33.5-101.4,76.9c-4.3,1.1-8.5,2.4-12.7,3.9
		c-10.1-45.6-51.5-79.1-99.9-77.6c-45.1,1.4-82.2,32.7-93,74.3c-5.4-1.6-11-2.3-16.9-2.2c0,0-0.1,0-0.1,0
		c-13.9-33.2-40.9-59.4-74.4-72.3c0-1,0-2,0-3c-1.4-46-39.9-82.2-86-80.8c-19.3,0.6-36.8,7.7-50.6,19.1c-13.5-4.5-27.9-6.7-43-6.2
		c-41.4,1.3-77.4,22.7-99,54.5c-0.1,0-0.2,0-0.3,0c-35.1,1.1-62.7,30.4-61.6,65.5c0.4,12.3,4.3,23.8,10.7,33.3
		c-19.6-24.8-50.3-40.3-84.3-39.3c-31.7,1-59.5,16.1-77.8,39.1c-10.4,0.9-20.3,3.2-29.7,6.6c-18-27.5-49.5-45.3-84.7-44.2
		c-31.6,1-59.2,16.9-76.3,40.7c-3.5-29.7-29.3-52.3-59.7-51.3c-32.2,1-57.5,27.9-56.5,60.1c0.1,2.5,0.3,5,0.7,7.4
		c-18.2,5.5-35,14.1-49.9,25.2c-1.6-0.3-3.1-0.6-4.7-0.8c9.3-18.8,14.3-40.1,13.6-62.6c-2.3-72.8-63.1-130-135.9-127.7
		c-72.3,2.2-129.2,62.3-127.7,134.4c-18.4,2.7-35.3,10.2-49.3,21c-9-1.9-18.4-2.7-27.9-2.4c-66,2-117.8,57.2-115.7,123.1
		C877.9,809.6,925.5,858.5,985,863.7z M1355.9,1073.3c1.9,1,3.7,2,5.6,2.9c-2.1,2.7-4.1,5.6-5.9,8.6
		C1355.9,1081.1,1356,1077.2,1355.9,1073.3z M1866.4,640.6c-2.6,3.4-5,6.8-7.3,10.4c-3.2-9.7-7.7-18.8-13.4-27
		C1851.3,630.9,1858.4,636.6,1866.4,640.6z"/>
	<g opacity="0.3">
		<path fill="#5E254E" d="M1710,851.4c-2.7-4.7-5.7-9.1-9.2-13.2c17.7-7.8,33.9-18.5,48-31.5c10.6-8.6,19.6-19,26.4-30.9
			c18.5-27.5,29.4-60.5,29.6-96.1c0.4-76-47.9-141-115.7-165.2c3.2-10.3,5-21.2,5.1-32.6c0.4-61.4-49.1-111.4-110.5-111.7
			c-16.7-0.1-32.6,3.5-46.9,10.1c-27-30.6-66.5-50.1-110.6-50.3c-76.5-0.4-139.8,57-148.5,131.3c-14.5-9.5-31.8-15.1-50.4-15.3
			c-35.1-0.2-65.7,19.1-81.6,47.7c-19.8-24.6-50.2-40.3-84.2-40.5c-40.2-0.2-75.5,21.3-94.5,53.6c-37.8,12.7-67.6,42.7-80,80.7
			c-23,0.7-44.3,8-62,20.3c-0.9-0.2-1.9-0.3-2.8-0.4c2.2-7.2,3.4-14.8,3.5-22.7c0.2-43.5-34.8-79.1-78.4-79.3
			c-13-0.1-25.3,3-36.1,8.5c-24.8-32.3-63.8-53.3-107.7-53.5c-75.5-0.4-137.1,60.4-137.5,136c-0.1,9.9,1,19.7,2.9,29
			c-11.3-2.9-23.1-4.5-35.3-4.6c-14.1-0.1-27.7,1.9-40.6,5.6c-18.3-71.9-83.3-125.3-160.9-125.7C145.5,500.2,73.9,565.6,65,649.9
			c-11.5-3.1-23.6-4.7-36-4.8c-10.7-0.1-21.1,1.1-31.1,3.2C-22.4,635.6-46.3,628.1-72,628c-56-0.3-104.2,34.1-123.9,83.2
			c-2-0.1-4-0.1-6-0.2c-90.5-0.5-164.4,72.5-164.9,163c-0.5,90.5,72.5,164.4,163,164.9c2,0,4,0,6-0.1c3.2,64.6,56.5,116.2,122,116.6
			c53.7,0.3,99.5-33.9,116.5-81.8c4.9-1.1,9.6-2.3,14.3-3.9c9.4,51.4,54.3,90.6,108.5,90.9c50.5,0.3,93.3-33.2,107-79.3
			c5.9,2,12.2,3.1,18.8,3.1c0,0,0.1,0,0.1,0c14.2,37.7,43.3,68.1,80.2,83.9c0,1.1-0.1,2.2-0.1,3.3c-0.3,51.5,41.2,93.6,92.8,93.9
			c21.6,0.1,41.5-7.1,57.4-19.3c14.9,5.5,31,8.6,47.8,8.7c46.3,0.3,87.5-22.2,113-56.8c0.1,0,0.2,0,0.3,0
			c39.3,0.2,71.3-31.4,71.5-70.7c0.1-13.8-3.8-26.7-10.6-37.7c20.9,28.6,54.6,47.2,92.7,47.4c35.4,0.2,67.2-15.6,88.6-40.6
			c11.6-0.6,22.8-2.7,33.5-6.1c19,31.5,53.4,52.6,92.9,52.9c35.4,0.2,66.9-16.4,87-42.4c2.7,33.3,30.6,59.6,64.7,59.8
			c36,0.2,65.4-28.8,65.6-64.9c0-2.8-0.1-5.6-0.5-8.3c20.6-5.4,39.8-14.3,56.8-26.2c1.7,0.4,3.5,0.8,5.3,1.1
			c-11.2,20.7-17.7,44.3-17.8,69.4c-0.5,81.5,65.2,147.9,146.7,148.4c80.9,0.5,147-64.3,148.4-145c20.7-2.3,39.9-9.9,56-21.4
			c10,2.4,20.4,3.8,31.1,3.8c73.8,0.4,134-59.1,134.4-132.9C1827.5,916.4,1776.3,859.6,1710,851.4z M1304,601.7
			c-2-1.2-4.1-2.4-6.2-3.5c2.5-3,4.8-6.1,6.9-9.4C1304.2,593.1,1304,597.4,1304,601.7z M715.3,1064.6c3-3.7,5.9-7.4,8.6-11.3
			c3.1,11,7.9,21.3,13.9,30.8C731.8,1076.1,724.1,1069.4,715.3,1064.6z"/>
	</g>
</g>
</svg>
