<svg version="1.1" id="el_2R4dZG7zW" xmlns="http://www.w3.org/2000/svg" xmlns:xlink="http://www.w3.org/1999/xlink" x="0px" y="0px" viewBox="0 0 310 430" enable-background="new 0 0 310 430" xml:space="preserve"><style>@-webkit-keyframes el_dKN9Bi8HNI_U1cx6RSEp_Animation{0%{-webkit-transform: translate(178.25601196289062px, 247.5470199584961px) rotate(0deg) translate(-178.25601196289062px, -247.5470199584961px);transform: translate(178.25601196289062px, 247.5470199584961px) rotate(0deg) translate(-178.25601196289062px, -247.5470199584961px);}3.33%{-webkit-transform: translate(178.25601196289062px, 247.5470199584961px) rotate(-8deg) translate(-178.25601196289062px, -247.5470199584961px);transform: translate(178.25601196289062px, 247.5470199584961px) rotate(-8deg) translate(-178.25601196289062px, -247.5470199584961px);}6.67%{-webkit-transform: translate(178.25601196289062px, 247.5470199584961px) rotate(0deg) translate(-178.25601196289062px, -247.5470199584961px);transform: translate(178.25601196289062px, 247.5470199584961px) rotate(0deg) translate(-178.25601196289062px, -247.5470199584961px);}10%{-webkit-transform: translate(178.25601196289062px, 247.5470199584961px) rotate(-8deg) translate(-178.25601196289062px, -247.5470199584961px);transform: translate(178.25601196289062px, 247.5470199584961px) rotate(-8deg) translate(-178.25601196289062px, -247.5470199584961px);}13.33%{-webkit-transform: translate(178.25601196289062px, 247.5470199584961px) rotate(0deg) translate(-178.25601196289062px, -247.5470199584961px);transform: translate(178.25601196289062px, 247.5470199584961px) rotate(0deg) translate(-178.25601196289062px, -247.5470199584961px);}16.67%{-webkit-transform: translate(178.25601196289062px, 247.5470199584961px) rotate(-8deg) translate(-178.25601196289062px, -247.5470199584961px);transform: translate(178.25601196289062px, 247.5470199584961px) rotate(-8deg) translate(-178.25601196289062px, -247.5470199584961px);}20%{-webkit-transform: translate(178.25601196289062px, 247.5470199584961px) rotate(0deg) translate(-178.25601196289062px, -247.5470199584961px);transform: translate(178.25601196289062px, 247.5470199584961px) rotate(0deg) translate(-178.25601196289062px, -247.5470199584961px);}23.33%{-webkit-transform: translate(178.25601196289062px, 247.5470199584961px) rotate(-8deg) translate(-178.25601196289062px, -247.5470199584961px);transform: translate(178.25601196289062px, 247.5470199584961px) rotate(-8deg) translate(-178.25601196289062px, -247.5470199584961px);}26.67%{-webkit-transform: translate(178.25601196289062px, 247.5470199584961px) rotate(0deg) translate(-178.25601196289062px, -247.5470199584961px);transform: translate(178.25601196289062px, 247.5470199584961px) rotate(0deg) translate(-178.25601196289062px, -247.5470199584961px);}30%{-webkit-transform: translate(178.25601196289062px, 247.5470199584961px) rotate(-8deg) translate(-178.25601196289062px, -247.5470199584961px);transform: translate(178.25601196289062px, 247.5470199584961px) rotate(-8deg) translate(-178.25601196289062px, -247.5470199584961px);}33.33%{-webkit-transform: translate(178.25601196289062px, 247.5470199584961px) rotate(0deg) translate(-178.25601196289062px, -247.5470199584961px);transform: translate(178.25601196289062px, 247.5470199584961px) rotate(0deg) translate(-178.25601196289062px, -247.5470199584961px);}36.67%{-webkit-transform: translate(178.25601196289062px, 247.5470199584961px) rotate(-8deg) translate(-178.25601196289062px, -247.5470199584961px);transform: translate(178.25601196289062px, 247.5470199584961px) rotate(-8deg) translate(-178.25601196289062px, -247.5470199584961px);}40%{-webkit-transform: translate(178.25601196289062px, 247.5470199584961px) rotate(0deg) translate(-178.25601196289062px, -247.5470199584961px);transform: translate(178.25601196289062px, 247.5470199584961px) rotate(0deg) translate(-178.25601196289062px, -247.5470199584961px);}43.33%{-webkit-transform: translate(178.25601196289062px, 247.5470199584961px) rotate(-8deg) translate(-178.25601196289062px, -247.5470199584961px);transform: translate(178.25601196289062px, 247.5470199584961px) rotate(-8deg) translate(-178.25601196289062px, -247.5470199584961px);}46.67%{-webkit-transform: translate(178.25601196289062px, 247.5470199584961px) rotate(0deg) translate(-178.25601196289062px, -247.5470199584961px);transform: translate(178.25601196289062px, 247.5470199584961px) rotate(0deg) translate(-178.25601196289062px, -247.5470199584961px);}50%{-webkit-transform: translate(178.25601196289062px, 247.5470199584961px) rotate(-8deg) translate(-178.25601196289062px, -247.5470199584961px);transform: translate(178.25601196289062px, 247.5470199584961px) rotate(-8deg) translate(-178.25601196289062px, -247.5470199584961px);}53.33%{-webkit-transform: translate(178.25601196289062px, 247.5470199584961px) rotate(0deg) translate(-178.25601196289062px, -247.5470199584961px);transform: translate(178.25601196289062px, 247.5470199584961px) rotate(0deg) translate(-178.25601196289062px, -247.5470199584961px);}100%{-webkit-transform: translate(178.25601196289062px, 247.5470199584961px) rotate(0deg) translate(-178.25601196289062px, -247.5470199584961px);transform: translate(178.25601196289062px, 247.5470199584961px) rotate(0deg) translate(-178.25601196289062px, -247.5470199584961px);}}@keyframes el_dKN9Bi8HNI_U1cx6RSEp_Animation{0%{-webkit-transform: translate(178.25601196289062px, 247.5470199584961px) rotate(0deg) translate(-178.25601196289062px, -247.5470199584961px);transform: translate(178.25601196289062px, 247.5470199584961px) rotate(0deg) translate(-178.25601196289062px, -247.5470199584961px);}3.33%{-webkit-transform: translate(178.25601196289062px, 247.5470199584961px) rotate(-8deg) translate(-178.25601196289062px, -247.5470199584961px);transform: translate(178.25601196289062px, 247.5470199584961px) rotate(-8deg) translate(-178.25601196289062px, -247.5470199584961px);}6.67%{-webkit-transform: translate(178.25601196289062px, 247.5470199584961px) rotate(0deg) translate(-178.25601196289062px, -247.5470199584961px);transform: translate(178.25601196289062px, 247.5470199584961px) rotate(0deg) translate(-178.25601196289062px, -247.5470199584961px);}10%{-webkit-transform: translate(178.25601196289062px, 247.5470199584961px) rotate(-8deg) translate(-178.25601196289062px, -247.5470199584961px);transform: translate(178.25601196289062px, 247.5470199584961px) rotate(-8deg) translate(-178.25601196289062px, -247.5470199584961px);}13.33%{-webkit-transform: translate(178.25601196289062px, 247.5470199584961px) rotate(0deg) translate(-178.25601196289062px, -247.5470199584961px);transform: translate(178.25601196289062px, 247.5470199584961px) rotate(0deg) translate(-178.25601196289062px, -247.5470199584961px);}16.67%{-webkit-transform: translate(178.25601196289062px, 247.5470199584961px) rotate(-8deg) translate(-178.25601196289062px, -247.5470199584961px);transform: translate(178.25601196289062px, 247.5470199584961px) rotate(-8deg) translate(-178.25601196289062px, -247.5470199584961px);}20%{-webkit-transform: translate(178.25601196289062px, 247.5470199584961px) rotate(0deg) translate(-178.25601196289062px, -247.5470199584961px);transform: translate(178.25601196289062px, 247.5470199584961px) rotate(0deg) translate(-178.25601196289062px, -247.5470199584961px);}23.33%{-webkit-transform: translate(178.25601196289062px, 247.5470199584961px) rotate(-8deg) translate(-178.25601196289062px, -247.5470199584961px);transform: translate(178.25601196289062px, 247.5470199584961px) rotate(-8deg) translate(-178.25601196289062px, -247.5470199584961px);}26.67%{-webkit-transform: translate(178.25601196289062px, 247.5470199584961px) rotate(0deg) translate(-178.25601196289062px, -247.5470199584961px);transform: translate(178.25601196289062px, 247.5470199584961px) rotate(0deg) translate(-178.25601196289062px, -247.5470199584961px);}30%{-webkit-transform: translate(178.25601196289062px, 247.5470199584961px) rotate(-8deg) translate(-178.25601196289062px, -247.5470199584961px);transform: translate(178.25601196289062px, 247.5470199584961px) rotate(-8deg) translate(-178.25601196289062px, -247.5470199584961px);}33.33%{-webkit-transform: translate(178.25601196289062px, 247.5470199584961px) rotate(0deg) translate(-178.25601196289062px, -247.5470199584961px);transform: translate(178.25601196289062px, 247.5470199584961px) rotate(0deg) translate(-178.25601196289062px, -247.5470199584961px);}36.67%{-webkit-transform: translate(178.25601196289062px, 247.5470199584961px) rotate(-8deg) translate(-178.25601196289062px, -247.5470199584961px);transform: translate(178.25601196289062px, 247.5470199584961px) rotate(-8deg) translate(-178.25601196289062px, -247.5470199584961px);}40%{-webkit-transform: translate(178.25601196289062px, 247.5470199584961px) rotate(0deg) translate(-178.25601196289062px, -247.5470199584961px);transform: translate(178.25601196289062px, 247.5470199584961px) rotate(0deg) translate(-178.25601196289062px, -247.5470199584961px);}43.33%{-webkit-transform: translate(178.25601196289062px, 247.5470199584961px) rotate(-8deg) translate(-178.25601196289062px, -247.5470199584961px);transform: translate(178.25601196289062px, 247.5470199584961px) rotate(-8deg) translate(-178.25601196289062px, -247.5470199584961px);}46.67%{-webkit-transform: translate(178.25601196289062px, 247.5470199584961px) rotate(0deg) translate(-178.25601196289062px, -247.5470199584961px);transform: translate(178.25601196289062px, 247.5470199584961px) rotate(0deg) translate(-178.25601196289062px, -247.5470199584961px);}50%{-webkit-transform: translate(178.25601196289062px, 247.5470199584961px) rotate(-8deg) translate(-178.25601196289062px, -247.5470199584961px);transform: translate(178.25601196289062px, 247.5470199584961px) rotate(-8deg) translate(-178.25601196289062px, -247.5470199584961px);}53.33%{-webkit-transform: translate(178.25601196289062px, 247.5470199584961px) rotate(0deg) translate(-178.25601196289062px, -247.5470199584961px);transform: translate(178.25601196289062px, 247.5470199584961px) rotate(0deg) translate(-178.25601196289062px, -247.5470199584961px);}100%{-webkit-transform: translate(178.25601196289062px, 247.5470199584961px) rotate(0deg) translate(-178.25601196289062px, -247.5470199584961px);transform: translate(178.25601196289062px, 247.5470199584961px) rotate(0deg) translate(-178.25601196289062px, -247.5470199584961px);}}#el_2R4dZG7zW *{-webkit-animation-duration: 9s;animation-duration: 9s;-webkit-animation-iteration-count: infinite;animation-iteration-count: infinite;-webkit-animation-timing-function: cubic-bezier(0, 0, 1, 1);animation-timing-function: cubic-bezier(0, 0, 1, 1);}#el_w1dsbvOw-H{fill: #CBC9C5;}#el_SMMYUv8jSN{fill: #CBCCDF;}#el_YSfe63Z2eF{fill: #DCDDEF;}#el_cj3RSSrH3z{fill: #C1B49A;}#el_lEibiWxxkP{fill: #6D7A89;}#el_Tl2FiTjy6R{fill: #6D7A89;}#el_PKwcgrozte{fill: #D0CDE6;}#el_ijN8M77zUn{fill: #D0CDE6;}#el_pgKUnCUaE9{fill: none;}#el_u6sGRIaFBI{fill: #BABAC6;}#el_7ytiAI8MPC{fill: #506290;}#el_UZgJbwcwKp{fill: #4F8780;}#el_Od6PytOE8l{fill: #B65A60;}#el_LbfdJUgIwN{fill: #534A32;}#el_MHKPxM18EWI{fill: #D69D4F;}#el_JzN0yoWonJa{fill: #ABABC8;}#el_WbmENBpRmse{fill: #EBE9E8;stroke: #D3D0CB;}#el_yVf_HFDf0dj{fill: #EBE9E8;stroke: #D1CAC0;}#el_oQebNwIaV19{fill: #CBCCDF;}#el_o0Bf0B7Dl6J{fill: #CBC9C5;}#el_QMB8NEfZPcj{fill: #DCDDEF;}#el_Sxxj9_4of_P{fill: #DBB4B4;}#el_Rd5FK8IIK54{fill: #ABABC8;}#el_Ddio7GQVfZe{fill: #ABABC8;}#el_V6TGD6GQZvC{fill: #272525;}#el_8EEq54eW3EB{fill: none;}#el_akLKE4uS3CS{opacity: 0.2;fill: #DC6C7C;}#el_2YorOjjXw6x{fill: #DE7074;stroke: #DE7074;}#el_HYo3IFymMAB{opacity: 0.6;fill: #D95256;stroke: #DE7074;}#el_JrQwbWa501s{opacity: 0.2;fill: #DC6C7C;}#el_iQGDV5RKY1m{opacity: 0.3;fill: none;stroke: #D06879;}#el_P3gNXtBWJiU{opacity: 0.8;fill: #D3A6A7;}#el_WTD1bSKB4Zu{fill: #492818;}#el_Gy1qv1xh2TJ{fill: #492818;}#el_8EVAw912mpr{fill: #492818;}#el_1RNwvMixrvy{fill: #492818;}#el_CJDx7B66u2d{fill: #492818;}#el_AMsamvhKeN1{fill: #492818;}#el_iepaNqvxnJ8{fill: #833A29;}#el_aITBOVwa-hi{fill: #7F3928;}#el_eLrsLRZBaxf{fill: #272525;}#el_Cibf4s1vFO3{opacity: 0.3;fill: #BABAC6;}#el_C89ooN6BFZV{fill: #FFFFFF;}#el_OZXgiQV4mDZ{fill: #FFFFFF;}#el_MxoC8Dj3zAq{-webkit-transform: matrix(0.9288, -0.3706, 0.3706, 0.9288, -95.6349, 87.6379);transform: matrix(0.9288, -0.3706, 0.3706, 0.9288, -95.6349, 87.6379);fill: #4D4E87;}#el_dKN9Bi8HNI_U1cx6RSEp{-webkit-animation-name: el_dKN9Bi8HNI_U1cx6RSEp_Animation;animation-name: el_dKN9Bi8HNI_U1cx6RSEp_Animation;-webkit-transform: translate(178.25601196289062px, 247.5470199584961px) rotate(0deg) translate(-178.25601196289062px, -247.5470199584961px);transform: translate(178.25601196289062px, 247.5470199584961px) rotate(0deg) translate(-178.25601196289062px, -247.5470199584961px);}</style>
<g id="el_dKN9Bi8HNI_U1cx6RSEp" data-animator-group="true" data-animator-type="1"><g id="el_dKN9Bi8HNI">
	<path d="M275.79,149.241c-0.576-7.064-5.024-19.434-14.632-13.693c-8.31,4.965-0.592,16.028,1.445,22.285&#10;&#9;&#9;c1.509,4.637,1.363,9.19,0.762,13.971c11.717,3.59,22.342,7.82,31.586-2.424c6.19-12.266,10.81-26.372,6.334-39.85&#10;&#9;&#9;c-3.742-11.269-17.146-16.766-23.395-4.094c-3.425,6.945-2.572,15.355-2.008,22.809" id="el_w1dsbvOw-H"/>
	<path d="M178.816,205.675c0.16,5.578,0.34,11.194,1.533,16.665c1.195,5.475,3.424,10.755,7.017,15.099&#10;&#9;&#9;c3.72,4.5,8.777,7.805,14.444,9.256c6.182,1.581,12.754,0.895,18.632-1.505c6.281-2.565,11.781-7.008,15.761-12.491&#10;&#9;&#9;c3.53-4.865,6.097-10.841,6.022-16.94c-0.06-4.997-2.146-9.681-6.214-12.675c-4.392-3.23-10.092-4.148-15.416-4.275&#10;&#9;&#9;c-6.381-0.152-12.763,0.822-19.01,2.035c-6.34,1.231-12.618,2.776-18.885,4.338c-1.482,0.368-2.963,0.74-4.444,1.112" id="el_SMMYUv8jSN"/>
	<path d="M227.119,199.449c13.935-1.248,24.216-10.536,31.918-21.666c2.029-2.933,2.982-6.159,4.66-9.303&#10;&#9;&#9;c7.105,5.339,20.344,2.269,28.367,3.455c-1.753,13.069-5.899,25.365-12.498,36.96c-6.686,11.749-16.846,21.919-29.985,26.004&#10;&#9;&#9;c-6.547,2.035-11.378,2.961-18.183,3.228c6.747-9.565,2.87-21.19-0.827-31.69C229.597,203.674,228.274,202.141,227.119,199.449&#10;&#9;&#9;C227.037,199.678,227.25,199.241,227.119,199.449" id="el_YSfe63Z2eF"/>
</g></g>
<path d="M10.93,373.708c-1.342,0.188-2.681,0.354-4,0.668" id="el_cj3RSSrH3z"/>
<path d="M160.262,386.249c0.344-0.049,1.67-0.214,1.084-0.263c11.054,7.318,18.104,16.235,27.3,25.786&#10;&#9;c6.591,6.844,14.058,17.006,24.747,15.631c10.823-1.393,23.707-9.314,31.569-16.576c8.515-7.865,5.362-16.363-5.701-18.939&#10;&#9;c-2.719-0.633-5.453-0.836-8.228-0.365c-2.824,0.48-3.855,2.324-6.192,3.184c-4.929,1.811-9.435-7.299-12.641-10.58&#10;&#9;c-3.996-4.09-9.662-9.098-12.143-14.295c-7.104,1.713-15.128,6.51-21.679,9.869c-4.361,2.234-7.998,3.902-12.588,5.27&#10;&#9;c-2.742,0.816-1.073,0.411-3.748-1.565" id="el_lEibiWxxkP"/>
<path d="M220.08,360.923c9.702,8.533,18.354,17.541,26.399,27.645c5.158,6.479,10.006,12.705,18.74,8.529&#10;&#9;c9.644-4.607,43.544-31.547,18.803-38.637c-2.182-0.625-4.866-0.951-7.053-0.248c-1.797,0.578-3.539,2.961-5.501,2.736&#10;&#9;c-3.442-0.393-7.075-8.145-9.173-10.641c-3.498-4.164-6.085-12.922-11.977-14.098c-3.378,4.623-7.671,8.326-12.268,11.797&#10;&#9;c-2.934,2.215-5.98,4.262-9.022,6.318c-2.504,1.691-7.275,6.938-10.277,6.701" id="el_Tl2FiTjy6R"/>
<path d="M125.896,318.173c11.707-2.98,22.435-6.814,33.441-12.174c11.553-5.623,22.191-12.924,33.093-19.795&#10;&#9;c4.665-2.939,9.112-6.367,13.911-9.047c2.44,2.447,3.571,6.379,6.092,8.994c2.844,2.951,5.414,6.09,8.129,9.166&#10;&#9;c4.99,5.646,10.059,10.666,13.678,17.482c1.735,3.266,3.032,6.736,4.654,10.057c-5.365,2.686-10.146,5.979-14.728,9.988&#10;&#9;c-3.858,3.377-8.563,9.242-13.716,10.266c-3.897,0.771-5.879-2.947-7.757-5.941c-2.578-4.113-5.32-8.029-8.948-11.172&#10;&#9;c-1.58-1.369-6.252-5.551-8.143-2.783c-2.216,3.246,2.893,11.59,4.25,14.236c2.211,4.307,7.115,10.395,6.704,15.635&#10;&#9;c-0.375,4.781-6.246,7.047-9.708,8.729c-9.543,4.635-19.331,8.689-29.545,11.273c-1.078,0.271-2.16,0.537-3.241,0.801&#10;&#9;c0.065-1.809-1.839-4.002-2.642-5.559c-1.039-2.018-1.89-4.027-3.134-5.928c-2.192-3.348-4.382-6.701-6.509-10.088&#10;&#9;c-4.328-6.896-8.015-14.17-11.247-21.727c-0.883-2.062-1.418-4.277-2.298-6.336c-0.93-2.176-2.358-3.773-2.118-6.311" id="el_PKwcgrozte"/>
<path d="M132.346,207.292c9.658,4.944,18.184,4.09,28.381,0.975c4.001-1.223,21.678-9.105,22.058-0.232&#10;&#9;c0.427,9.971-13.726,18.527-21.609,20.99c-12.876,4.025-28.05,1.439-39.951-4.48c-10.815-5.381-15.933-13.727-15.944-25.7&#10;&#9;c-0.002-1.275,0.032-2.552,0.065-3.826c6.134,5.533,13.749,10.218,21.943,11.804c3.75,0.727,5.448,1.438,7.589,4.558&#10;&#9;c1.801,2.626,3.543,3.774,6.744,4.325c2.543,0.438,5.528,0.625,7.918-0.529c1.167-0.564,2.156-1.371,2.854-2.471&#10;&#9;c0.206-0.324,1.19-3.564,1.152-3.56c-3.554,0.515-7.175,1.522-10.784,1.899c-3.855,0.402-6.694-1.379-10.166-1.502" id="el_ijN8M77zUn"/>
<path d="M113.266,249.374c0.058,0.02,0.217-0.43,0.333-1" id="el_pgKUnCUaE9"/>
<path d="M113.513,214.827c-6.613,21.197-3.975,40.652,0.136,62.111c1.826,9.531,4.053,18.951,6.559,28.324&#10;&#9;c2.521,9.436,4.455,20.5,9.892,28.783c6.263,9.543,15.683,4.672,23.747,0.254c2.217-0.059,3.211-3.025,5.02-3.801&#10;&#9;c2.36-1.012,5.494-0.201,7.943-0.902c3.707-1.062,9.635-2.688,12.662-4.826c-0.428-1.039-0.729-2.107-0.908-3.211&#10;&#9;c17.811-2.451,40.747-6.836,42.15-28.875c1.226-19.248-11.423-39.373-20.893-55.285c-5.258-8.838-11.164-17.221-17.225-25.521&#10;&#9;c-7.016,6.209-14.379,12.414-24.042,13.525c-10.221,1.176-20.88-2.525-30.514-5.512&#10;&#9;C123.137,218.371,118.312,216.647,113.513,214.827" id="el_u6sGRIaFBI"/>
<path d="M112.599,239.374c8.222-0.602,15.685-2.816,23.571-5.053c6.691-1.898,12.111-2.721,14.81,4.686&#10;&#9;c2.732,7.496,4.737,13.951,9.415,20.576c4.063,5.756,5.423,10.17-0.774,15.037c-7.314,5.744-16.958,7.705-25.972,8.705&#10;&#9;c-1.02-6.141-5.254-10.701-8.355-15.871c-3.228-5.381-6.042-10.604-8.724-16.17C115.447,248.954,114.606,240.593,112.599,239.374" id="el_7ytiAI8MPC"/>
<path d="M169.801,229.71c-4.392,11.211-4.548,22.775-2.075,34.512c0.593,2.812,1.204,5.756,2.255,8.438&#10;&#9;c8.041-2.756,24.238-6.383,27.513-15.381c2.981-8.191-10.528-17.262-16.015-21.365C177.621,233.03,174.284,231.417,169.801,229.71" id="el_UZgJbwcwKp"/>
<path d="M164.266,281.374c1.86,5.482,5.467,10.539,7.797,15.814c1.879,4.256,2.969,8.932,6.277,12.387&#10;&#9;c4.863-3.711,12.612-4.838,16.292-10.201c-1.239-3.264-2.399-6.523-4.054-9.699c-1.118-2.148-3.07-7.18-4.923-8.355&#10;&#9;c-0.511-1.42-1.423-2.848-2.122-4.227c-3.175,0.75-6.604,2.488-9.622,3.938c-3.091,1.48-7.497,2.387-9.979,4.344" id="el_Od6PytOE8l"/>
<path d="M188.266,273.042c0.025-0.225,0.482-0.646,0.325-1.232c1.441,3.982,5.419,8.504,7.775,12.41&#10;&#9;c2.143,3.551,3.674,7.434,5.548,11.021c3.642-2.006,6.726-4.389,10.642-5.59c-1.505-3.766-3.788-7.139-5.624-10.596&#10;&#9;c-1.584-2.982-4.535-6.496-5.049-9.963c-4.553-0.25-8.175,2.193-12.038,3.852" id="el_LbfdJUgIwN"/>
<path d="M195.266,269.374c0.718,3.707,3.837,8.633,5.734,11.93c1.524,2.648,5.229,6.801,5.554,9.887&#10;&#9;c0.368,3.506-2.823,4.377-5.565,5.717c-2.819-5.549-3.936-11.361-7.748-16.486c-1.354-1.818-6.25-5.457-5.02-8.018&#10;&#9;c1.076-2.24,5.294-1.258,6.711-3.695" id="el_MHKPxM18EWI"/>
<path d="M129.554,333.188c1.693,6.752,3.284,10.649,11.614,10.589c8.561-0.064,17.787-6.338,25.281-10.037&#10;&#9;c8.129-4.012,17-6.738,25.062-10.889c8.784-4.521,20.512-9.109,28.37-15.277c8.377-6.574,6.151-15.724,0.585-22.937&#10;&#9;c-8.688,10.07-21.203,19.87-32.79,26.245c-6.78,3.732-13.275,8.111-20.233,11.482c-6.254,3.027-12.897,4.285-19.465,6.309&#10;&#9;c-6.588,2.031-11.12,5.804-18.093,5.044" id="el_JzN0yoWonJa"/>
<g id="el_TtciZxsiu1F">
	<path stroke-miterlimit="10" d="M148.492,278.122c0.199-0.057,0.373,0.197,0.624-0.24&#10;&#9;&#9;c-2.662,13.492-5.465,27.465-9.669,40.568c-2.146,6.686-5.956,12.396-9.236,18.541c-2.654,4.973-5.699,11.395-0.679,15.889&#10;&#9;&#9;c5.147,4.607,14.276,5.766,20.704,7.629c1.293-5.572,1.343-11.309,2.759-16.85c1.343-5.25,3.173-10.447,4.806-15.586&#10;&#9;&#9;c1.731-5.457,3.684-10.963,5.856-16.299c2.118-5.201,2.337-10.646,4.071-15.963c1.682-5.154,3.961-10.615,6.307-15.492&#10;&#9;&#9;c-3.518,1.906-9.324,2.564-13.134,2.258c-4.085-0.326-10.618-5.689-13.925-2.955" id="el_WbmENBpRmse"/>
	<path stroke-miterlimit="10" d="M161.842,275.591c-9.744-7.191-8.161,5.604-0.896,6.229&#10;&#9;&#9;c9.678,0.832,11.807-14.525,2.51-17.045c-7.624-2.066-16.807,5.498-16.314,13.395c0.535,8.566,11.646,9.477,18.033,7.637&#10;&#9;&#9;c8.948-2.58,13.559-9.844,11.162-18.816c-1.27,1.857-1.415,4.127-2.662,6.035c-1.516,2.316-3.75,2.236-5.799,3.959" id="el_yVf_HFDf0dj"/>
</g>
<path d="M106.596,201.042c0,0-0.514-0.971-0.705-1.219c2.508,3.491,2.922,8.061,4.387,11.977&#10;&#9;c1.295,3.461,3.933,1.045,6.068,3.854c-2.742,7.506-7.429,21.242-6.484,29.387c0.863,7.449,5.398,13.346,9.904,19.043&#10;&#9;c4.217,5.328,9.166,11.211,9.655,18.303c0.459,6.65-3.598,12.354-9.159,15.629c-13.447,7.922-28.18,1.004-35.447-11.535&#10;&#9;c-8.123-14.014-12.186-32.773-11.693-48.871c0.25-8.16,2.104-16.539,7.225-23.086c5.023-6.422,12.429-9.939,19.953-12.572&#10;&#9;c1.93-0.674,3.875-1.297,5.82-1.921c0.443,0.151-0.006,0.2-0.023,0.513" id="el_oQebNwIaV19"/>
<path d="M146.262,305.042c7.882,0.959,26.789-2.734,19.438,11.676c-2.664,5.223-7.443,6.221-12.887,6.127&#10;&#9;c-3.693-0.064-11.911,0.172-13.389-4.303c-1.394-4.221,4.071-9.666,6.506-12.5" id="el_o0Bf0B7Dl6J"/>
<path d="M98.596,298.542c4.929-2.637,9.826-5.32,14.516-8.365c3.543-2.301,6.94-5.15,10.795-6.924&#10;&#9;c7.728-3.555,14.604,2.51,19.439,8.123c5.166,5.996,10.229,14.809,5.436,22.475c-4.594,7.348-14.23,9.24-22.037,6.701&#10;&#9;c-10.16-3.305-18.266-11.877-25.717-19.139c-0.979-0.955-1.955-1.914-2.932-2.871" id="el_QMB8NEfZPcj"/>
<path d="M89.096,100.485c0.214,0.27-0.486-0.322-0.636-0.921c-10.882,10.021-8.322,35.745-5.273,48.585&#10;&#9;c1.001,4.214,2.847,7.785,2.507,12.246c-19.436-17.222-23.067,17.48-9.801,25.594c3.89,2.379,7.201,0.604,10.261-2.32&#10;&#9;c15.786,23.588,37.54,35.855,66.508,34.125c8.052-0.48,15.978-2.034,23.866-3.65c6.148-5.836,14.806-10.428,16.889-19.191&#10;&#9;c2.141-9.005-0.425-17.361,11.216-18.963c8.804-1.211,15.124-2.95,17.107-13.229c2.353-12.186-10.702-5.506-15.697-11.519&#10;&#9;c-3.132-3.77,0.6-10.056,1.679-13.984c1.438-5.232,1.616-9.734-0.592-14.777c-5.02-0.365-11.902,1.535-16.623-0.168&#10;&#9;c-5.612-2.025-6.162-8.134-7.426-13.158c-1.404-5.584-3.471-11.067-10.264-10.69c-5.574,0.31-9.693,5.313-15.213,6.112&#10;&#9;c-4.926,0.714-10.02-0.796-14.129-3.4c-3.779-2.395-8.287-8.139-12.418-3.318c-3.427,3.998-0.485,11.215-3.258,15.819&#10;&#9;c-2.684,4.456-8.189,7.229-13.187,5.804c-4.658-1.326-12.335-5.977-15.16-9.915c-3.828-5.337-2.985-10.743-10.847-11.98&#10;&#9;c-0.865,1.579-1.801,3.229-2.457,4.979" id="el_Sxxj9_4of_P"/>
<path d="M151.274,368.046c5.237,15.195,12.55,34.793,32.161,32.744c14.024-1.465,31.175-14.342,28.183-30.061&#10;&#9;c-1.058-5.551-4.253-9.809-7.68-14.115c-4.159-5.225-5.927-5.695-11.955-3.016c-7.015,3.119-13.563,7.32-20.691,10.146&#10;&#9;c-5.442,2.158-14.415,5.289-20.367,4.285c-0.036,0.174,0.171-0.031,0.35-0.289" id="el_Rd5FK8IIK54"/>
<path d="M206.583,341.237c8.322-4.602,15.674-9.117,22.685-15.504c5.123-4.668,9.734-8.797,15.778-3.305&#10;&#9;c5.767,5.242,12.172,12.518,16.217,19.184c4.513,7.438-0.654,13.074-6.427,17.93c-6.929,5.828-13.485,9.897-21.545,13.981&#10;&#9;c-3.869-4.766-10.865-6.687-14.644-11.478c-3.174-4.023-5.891-8.812-8.406-13.281C209.056,346.657,206.158,342.591,206.583,341.237" id="el_Ddio7GQVfZe"/>
<ellipse cx="119.384" cy="149.606" rx="3.8" ry="8.314" id="el_V6TGD6GQZvC"/>
<path d="M111.846,193.292c-4.434,1.109-8.527,0.894-10.912-3.557c-2.697-5.03-1.793-12.458,2.534-16.319&#10;&#9;c9.51-8.485,22.149,5.315,15.394,15.069c-2.287,3.302-5.863,5.156-9.516,6.557" id="el_8EEq54eW3EB"/>
<path d="M193.432,186.571c-5.928,1.25-12.613,2.26-17.365-2.421&#10;&#9;c-5.187-5.11-5.377-13.983-2.231-20.188c8.729-17.223,27.009-3.193,25.932,11.713c-0.445,6.162-3.614,10.318-9.058,12.938" id="el_akLKE4uS3CS"/>
<path stroke-miterlimit="10" d="M128.004,176.561c1.186-1.206,15.299-1.017,18.746-1.491&#10;&#9;c6.326-0.868,12.361-0.875,18.227-3.661c4.988,9.706,4.803,20.023-5.026,26.728c-9.819,6.697-21.819,3.076-27.829-6.711&#10;&#9;c-2.646-4.307-3.864-9.221-4.859-14.123" id="el_2YorOjjXw6x"/>
<path stroke-miterlimit="10" d="M137.271,194.353&#10;&#9;c7.521-7.849,20.528-9.935,29.978-4.013c-6.599,11.071-22.701,18.178-30.719,4.384" id="el_HYo3IFymMAB"/>
<path d="M113.209,190.643c-5.928,1.25-12.613,2.259-17.364-2.421&#10;&#9;c-5.187-5.109-5.377-13.982-2.231-20.188c8.729-17.224,27.008-3.193,25.932,11.714c-0.445,6.16-3.615,10.317-9.058,12.938" id="el_JrQwbWa501s"/>
<path stroke-miterlimit="10" d="M145.978,155.734c-0.409,2.842,1.715,5.219,4.203,6.196&#10;&#9;c-1.515,1.602-3.596,2.391-5.699,3.014" id="el_iQGDV5RKY1m"/>
<path d="M197.096,154.792c0.483-1.703,0.969-3.406,1.424-5.117c1.598-6.008,3.422-12.774-0.863-18.091&#10;&#9;c-4.698-5.829-12.128-8.997-17.146-14.64c-4.41-4.957-6.787-9.698-14.098-9.896c-7.808-0.211-16.971,0.938-24.545,2.889&#10;&#9;c-6.553,1.688-9.794,8.083-14.792,12.154c-7.686,6.26-17.392,8.374-25.733,2.125c-3.875-2.902-10.779-13.271-15.127-5.781&#10;&#9;c-4.895,8.43-1.855,20.531,0.571,29.213c0.714,2.553,2.151,5.936,0.724,8.485c-1.297,2.315-4.63,3.339-6.783,4.605&#10;&#9;c-6.926,4.072-7.143,9.799-6.389,17.038c-1.821-0.874-3.33-3.222-4.187-5.01c-3.604-7.525-0.94-15.809,3.237-22.432&#10;&#9;c0.645-1.098,1.281-2.206,1.832-3.354c3.679-7.657,3.756-16.654,4.81-24.927c0.837-6.57,1.743-22.915,9.722-25.534&#10;&#9;c6.923-2.273,13.484,9.867,17.171,13.903c5.329,5.836,11.021,7.8,17.306,2.14c4.951-4.459,8.252-11.018,14.355-14.117&#10;&#9;c6.158-3.129,14.277-2.729,20.973-2.521c18.205,0.567,37.616,7.707,49.314,22.324c11.666,14.576,0.444,28.003-12.025,36.793" id="el_P3gNXtBWJiU"/>
<g id="el_-BdK42WrlIX">
	<g id="el_FyJxXTPguLP">
		<g id="el_mQneFH995g9">
			<path d="M233.517,104.824c1.078,13.017-6.046,23.414-13.824,33.115c-18.492,16.718-20.091,43.011,6.028,52.197&#10;&#9;&#9;&#9;&#9;c-9.901,8.187-24.075,11.984-29.572-3.199c-4.745-13.093,0.629-26.746,6.32-38.413c2.776-5.695,7.543-14.396,5.945-21.007&#10;&#9;&#9;&#9;&#9;c-1.741-7.204-6.153-5.256-12.071-4.713c-16.522,1.526-8.776-19.726-22.54-20.923c-7.023-0.61-13.394,6.239-20.593,6.337&#10;&#9;&#9;&#9;&#9;c-6.526,0.09-12.706-3.982-18.306-6.869c-0.686,12.821-5.967,23.412-20.302,23.823c-14.696,0.42-21.195-10.309-23.581-23.25&#10;&#9;&#9;&#9;&#9;c-0.148-0.055-0.286-0.09-0.414-0.125c0.154-0.435,0.318-0.859,0.473-1.284l-2.544,2.024c0.83-0.394,1.207-0.902,2.071-0.74&#10;&#9;&#9;&#9;&#9;c-6.576,17.956-13.054,41.254-3.885,59.592c-30.774-17.19-12.226,36.16-0.546,21.515c2.963,6.877,13.234,17.63,20.382,22.429&#10;&#9;&#9;&#9;&#9;c-9.126,12.25-28.585,2.862-29.265-9.873c-19.32,3.938-27.287-7.582-19.125-24.711c0.142,0.182,0.2,0.161,0.184-0.073&#10;&#9;&#9;&#9;&#9;c-0.04-0.019-0.07-0.047-0.109-0.065c0.083-0.178,0.166-0.356,0.259-0.535c-0.172,0.122-0.285,0.282-0.348,0.479&#10;&#9;&#9;&#9;&#9;c-9.395-5.49-21.375-12.277-20.311-24.815c1.009-11.735,11.276-21.192,16.346-31.269C65.099,92.816,52.599,63.419,77.17,48.5&#10;&#9;&#9;&#9;&#9;c12.209-7.409,25.645-4.971,38.428-0.668c2.637,4.228,6.034,8.054,8.12,12.502C122.25,39.5,138.385,24.45,158.449,23.062&#10;&#9;&#9;&#9;&#9;c-5.979,5.773-12.3,13.402-8.953,22.165c20.165-14.887,38.915-11.099,54.504,8.314C215.352,67.675,231.97,86.122,233.517,104.824&#10;&#9;&#9;&#9;&#9;z" id="el_WTD1bSKB4Zu"/>
			<path d="M88.535,102.536l2.544-2.024c-0.155,0.424-0.319,0.849-0.473,1.284&#10;&#9;&#9;&#9;&#9;C89.742,101.633,89.365,102.142,88.535,102.536z" id="el_Gy1qv1xh2TJ"/>
			<path d="M86.78,161.415c0.26,0.218,0.251,0.228-0.028,0.03c-0.01-0.02-0.021-0.039-0.031-0.058&#10;&#9;&#9;&#9;&#9;C86.741,161.396,86.761,161.406,86.78,161.415z" id="el_8EVAw912mpr"/>
			<path d="M58.5,170.073c-0.093,0.179-0.176,0.357-0.259,0.535c-0.03-0.019-0.06-0.028-0.089-0.057&#10;&#9;&#9;&#9;&#9;C58.215,170.355,58.328,170.195,58.5,170.073z" id="el_1RNwvMixrvy"/>
			<path d="M58.351,170.674c0.016,0.234-0.042,0.255-0.184,0.073c0.028-0.05,0.046-0.089,0.074-0.139&#10;&#9;&#9;&#9;&#9;C58.281,170.626,58.311,170.655,58.351,170.674z" id="el_CJDx7B66u2d"/>
			<path d="M58.241,170.608c-0.028,0.049-0.046,0.089-0.074,0.139c-0.01-0.02-0.031-0.048-0.051-0.077&#10;&#9;&#9;&#9;&#9;c0.009-0.04,0.018-0.079,0.036-0.119C58.182,170.581,58.211,170.589,58.241,170.608z" id="el_AMsamvhKeN1"/>
		</g>
	</g>
	<path d="M222.567,131.78c-3.726,3.164-6.908,6.686-9.536,10.811c-5.181,8.134-9.613,18.475-7.358,28.246&#10;&#9;&#9;c2.504,10.841,10.472,15.637,19.246,7.756c-28.657-1.238-9.002-32.793-2.335-46.162" id="el_iepaNqvxnJ8"/>
	<path d="M48.879,123.65c-4.176,9.229-11,23.39,1.239,29.829c4.411,2.32,9.479,1.959,12.544,6.609&#10;&#9;&#9;c3.842,5.83-0.576,11.325-0.342,17.422c0.276,7.238,6.248,9.209,11.5,4.621c0.521,7.325-3.52,13.117-11.593,11.172&#10;&#9;&#9;c-9.091-2.19-7.265-9.953-6.987-17.006c0.312-7.904-4.694-8.236-10.553-11.857c-7.021-4.338-8.426-11.158-7.496-19.016&#10;&#9;&#9;c1.02-8.609,4.724-15.173,11.227-20.784" id="el_aITBOVwa-hi"/>
</g>
<ellipse cx="165.231" cy="149.606" rx="3.8" ry="8.314" id="el_eLrsLRZBaxf"/>
<circle cx="137.096" cy="117.472" r="115" id="el_Cibf4s1vFO3"/>
<path d="M197.263,27.374c8.893,7.777,26.746,14.315,27.926,27.927c-5.812,2.647-12.488-9.756-15.688-13.415&#10;&#9;c-2.197-2.512-14.936-12.226-10.237-14.012" id="el_C89ooN6BFZV"/>
<path d="M228.763,61.374c2.108,1.131,5.88,2.68,5.637,5.805c-1.94,0.818-4.228-0.359-5.597-1.8&#10;&#9;c-1.045-1.1-2.104-4.481,0.626-3.838" id="el_OZXgiQV4mDZ"/>
<ellipse cx="180.262" cy="292.71" rx="5.001" ry="6.062" id="el_MxoC8Dj3zAq"/>
</svg>