<?xml version="1.0" encoding="utf-8"?>
<!-- Generator: Adobe Illustrator 16.0.0, SVG Export Plug-In . SVG Version: 6.00 Build 0)  -->
<!DOCTYPE svg PUBLIC "-//W3C//DTD SVG 1.1//EN" "http://www.w3.org/Graphics/SVG/1.1/DTD/svg11.dtd">
<svg version="1.1" id="Layer_1" xmlns="http://www.w3.org/2000/svg" xmlns:xlink="http://www.w3.org/1999/xlink" x="0px" y="0px"
	 width="350px" height="350px" viewBox="0 0 350 350" enable-background="new 0 0 350 350" xml:space="preserve">
<g>
	<path fill="#E55D59" d="M64.2,23.3c55.6-44.8,85.7,22.6,111.4,69.3c43.2-31.1,98.8-79.7,130.1-15c24.4,50.5,9.1,119.3-34.7,154.2
		C120,340.9,120.1,340.7,120.1,340.7s-0.3,0.4-90.6-163.1C4.9,127.3,20.5,58.5,64.2,23.3z"/>
	<path fill="#CC5451" d="M175.6,92.6l-55.7,247.7c-1.5-2.5-12.2-21.2-90.3-162.7c-24.7-50.3-9-119,34.7-154.2
		C119.8-21.4,149.9,46,175.6,92.6"/>
</g>
</svg>
