<?xml version="1.0" encoding="utf-8"?>
<!-- Generator: Adobe Illustrator 16.0.0, SVG Export Plug-In . SVG Version: 6.00 Build 0)  -->
<!DOCTYPE svg PUBLIC "-//W3C//DTD SVG 1.1//EN" "http://www.w3.org/Graphics/SVG/1.1/DTD/svg11.dtd">
<svg version="1.1" id="Layer_1" xmlns="http://www.w3.org/2000/svg" xmlns:xlink="http://www.w3.org/1999/xlink" x="0px" y="0px"
	 width="373.4px" height="480px" viewBox="0 0 373.4 480" enable-background="new 0 0 373.4 480" xml:space="preserve">
<g>
	<g>
		
			<image overflow="visible" opacity="0.75" width="2128" height="2128" xlink:href="F30605D1298D749E.png"  transform="matrix(0.24 0 0 0.24 -69.5386 49.4033)">
		</image>
		<g>
			<circle fill="#9968AC" cx="185.8" cy="304.7" r="165.3"/>
		</g>
	</g>
	<path fill="#4B2D57" d="M141.5,463.6c260-95.1,96.7-316.1,96.7-316.2c63,20.5,110,78.1,113.8,148.2c5,91.2-64.9,169.1-156.1,174
		C177,470.7,158.7,468.5,141.5,463.6z"/>
	<circle fill="#4B2D57" stroke="#9968AC" stroke-width="1.0905" stroke-miterlimit="10" cx="191.9" cy="244.9" r="38.8"/>
	<circle fill="#4B2D57" stroke="#9968AC" stroke-width="4" stroke-miterlimit="10" cx="286" cy="335.2" r="30.5"/>
	<circle fill="#4B2D57" stroke="#9968AC" stroke-width="0.9219" stroke-miterlimit="10" cx="187.6" cy="395.1" r="23.7"/>
	<circle fill="#4B2D57" stroke="#9968AC" stroke-width="0.9219" stroke-miterlimit="10" cx="87.3" cy="250.6" r="21.3"/>
	<circle fill="#4B2D57" stroke="#9968AC" stroke-width="4" stroke-miterlimit="10" cx="272" cy="203.8" r="15.3"/>
	<circle fill="#4B2D57" stroke="#9968AC" stroke-width="1.189" stroke-miterlimit="10" cx="125.9" cy="331.5" r="23.5"/>
	<ellipse fill="#4B2D57" cx="179.5" cy="167.2" rx="14.2" ry="4.8"/>
	<g>
		<polygon fill="#F17DB1" points="180.3,11.8 303,11.8 289.8,48.4 303,84.9 180.3,84.9 		"/>
		<polyline fill="#F170A4" points="184.5,32.1 265.3,84.9 184.5,84.9 184.5,32.1 		"/>
		<g>
			<path fill="#F1F2F2" d="M218.4,20.1c0.9,0,1.6,0.8,1.6,1.6v3.3c0,2.3,0.1,3.9,0.1,6.9c0,1.5,0,2.5,0,5.3c0.2,0.3,1.4,0.3,2.5,0.3
				c0.9,0,1.6,0.7,1.6,1.6c0,0.9-0.8,1.6-1.6,1.6c-2.9,0-4.5-0.4-5.2-1.7c-0.1,0-0.3,0.1-0.4,0.1c-0.9,0-1.6-0.8-1.6-1.6V25
				c0-1.1,0.1-2.9,0.2-3.9c0.1-0.8,0.9-1.5,1.8-1.4c0.4,0.1,0.7,0.2,0.9,0.5H218.4z"/>
			<path fill="#F1F2F2" d="M230.3,21.4c0.6-0.7,1.2-1.2,2.2-1.2c3.4,0.1,3.9,2.9,3.9,6.7c0,1.4-0.1,2.8-0.1,4.3
				c0,1.1-0.1,2.1-0.3,4.1c-0.4,3.2-2.2,5.8-5,5.8c-0.4,0-1.2-0.1-1.6-0.4c-0.5-0.4-1.4-1.3-2-2.1c-0.8-1-0.8-1.4-0.8-5.9V30
				c0-5.9,0.1-7.4,1.3-8.6c0.3-0.3,0.7-0.4,1.1-0.4C229.7,20.9,230,21.1,230.3,21.4z M232.3,37.2c0.7-1.3,1-4.4,1-5.5
				c0-2.4,0-6.3-0.5-8.1c-1.9,0.8-2.1,4.3-2.1,7.9v1c0,1.9,0,2.9,0.3,3.5C231.3,36.8,232.3,37.2,232.3,37.2z"/>
			<path fill="#F1F2F2" d="M245.1,29.9h0.2c0.2-1.9,0.4-3.2,0.5-3.5c0.3-1.8,0.8-3.9,1.2-5.3c0.2-0.7,0.9-1.1,1.5-1.1
				c1,0,1.6,0.8,1.6,1.6c0,1-1.2,4.6-1.7,9.8c-0.5,5.6-0.8,7-1.2,8.4c-0.7,0.7-1.6,1.5-2.4,1.5c-0.3,0-0.6-0.2-0.8-0.5
				c-0.5-0.1-1-0.3-1.3-0.8c-0.1-0.2-1.3-2.2-1.3-2.2c-2.3-4.3-2.5-10.7-2.5-16c0-0.9,0.8-1.6,1.6-1.6c0.3,0,0.6,0.1,0.9,0.3
				c0.3-0.2,0.6-0.3,0.9-0.3c0.9,0,1.6,0.8,1.6,1.6v2C244.2,25.2,244.6,27.2,245.1,29.9z"/>
			<path fill="#F1F2F2" d="M256.8,21.2c0.2,0,0.3-0.3,1-0.3c0.2,0,0.3,0,0.8,0.1c1.6,0.4,2.9,0.6,3.6,0.8c0.7,0.2,1.1,0.9,1.1,1.5
				c0,1-0.8,1.6-1.6,1.6c0,0-2.9-0.7-2.9-0.7c-0.1,0.8-0.3,3.4-0.3,4.7h1c0.9,0,1.6,0.8,1.6,1.6c0,0.9-0.7,1.6-1.6,1.6h-1.2
				c0,1-0.1,1.6-0.1,2.4c0,0.6,0,1.2,0,2.2c0.5,0.1,0.7,0.1,1.5,0.1c0.2-0.1,0.3-0.2,0.7-0.2c0.8,0,1.6,0.6,1.6,1.6
				c0,1.2-1.1,1.8-2.4,1.8c-2,0-3-0.3-4-1.5c-0.3,0.3-0.7,0.5-1.1,0.5c-1.1,0-1.7-0.9-1.7-2.2v-5c0-4.1,0.2-5.2,1.2-9.1
				c0.1-0.1,0.1-0.3,0.1-0.5c0.1-0.8,0.8-1.5,1.6-1.5C256.1,20.8,256.5,20.9,256.8,21.2z"/>
			<path fill="#F1F2F2" d="M205.1,52.2c0.1,0,0.3-0.5,1.5-0.5c3.7,0,5.8,3.7,5.8,7.7c0,4.7-1.2,9.1-5.1,11.6
				c-0.2,0.1-0.5,0.2-0.8,0.2c-0.2,0.1-0.4,0.1-0.7,0.1c-2.4,0-4.2-6-4.2-9.9c0-3.1,0.3-6.3,0.7-8.6c0.2-0.7,0.9-1.2,1.6-1.2
				C204.3,51.6,204.8,51.8,205.1,52.2z M206.2,55.1c-0.2,2.3-0.4,3.8-0.4,5.3c0,1.8,0.2,3.5,0.7,6.4c1.8-1.8,2.8-4.4,2.8-6.7
				C209.3,57.8,208.3,55.8,206.2,55.1z"/>
			<path fill="#F1F2F2" d="M219,52.5c0.2,0,0.3-0.3,1-0.3c0.2,0,0.3,0,0.8,0.1c1.6,0.4,2.9,0.6,3.6,0.8c0.7,0.2,1.1,0.9,1.1,1.5
				c0,1-0.8,1.6-1.6,1.6c0,0-2.9-0.7-2.9-0.7c-0.1,0.8-0.3,3.4-0.3,4.7h1c0.9,0,1.6,0.8,1.6,1.6s-0.7,1.6-1.6,1.6h-1.2
				c0,1-0.1,1.6-0.1,2.4c0,0.6,0,1.2,0,2.2c0.5,0.1,0.7,0.1,1.5,0.1c0.2-0.1,0.3-0.2,0.7-0.2c0.8,0,1.6,0.6,1.6,1.6
				c0,1.2-1.1,1.8-2.4,1.8c-2,0-3-0.3-4-1.5c-0.3,0.3-0.7,0.5-1.1,0.5c-1.1,0-1.7-0.9-1.7-2.2v-5c0-4.1,0.2-5.2,1.2-9.1
				c0.1-0.1,0.1-0.3,0.1-0.5c0.1-0.8,0.8-1.5,1.6-1.5C218.3,52.1,218.6,52.3,219,52.5z"/>
			<path fill="#F1F2F2" d="M236.9,54.6c0,0.9-0.7,1.6-1.6,1.6c-0.4,0-0.7-0.1-1.2-0.5c-0.1-0.1-0.2-0.1-0.4-0.2c0,1.4,0.3,2,0.9,3.4
				c1.3,3.1,2.4,6.3,2.4,9c0,3.6-0.6,5.3-4.3,5.3c-1.5,0-3-0.9-3-2.2c0-0.8,0.6-1.6,1.6-1.6c0.4,0,0.8,0.1,1.1,0.4
				c0.1-0.5,0.1-0.9,0.1-1.2c0-0.5-0.1-0.9-0.3-1.4c-0.7-2-1.5-3.4-2.2-4.8c-0.2-0.4-0.4-1-0.7-1.6c-0.5-1.3-1.3-2.8-1.3-4.3
				c0-1.3,1-3.2,2.3-3.2c0.2,0,0.4,0.1,0.6,0.1c0.5-0.7,1.4-1.2,2.2-1.2c0.5,0,1.6,0.3,2,0.4C236,52.9,236.9,53.6,236.9,54.6z"/>
			<path fill="#F1F2F2" d="M240.8,55.6c-0.7-0.2-1.2-0.8-1.2-1.6c0-0.9,0.8-1.8,1.9-2c0.3-0.2,0.6-0.3,0.9-0.3
				c0.2,0,0.4,0.1,0.8,0.1c0.2,0,0.4,0,0.7-0.1c0.3-0.2,0.6-0.4,1-0.4c0.9,0,1.6,0.8,1.6,1.6c0,0.4-0.4,10.4-0.4,11.2
				c-0.1,1.1-0.1,1.9-0.1,4.3c0,0.3-0.1,0.7-0.3,1c0.1,0.2,0.2,0.4,0.2,0.7c0,0.7-0.5,1.3-1.2,1.6c-0.7,0.3-2.4,0.6-2.6,0.6
				c-1.6,0-2.4-0.4-2.4-1.5c0-0.7,0.5-1.5,1.6-1.6c-0.2-0.6-0.5-8.7-0.5-10.8V55.6z"/>
			<path fill="#F1F2F2" d="M261.7,64.4v5.5c0,0.3-0.1,0.6-0.3,0.9c-0.2,0.7-0.8,1.2-1.5,1.2c-1.1,0-2.1-0.1-2.5-0.2
				c-0.3,0.2-0.6,0.3-0.9,0.3c-0.3,0-0.5-0.1-1-0.2c-0.9-0.2-1.3-0.3-1.9-0.9c-3.7-2.8-4.5-3.9-4.5-7c0-4.7,3.4-12.5,7.2-12.5
				c0.5,0,0.9,0.2,1.3,0.7c0.1,0,0.3,0,0.5,0l0.2,0c0.8,0.1,1.5,0.8,1.5,1.6c0,0.9-0.8,1.6-1.6,1.6c-0.5,0-0.8,0-1,0.2
				c-1.7,1.2-3.1,5.4-3.1,7.8c0,3.1,1.4,4.4,4.2,5.3l0.2-3.8c-0.4,0.2-1.3,0.6-1.6,0.6c-0.4,0-0.6-0.2-0.7-0.7
				c-0.7-0.2-1.1-0.8-1.1-1.5c0-1.6,1.9-2,3.7-2c1.4,0,2.1,0.2,2.5,1C261.7,62.9,261.7,63.4,261.7,64.4z"/>
			<path fill="#F1F2F2" d="M273,62.5l0.3-0.1c0.1-4.3,0.2-7.1,0.4-8.3c0-0.4,0-0.7,0.2-1.3c0.2-0.7,0.9-1.2,1.6-1.2
				c0.9,0,1.6,0.8,1.6,1.7c-0.4,2.8-0.5,5.7-0.5,9.8c0,2-0.1,4.8-0.2,5.9c-0.1,1.6-1,2.9-2.4,2.9c-0.3,0-0.5-0.1-0.7-0.3
				c-0.4-0.3-0.6-1-0.7-1.5v0c-0.3-0.6-0.6-1.2-1-2.5c-0.2-0.6-0.7-1.5-0.8-2.1l-1.3-3.3l-0.3,0.2c0,1.3,0.4,5.8,0.4,7.3
				c0,1.1-0.7,1.8-1.6,1.8c-0.4,0-0.7-0.1-1-0.3c-0.2,0.1-0.4,0.2-0.7,0.2c-0.5,0-1.3-0.4-1.3-1.3v-0.5c-0.8-1.3-0.8-1.9-0.8-3.6
				c0-8.4,0.8-9.8,0.8-11.8c0,0.1-0.1-0.5-0.1-0.8c0-0.9,0.7-1.7,1.6-1.7c1,0,2.1,0.8,2.1,2.1c0.1,0,0.2,0,0.3,0
				c1.3,0,1.7,1.7,2.9,5.5C272.3,60.3,272.6,61.8,273,62.5z"/>
		</g>
		<path fill="#D7DCDE" d="M184.5,164.4c0,3-2.4,5.4-5.4,5.4l0,0c-3,0-5.4-2.4-5.4-5.4v-149c0-3,2.4-5.4,5.4-5.4l0,0
			c3,0,5.4,2.4,5.4,5.4V164.4z"/>
		<path fill="#CECAC8" d="M173.8,15.4v149c0,0,0,0.1,0,0.1h5.4V10C176.2,10,173.8,12.4,173.8,15.4z"/>
	</g>
	<polygon fill="#4B2D57" points="173.9,166.6 185.7,166.6 185.7,170.8 174.2,171.4 	"/>
</g>
</svg>
