<?xml version="1.0" encoding="utf-8"?>
<!-- Generator: Adobe Illustrator 16.0.0, SVG Export Plug-In . SVG Version: 6.00 Build 0)  -->
<!DOCTYPE svg PUBLIC "-//W3C//DTD SVG 1.1//EN" "http://www.w3.org/Graphics/SVG/1.1/DTD/svg11.dtd">
<svg version="1.1" id="Layer_1" xmlns="http://www.w3.org/2000/svg" xmlns:xlink="http://www.w3.org/1999/xlink" x="0px" y="0px"
	 width="160px" height="160px" viewBox="0 0 160 160" enable-background="new 0 0 160 160" xml:space="preserve">
<g>
	<circle fill="#115890" cx="80" cy="80.4" r="78.8"/>
	<path fill="#56BFD0" d="M158.8,80.4c0,13.7-3.5,26.7-10.1,38.7c-7.3,13.2-35,10.8-31.9,4.2c12-25.2-28.5-34.1-46.5-20.9
		c-17,12.6-34.7,13-52,4.2C2.9,98.8,1.2,96.4,1.2,80.4c0-45,34.4-79.5,79.3-79.5S158.8,35.4,158.8,80.4z"/>
	<path fill="#A066A6" d="M80.5,0.8c-31.7,0-58.1,17.2-70.9,43c0.5,0.9,18.1,30.2,45.7,20.1c28-10.2,34.7-27.8,56.6-14.8
		s30.9,30.3,46.7,24.7c0,0,0,0,0,0C155.5,32.1,123.3,0.8,80.5,0.8z"/>
</g>
</svg>
