<?xml version="1.0" encoding="utf-8"?>
<!-- Generator: Adobe Illustrator 16.0.0, SVG Export Plug-In . SVG Version: 6.00 Build 0)  -->
<!DOCTYPE svg PUBLIC "-//W3C//DTD SVG 1.1//EN" "http://www.w3.org/Graphics/SVG/1.1/DTD/svg11.dtd">
<svg version="1.1" id="Layer_1" xmlns="http://www.w3.org/2000/svg" xmlns:xlink="http://www.w3.org/1999/xlink" x="0px" y="0px"
	 width="720px" height="390px" viewBox="0 0 720 390" enable-background="new 0 0 720 390" xml:space="preserve">
<path fill="#EC7CA2" d="M442.3,123.1c-6.1,5.8-14.1,11.1-21.1,15.4c-22.2,13.5-53.8,25.1-80.4,30.5c-35.6,7.3-125.9,18.6-140.1-6.8
	c-16.7-29.9,66.1-69.3,102.4-79.4c38.9-10.8,78.6-11,110.4-0.7c13.5,4.4,35,9.9,37.9,21.3C453.3,110,448.9,116.8,442.3,123.1z"/>
<linearGradient id="SVGID_1_" gradientUnits="userSpaceOnUse" x1="472.6855" y1="75.9067" x2="472.6855" y2="75.9067">
	<stop  offset="0" style="stop-color:#D5BAD8"/>
	<stop  offset="0.5243" style="stop-color:#AF7FB5"/>
	<stop  offset="1" style="stop-color:#ECE6F1"/>
</linearGradient>
<path fill="url(#SVGID_1_)" d="M472.7,75.9"/>
<path fill="#325B75" d="M545.4,203.5c0,102.4-83,185.4-185.4,185.4c-71.8,0-134-40.8-164.8-100.4c-13.2-25.5-20.6-54.4-20.6-85
	C174.6,101.1,257.6,18,360,18C462.4,18,545.4,101.1,545.4,203.5z"/>
<path fill="#BD1052" d="M518.9,293.1c13.1-25.3,31.4-49.7,23.5-107.1c-8-57.5-297.8,92.1-297.8,92.1S505.9,318.5,518.9,293.1z"/>
<g>
	<ellipse transform="matrix(0.973 -0.231 0.231 0.973 -41.8864 89.2046)" fill="#662E82" cx="360" cy="223.5" rx="369" ry="51"/>
	<path fill="none" stroke="#C29BC6" stroke-miterlimit="10" d="M670.6,146.3c5.2,22-130,72.9-302,113.7
		c-172,40.8-315.7,56.1-320.9,34.2c-5.2-22,130-72.9,302-113.7C521.7,139.6,665.4,124.3,670.6,146.3z"/>
	<path fill="none" stroke="#C29BC6" stroke-miterlimit="10" d="M621.1,152.6c3,12.5-112.5,50.7-257.9,85.2
		c-145.4,34.5-265.7,52.4-268.7,39.8c-3-12.5,112.5-50.7,257.9-85.2C497.9,157.9,618.2,140.1,621.1,152.6z"/>
	<path fill="#352448" d="M97.3,274.5c3,20.8,167.4-17.1,271.4-42.9c104-25.9,238-58.5,247.5-78c4.7-9.6-73.9,3.2-71.6,2.8
		C547.1,155.9,94.5,255.1,97.3,274.5z"/>
</g>
<path fill="#E7497E" d="M175.6,204.7c0,0,2.2,42.2,7,45.8c4.1,3,359.8-82.1,359.8-82.1s-8.3-43.2-15.6-49.9
	c-26.8-24.7-67.4-5.1-182.7,19.8c-47.5,10.3-134.6,52.3-162.4,60.4C178,199.8,175.6,204.7,175.6,204.7z"/>
<path fill="#EE8AB0" d="M172.8,171.7c-10.7,90.4,41.4,40,61.7,15.6c20.3-24.4,62.5-32.7,98.9-13.5c43.4,22.8,117.5,9.7,132.8-26
	c16.8-38.8,69.2-15.5,70.9-12c1.7,3.5-40.7-125.6-176.8-125.6C258.3,10.3,183.6,81.3,172.8,171.7z"/>
<path fill="#F3A43E" d="M301.5,16.1c0,0-80.2,23.5-110.8,87.5c-30.5,64,28.4,37.5,28.4,37.5s36.2-41,62.3-40.6
	c26.1,0.4,53.7,15.8,77.8,11.5c24.1-4.3,30.8-29,70.4-30.7c39.6-1.8,59.3-20,59.3-20s-40.7-36.5-82-47.6
	C365.7,2.7,301.5,16.1,301.5,16.1z"/>
<g>
	<path fill="#E0E0DF" d="M284.1,40.6c-6.7,2.4-28.5,13.6-24.2,22.4c2.5,5.2,11.9,8.9,14.9,8.7c6.6-0.6,19.2-17.9,18.3-23.5
		C292.4,44.3,287.8,39.3,284.1,40.6z"/>
	<path fill="#F9F9FA" d="M277.7,35.6c-7.4,1.8-20,17.1-18.2,24.5c0.8,3.3,7.5,8,10.9,8.1c7.6,0.1,21.2-14.7,20.6-22.2
		C290.6,41.7,281.8,34.6,277.7,35.6z"/>
</g>
<g>
	<path fill="#E0E0DF" d="M321.3,7.7c-7.1,0.4-31.2,5-29.6,14.6c1,5.7,8.9,11.9,11.8,12.5c6.5,1.3,23.5-11.7,24.2-17.4
		C328.2,13.6,325.2,7.5,321.3,7.7z"/>
	<path fill="#F9F9FA" d="M316.5,1.1c-7.6-0.3-24,10.8-24.3,18.4c-0.1,3.4,4.9,9.8,8.2,10.8c7.2,2.3,24.5-8.1,26-15.5
		C327.2,10.6,320.7,1.3,316.5,1.1z"/>
</g>
<g>
	<path fill="#E0E0DF" d="M338.2,39.2c-5.6,0.3-24.7,4-23.4,11.6c0.8,4.5,7.1,9.5,9.4,9.9c5.2,1,18.6-9.3,19.2-13.8
		C343.7,43.9,341.3,39.1,338.2,39.2z"/>
	<path fill="#F9F9FA" d="M334.5,34c-6-0.3-19,8.5-19.3,14.6c-0.1,2.7,3.9,7.8,6.5,8.6c5.7,1.8,19.4-6.4,20.6-12.3
		C342.9,41.5,337.8,34.1,334.5,34z"/>
</g>
<g>
	<path fill="#E0E0DF" d="M360.8,5.6C355.6,9,339,22.8,344.2,29.5c3,4,11.7,5.4,14.1,4.6c5.5-1.8,13.2-19.1,11.4-23.7
		C368.5,7.2,363.7,3.8,360.8,5.6z"/>
	<path fill="#F9F9FA" d="M354.5,2.5c-6,3-14,18.6-11.2,24.6c1.3,2.7,7.7,5.4,10.6,4.8c6.4-1.4,15.4-16.7,13.6-23.1
		C366.6,5.3,357.8,0.9,354.5,2.5z"/>
</g>
<g>
	<path fill="#E0E0DF" d="M382.1,43.7c-5.6,0.3-24.7,4-23.4,11.6c0.8,4.5,7.1,9.5,9.4,9.9c5.2,1,18.6-9.3,19.2-13.8
		C387.6,48.4,385.2,43.5,382.1,43.7z"/>
	<path fill="#F9F9FA" d="M378.4,38.4c-6-0.3-19,8.5-19.3,14.6c-0.1,2.7,3.9,7.8,6.5,8.6c5.7,1.8,19.4-6.4,20.6-12.3
		C386.8,46,381.7,38.6,378.4,38.4z"/>
</g>
<g>
	<path fill="#E0E0DF" d="M406.2,25c-4.2-3.8-20.1-14.9-24.7-8.6c-2.7,3.7-1.8,11.7-0.5,13.6c2.9,4.4,19.6,6.8,23.2,4
		C406.7,32.2,408.5,27.1,406.2,25z"/>
	<path fill="#F9F9FA" d="M407.3,18.7c-4-4.5-19.4-7.6-23.9-3.6c-2,1.8-2.8,8.2-1.6,10.6c2.7,5.3,18.2,9.3,23.2,6.1
		C407.9,30,409.6,21.1,407.3,18.7z"/>
</g>
<circle fill="#EE8AB0" cx="139.3" cy="280.6" r="15.9"/>
</svg>
