<?xml version="1.0" encoding="utf-8"?>
<!-- Generator: Adobe Illustrator 16.0.0, SVG Export Plug-In . SVG Version: 6.00 Build 0)  -->
<!DOCTYPE svg PUBLIC "-//W3C//DTD SVG 1.1//EN" "http://www.w3.org/Graphics/SVG/1.1/DTD/svg11.dtd">
<svg version="1.1" id="Layer_1" xmlns="http://www.w3.org/2000/svg" xmlns:xlink="http://www.w3.org/1999/xlink" x="0px" y="0px"
	 width="450px" height="300px" viewBox="0 0 450 300" enable-background="new 0 0 450 300" xml:space="preserve">
<g>
	
		<ellipse transform="matrix(0.9709 0.2395 -0.2395 0.9709 42.3669 -49.6388)" fill="none" stroke="#E0DCDC" stroke-width="5.6949" stroke-miterlimit="10" cx="225.5" cy="149.5" rx="205.6" ry="28.6"/>
	<circle fill="#A49F9C" stroke="#B1AEAE" stroke-width="0.25" stroke-miterlimit="10" cx="56.1" cy="124.8" r="9.2"/>
	<g>
		<polygon fill="#858079" stroke="#B1AEAE" stroke-width="0.25" stroke-miterlimit="10" points="194.2,266.2 140,235 108.8,180.8 
			108.8,118.3 140,64.1 194.2,32.8 256.7,32.8 310.9,64.1 342.2,118.3 342.2,180.8 310.9,235 256.7,266.2 		"/>
		<polygon fill="#645E58" stroke="#B1AEAE" stroke-width="0.25" stroke-miterlimit="10" points="140,64.1 191.5,115.5 108.8,118.3 
					"/>
		<polygon fill="#433B38" stroke="#B1AEAE" stroke-width="0.25" stroke-miterlimit="10" points="191.5,171.5 108.8,180.8 
			108.8,118.3 		"/>
		<polygon fill="#645E58" stroke="#B1AEAE" stroke-width="0.25" stroke-miterlimit="10" points="191.5,115.5 191.5,171.5 
			108.8,118.3 		"/>
		<polygon fill="#433B38" stroke="#B1AEAE" stroke-width="0.25" stroke-miterlimit="10" points="140,235 206.8,198.2 194.2,266.2 		
			"/>
		<polygon fill="#433B38" stroke="#B1AEAE" stroke-width="0.25" stroke-miterlimit="10" points="191.5,171.5 140,235 108.8,180.8 		
			"/>
		<polygon fill="#433B38" stroke="#B1AEAE" stroke-width="0.25" stroke-miterlimit="10" points="256.7,266.2 250.1,203.2 310.9,235 
					"/>
		<polygon fill="#433B38" stroke="#B1AEAE" stroke-width="0.25" stroke-miterlimit="10" points="206.8,198.2 191.5,171.5 140,235 		
			"/>
		<polygon fill="#433B38" stroke="#B1AEAE" stroke-width="0.25" stroke-miterlimit="10" points="256.7,266.2 206.8,198.2 
			194.2,266.2 		"/>
		<polygon fill="#433B38" stroke="#B1AEAE" stroke-width="0.25" stroke-miterlimit="10" points="250.1,203.2 206.8,198.2 
			256.7,266.2 		"/>
		<polygon fill="#645E58" stroke="#B1AEAE" stroke-width="0.25" stroke-miterlimit="10" points="291.5,162.2 310.9,235 250.1,203.2 
					"/>
		<polygon fill="#645E58" stroke="#B1AEAE" stroke-width="0.25" stroke-miterlimit="10" points="231.8,149.5 206.8,198.2 
			250.1,203.2 		"/>
		<polygon fill="#645E58" stroke="#B1AEAE" stroke-width="0.25" stroke-miterlimit="10" points="291.5,162.2 231.8,149.5 
			250.1,203.2 		"/>
		<polygon fill="#645E58" stroke="#B1AEAE" stroke-width="0.25" stroke-miterlimit="10" points="342.2,180.8 291.5,162.2 310.9,235 
					"/>
		<polygon fill="#858079" stroke="#B1AEAE" stroke-width="0.25" stroke-miterlimit="10" points="342.2,118.3 288.1,118.3 
			291.5,162.2 		"/>
		<polygon fill="#858079" stroke="#B1AEAE" stroke-width="0.25" stroke-miterlimit="10" points="342.2,180.8 342.2,118.3 
			291.5,162.2 		"/>
		<polygon fill="#858079" stroke="#B1AEAE" stroke-width="0.25" stroke-miterlimit="10" points="231.8,149.5 288.1,118.3 
			291.5,162.2 		"/>
		<polygon fill="#645E58" stroke="#B1AEAE" stroke-width="0.25" stroke-miterlimit="10" points="191.5,115.5 231.8,149.5 
			206.8,198.2 191.5,171.5 		"/>
		<polygon fill="#858079" stroke="#B1AEAE" stroke-width="0.25" stroke-miterlimit="10" points="194.2,32.8 222.8,71.5 191.5,115.5 
			140,64.1 		"/>
		<polygon fill="#858079" stroke="#B1AEAE" stroke-width="0.25" stroke-miterlimit="10" points="288.1,118.3 222.8,71.5 
			231.8,149.5 		"/>
		<polygon fill="#858079" stroke="#B1AEAE" stroke-width="0.25" stroke-miterlimit="10" points="191.5,115.5 231.8,149.5 
			222.8,71.5 		"/>
		<polygon fill="#9B9390" stroke="#B1AEAE" stroke-width="0.5" stroke-miterlimit="10" points="256.7,32.8 288.1,118.3 222.8,71.5 
			194.2,32.8 		"/>
		<polygon fill="#9B9390" stroke="#B1AEAE" stroke-width="0.5" stroke-miterlimit="10" points="310.9,64.1 288.1,118.3 256.7,32.8 
					"/>
		<polygon fill="#9B9390" stroke="#B1AEAE" stroke-width="0.5" stroke-miterlimit="10" points="342.2,118.3 288.1,118.3 310.9,64.1 
					"/>
		<line fill="none" stroke="#B1AEAE" stroke-width="0.25" stroke-miterlimit="10" x1="256.7" y1="32.8" x2="222.8" y2="71.5"/>
	</g>
	<path fill="none" stroke="#E0DCDC" stroke-width="5" stroke-miterlimit="10" d="M99.5,142.3c75.9,22.7,152.8,43.7,228.8,57.6
		c2.7,0.5,12.4,1.2,15.1,1.9"/>
</g>
</svg>
