<?xml version="1.0" encoding="utf-8"?>
<!-- Generator: Adobe Illustrator 16.0.0, SVG Export Plug-In . SVG Version: 6.00 Build 0)  -->
<!DOCTYPE svg PUBLIC "-//W3C//DTD SVG 1.1//EN" "http://www.w3.org/Graphics/SVG/1.1/DTD/svg11.dtd">
<svg version="1.1" id="Layer_1" xmlns="http://www.w3.org/2000/svg" xmlns:xlink="http://www.w3.org/1999/xlink" x="0px" y="0px"
	 width="410px" height="240px" viewBox="0 0 410 240" enable-background="new 0 0 410 240" xml:space="preserve">
<g>
	
		<ellipse transform="matrix(0.9709 0.2395 -0.2395 0.9709 34.6012 -45.7224)" fill="none" stroke="#D8D4D5" stroke-width="5.6949" stroke-miterlimit="10" cx="205.5" cy="119.5" rx="205.6" ry="28.6"/>
	<circle fill="#9E9A9B" stroke="#AAA8AB" stroke-width="0.25" stroke-miterlimit="10" cx="36.1" cy="94.8" r="9.2"/>
	<g>
		<polygon fill="#85807E" stroke="#AAA8AB" stroke-width="0.25" stroke-miterlimit="10" points="174.2,236.2 120,205 88.8,150.8 
			88.8,88.3 120,34.1 174.2,2.8 236.7,2.8 290.9,34.1 322.2,88.3 322.2,150.8 290.9,205 236.7,236.2 		"/>
		<polygon fill="#645F5D" stroke="#AAA8AB" stroke-width="0.25" stroke-miterlimit="10" points="120,34.1 171.5,85.5 88.8,88.3 		
			"/>
		<polygon fill="#423C3B" stroke="#AAA8AB" stroke-width="0.25" stroke-miterlimit="10" points="171.5,141.5 88.8,150.8 88.8,88.3 
					"/>
		<polygon fill="#645F5D" stroke="#AAA8AB" stroke-width="0.25" stroke-miterlimit="10" points="171.5,85.5 171.5,141.5 88.8,88.3 
					"/>
		<polygon fill="#423C3B" stroke="#AAA8AB" stroke-width="0.25" stroke-miterlimit="10" points="120,205 186.8,168.2 174.2,236.2 		
			"/>
		<polygon fill="#423C3B" stroke="#AAA8AB" stroke-width="0.25" stroke-miterlimit="10" points="171.5,141.5 120,205 88.8,150.8 		
			"/>
		<polygon fill="#423C3B" stroke="#AAA8AB" stroke-width="0.25" stroke-miterlimit="10" points="236.7,236.2 230.1,173.2 290.9,205 
					"/>
		<polygon fill="#423C3B" stroke="#AAA8AB" stroke-width="0.25" stroke-miterlimit="10" points="186.8,168.2 171.5,141.5 120,205 		
			"/>
		<polygon fill="#423C3B" stroke="#AAA8AB" stroke-width="0.25" stroke-miterlimit="10" points="236.7,236.2 186.8,168.2 
			174.2,236.2 		"/>
		<polygon fill="#423C3B" stroke="#AAA8AB" stroke-width="0.25" stroke-miterlimit="10" points="230.1,173.2 186.8,168.2 
			236.7,236.2 		"/>
		<polygon fill="#645F5D" stroke="#AAA8AB" stroke-width="0.25" stroke-miterlimit="10" points="271.5,132.2 290.9,205 230.1,173.2 
					"/>
		<polygon fill="#645F5D" stroke="#AAA8AB" stroke-width="0.25" stroke-miterlimit="10" points="211.8,119.5 186.8,168.2 
			230.1,173.2 		"/>
		<polygon fill="#645F5D" stroke="#AAA8AB" stroke-width="0.25" stroke-miterlimit="10" points="271.5,132.2 211.8,119.5 
			230.1,173.2 		"/>
		<polygon fill="#645F5D" stroke="#AAA8AB" stroke-width="0.25" stroke-miterlimit="10" points="322.2,150.8 271.5,132.2 290.9,205 
					"/>
		<polygon fill="#85807E" stroke="#AAA8AB" stroke-width="0.25" stroke-miterlimit="10" points="322.2,88.3 268.1,88.3 271.5,132.2 
					"/>
		<polygon fill="#85807E" stroke="#AAA8AB" stroke-width="0.25" stroke-miterlimit="10" points="322.2,150.8 322.2,88.3 
			271.5,132.2 		"/>
		<polygon fill="#85807E" stroke="#AAA8AB" stroke-width="0.25" stroke-miterlimit="10" points="211.8,119.5 268.1,88.3 
			271.5,132.2 		"/>
		<polygon fill="#645F5D" stroke="#AAA8AB" stroke-width="0.25" stroke-miterlimit="10" points="171.5,85.5 211.8,119.5 
			186.8,168.2 171.5,141.5 		"/>
		<polygon fill="#85807E" stroke="#AAA8AB" stroke-width="0.25" stroke-miterlimit="10" points="174.2,2.8 202.8,41.5 171.5,85.5 
			120,34.1 		"/>
		<polygon fill="#85807E" stroke="#AAA8AB" stroke-width="0.25" stroke-miterlimit="10" points="268.1,88.3 202.8,41.5 211.8,119.5 
					"/>
		<polygon fill="#85807E" stroke="#AAA8AB" stroke-width="0.25" stroke-miterlimit="10" points="171.5,85.5 211.8,119.5 202.8,41.5 
					"/>
		<polygon fill="#979091" stroke="#AAA8AB" stroke-width="0.5" stroke-miterlimit="10" points="236.7,2.8 268.1,88.3 202.8,41.5 
			174.2,2.8 		"/>
		<polygon fill="#979091" stroke="#AAA8AB" stroke-width="0.5" stroke-miterlimit="10" points="290.9,34.1 268.1,88.3 236.7,2.8 		
			"/>
		<polygon fill="#979091" stroke="#AAA8AB" stroke-width="0.5" stroke-miterlimit="10" points="322.2,88.3 268.1,88.3 290.9,34.1 		
			"/>
		<line fill="none" stroke="#AAA8AB" stroke-width="0.25" stroke-miterlimit="10" x1="236.7" y1="2.8" x2="202.8" y2="41.5"/>
	</g>
	<path fill="none" stroke="#D8D4D5" stroke-width="5" stroke-miterlimit="10" d="M79.5,112.3c75.9,22.7,152.8,43.7,228.8,57.6
		c2.7,0.5,12.4,1.2,15.1,1.9"/>
</g>
</svg>
