<?xml version="1.0" encoding="utf-8"?>
<!-- Generator: Adobe Illustrator 16.0.0, SVG Export Plug-In . SVG Version: 6.00 Build 0)  -->
<!DOCTYPE svg PUBLIC "-//W3C//DTD SVG 1.1//EN" "http://www.w3.org/Graphics/SVG/1.1/DTD/svg11.dtd">
<svg version="1.1" id="Layer_1" xmlns="http://www.w3.org/2000/svg" xmlns:xlink="http://www.w3.org/1999/xlink" x="0px" y="0px"
	 width="520px" height="550px" viewBox="0 0 520 550" enable-background="new 0 0 520 550" xml:space="preserve">
<linearGradient id="SVGID_1_" gradientUnits="userSpaceOnUse" x1="200.6699" y1="283.2686" x2="97.3517" y2="462.221">
	<stop  offset="0" style="stop-color:#FAFAFA"/>
	<stop  offset="0.0404" style="stop-color:#ECECEC"/>
	<stop  offset="0.2411" style="stop-color:#ACABAC"/>
	<stop  offset="0.4325" style="stop-color:#767576"/>
	<stop  offset="0.6092" style="stop-color:#4C4B4C"/>
	<stop  offset="0.7682" style="stop-color:#2E2D2E"/>
	<stop  offset="0.9038" style="stop-color:#1C1B1C"/>
	<stop  offset="1" style="stop-color:#151415"/>
</linearGradient>
<polygon opacity="0.8" fill="url(#SVGID_1_)" enable-background="new    " points="111.994,470.675 58.069,422.889 186.026,274.814 
	239.95,322.601 "/>
<linearGradient id="SVGID_2_" gradientUnits="userSpaceOnUse" x1="187.6221" y1="312.4277" x2="187.6221" y2="505.6211">
	<stop  offset="0" style="stop-color:#FAFAFA"/>
	<stop  offset="0.0402" style="stop-color:#E3E3E3"/>
	<stop  offset="0.1332" style="stop-color:#B3B3B3"/>
	<stop  offset="0.2315" style="stop-color:#898889"/>
	<stop  offset="0.3335" style="stop-color:#656465"/>
	<stop  offset="0.4402" style="stop-color:#484748"/>
	<stop  offset="0.5532" style="stop-color:#313031"/>
	<stop  offset="0.6753" style="stop-color:#212021"/>
	<stop  offset="0.8131" style="stop-color:#181718"/>
	<stop  offset="1" style="stop-color:#151415"/>
</linearGradient>
<polygon opacity="0.8" fill="url(#SVGID_2_)" enable-background="new    " points="151.014,505.621 97.682,458.485 224.232,312.428 
	277.562,359.563 "/>
<g>
	
		<rect x="329.576" y="318.366" transform="matrix(-0.6802 0.733 -0.733 -0.6802 799.1458 294.9928)" fill="#E5E4E4" width="11.3" height="6.9"/>
	<g>
		<g>
			<g>
				<polygon fill="#C5C4C6" points="419,217.4 428,338.5 324.8,482.3 284.2,362.7 				"/>
				<polygon fill="#E4585A" points="324.8,482.3 336.1,466.5 297.7,348.2 284.2,362.7 				"/>
			</g>
			<polygon fill="#CC5156" points="428,338.5 419,217.4 396.7,241.5 413.4,358.8 413.4,358.8 			"/>
			<polygon fill="#E4585A" points="324.8,482.3 336.1,466.5 297.7,348.2 284.2,362.7 			"/>
		</g>
		<polygon fill="#929E9D" points="428,338.5 436,341.8 329.2,486.4 324.8,482.3 		"/>
		<polygon fill="#B6B1B0" points="436,341.8 423.4,212.7 418.6,217.8 428,338.5 		"/>
	</g>
	<g>
		<g>
			<g>
				<polygon fill="#C5C4C6" points="310.2,116.5 188.8,116.6 53.1,230.3 175.4,261.8 				"/>
				<polygon fill="#E4585A" points="53.1,230.3 68.1,217.8 188.9,247.2 175.4,261.8 				"/>
			</g>
			<polygon fill="#CC5156" points="188.8,116.6 310.2,116.5 287.9,140.6 169.7,132.7 169.7,132.7 			"/>
			<polygon fill="#E4585A" points="53.1,230.3 68.1,217.8 188.9,247.2 175.4,261.8 			"/>
		</g>
		<polygon fill="#929E9D" points="188.8,116.6 184.9,108.8 48.7,226.3 53.1,230.3 		"/>
		<polygon fill="#B6B1B0" points="184.9,108.8 314.6,111.7 309.8,116.9 188.8,116.6 		"/>
	</g>
	<g>
		<polygon fill="#768C99" points="184.3,231.6 142.1,282.1 288.5,390.7 330.7,340.2 		"/>
		
			<rect x="204.485" y="244.267" transform="matrix(-0.6513 0.7588 -0.7588 -0.6513 607.8401 391.2217)" stroke="#000000" stroke-miterlimit="10" width="19.099" height="181.997"/>
		
			<rect x="163.822" y="283.339" transform="matrix(-0.6801 0.7331 -0.7331 -0.6801 501.8517 375.386)" fill="#F4E47F" width="10.401" height="27.7"/>
		<polygon fill="#E4585A" points="204.4,187.3 183.6,232.6 321.2,353.9 357.4,323 		"/>
		
			<rect x="258.865" y="364.286" transform="matrix(-0.68 0.7332 -0.7332 -0.68 720.8865 441.6291)" fill="#F4E47F" width="10.4" height="27.7"/>
		
			<rect x="213.31" y="325.541" transform="matrix(-0.6799 0.7333 -0.7333 -0.6799 615.9507 409.9136)" fill="#F4E47F" width="10.4" height="27.7"/>
		
			<rect x="204.155" y="212.728" transform="matrix(-0.6802 0.733 -0.733 -0.6802 510.9791 209.435)" fill="#E5E4E4" width="11.3" height="6.9"/>
		
			<rect x="219.483" y="226.837" transform="matrix(-0.68 0.7332 -0.7332 -0.68 547.0725 221.8059)" fill="#E5E4E4" width="11.3" height="6.9"/>
		
			<rect x="234.534" y="237.268" transform="matrix(-0.68 0.7332 -0.7332 -0.68 580.0068 228.3051)" fill="#E5E4E4" width="11.3" height="6.9"/>
		
			<rect x="249.791" y="251.479" transform="matrix(-0.68 0.7332 -0.7332 -0.68 616.0581 240.9937)" fill="#E5E4E4" width="11.3" height="6.9"/>
		
			<rect x="265.067" y="265.565" transform="matrix(-0.6802 0.7331 -0.7331 -0.6802 652.0541 253.5412)" fill="#E5E4E4" width="11.301" height="6.901"/>
		
			<rect x="282.094" y="277.853" transform="matrix(-0.68 0.7332 -0.7332 -0.68 689.6647 261.6047)" fill="#E5E4E4" width="11.3" height="6.9"/>
		
			<rect x="299.099" y="290.075" transform="matrix(-0.6801 0.7331 -0.7331 -0.6801 727.1984 269.7469)" fill="#E5E4E4" width="11.3" height="6.901"/>
		
			<rect x="316.181" y="306.04" transform="matrix(-0.6802 0.7331 -0.7331 -0.6802 767.6027 284.0737)" fill="#E5E4E4" width="11.3" height="6.899"/>
		<path fill="#E0DEDE" d="M204.4,187.3c0,0,59.5-56.6,104.1-94.8c55.1-47.1,91.4-76.7,143.8-28c57.2,53.1,18.3,107.2-11.3,150.9
			C411.4,259.1,357.5,323,357.5,323L204.4,187.3z"/>
		
			<rect x="365.958" y="65.016" transform="matrix(-0.6799 0.7333 -0.7333 -0.6799 674.469 -157.4865)" fill="#768C99" width="11.3" height="6.9"/>
		
			<rect x="379.365" y="77.386" transform="matrix(-0.6802 0.7331 -0.7331 -0.6802 706.146 -146.4203)" fill="#768C99" width="11.3" height="6.901"/>
		
			<rect x="394.633" y="91.613" transform="matrix(-0.6801 0.7331 -0.7331 -0.6801 742.2067 -133.741)" fill="#768C99" width="11.299" height="6.9"/>
		
			<rect x="409.882" y="105.679" transform="matrix(-0.68 0.7332 -0.7332 -0.68 778.111 -121.3314)" fill="#768C99" width="11.299" height="6.9"/>
		
			<rect x="426.976" y="121.598" transform="matrix(-0.68 0.7332 -0.7332 -0.68 818.5095 -107.1094)" fill="#768C99" width="11.3" height="6.9"/>
		
			<rect x="442.23" y="135.678" transform="matrix(-0.6801 0.7331 -0.7331 -0.6801 854.4788 -94.6017)" fill="#768C99" width="11.299" height="6.9"/>
		<circle fill="#768C99" cx="358" cy="169.9" r="57.3"/>
		<path fill="#FFFFFF" d="M388.5,198.2c-15.6,16.9-42,17.9-58.9,2.2c-16.899-15.6-17.899-42-2.199-58.9
			c15.6-16.9,42-17.9,58.899-2.2C403.2,155,404.2,181.4,388.5,198.2z"/>
		<path opacity="0.3" fill="#D0CBCA" enable-background="new    " d="M356,211.5L356,211.5c-23.6-11.5-7.7-82.1-7.7-82.1
			c-7.7,1.8-15,5.9-20.8,12.2c-15.6,16.9-14.7,43.2,2.2,58.9C337.2,207.4,346.5,211.1,356,211.5z"/>
		<path fill="#E4585A" d="M373.9,44.5c0,0,100.3-62.5,128-36.8c27.699,25.7-21.4,135.7-21.4,135.7L373.9,44.5z"/>
		<path fill="#CC5156" d="M447.1,8.9L447.1,8.9C411.6,21.2,373.9,44.6,373.9,44.6l89.5,83C440,106.3,447.1,8.9,447.1,8.9z"/>
	</g>
</g>
</svg>
