<?xml version="1.0" encoding="utf-8"?>
<!-- Generator: Adobe Illustrator 16.0.0, SVG Export Plug-In . SVG Version: 6.00 Build 0)  -->
<!DOCTYPE svg PUBLIC "-//W3C//DTD SVG 1.1//EN" "http://www.w3.org/Graphics/SVG/1.1/DTD/svg11.dtd">
<svg version="1.1" id="Layer_1" xmlns="http://www.w3.org/2000/svg" xmlns:xlink="http://www.w3.org/1999/xlink" x="0px" y="0px"
	 width="880px" height="234px" viewBox="0 0 880 234" enable-background="new 0 0 880 234" xml:space="preserve">
<g>
	
		<rect x="27.815" y="21.092" transform="matrix(0.9986 0.0523 -0.0523 0.9986 6.1574 -7.9485)" fill="#9596CA" width="254.067" height="185.009"/>
	<polygon fill="#8EB4C6" points="856.138,211.689 602.419,199.324 612.83,14.57 866.55,26.936 	"/>
	<rect x="593.45" y="37.082" fill="#649BAF" width="254.068" height="182.348"/>
	<polygon fill="#C791C1" points="566.138,211.689 312.419,199.324 322.83,14.57 576.55,26.936 	"/>
	<rect x="303.45" y="37.082" fill="#B76B93" width="254.068" height="182.348"/>
	
		<rect x="36.713" y="21.093" transform="matrix(0.9986 0.0523 -0.0523 0.9986 6.1573 -7.9483)" fill="#9596CA" width="236.271" height="185.007"/>
	<rect x="13.45" y="37.082" fill="#7071B4" width="254.068" height="182.348"/>
	<g>
		<path fill="#FFFFFF" d="M140.485,102.098c-11.719,0-21.252-9.531-21.252-21.25c0-11.717,9.533-21.25,21.252-21.25
			c11.717,0,21.25,9.533,21.25,21.25C161.735,92.566,152.202,102.098,140.485,102.098z M140.485,61.598
			c-10.615,0-19.252,8.635-19.252,19.25s8.637,19.25,19.252,19.25c10.613,0,19.25-8.635,19.25-19.25S151.099,61.598,140.485,61.598z
			"/>
		<g>
			<path fill="#F1F2F2" d="M137.854,88.809c-0.285-0.266-0.418-0.572-0.418-0.947c0-0.727,0.639-1.342,1.363-1.342h0.133h0.066
				v-0.945c0-0.396-0.021-0.793-0.045-1.211l-0.088-2.111c-0.066-1.035-0.088-1.98-0.088-2.84c-0.021-0.836-0.043-1.65-0.088-2.441
				c-0.021-0.418-0.066-0.771-0.088-1.057l-0.066,0.021c-0.131,0.045-0.264,0.066-0.418,0.066c-0.549,0-1.078-0.373-1.275-0.945
				c-0.045-0.133-0.066-0.266-0.066-0.396c0-0.572,0.375-1.1,0.924-1.299l0.418-0.131c0.287-0.111,0.529-0.178,0.682-0.199
				c0.045-0.021,0.09-0.021,0.133-0.043c0.242-0.463,0.705-0.814,1.232-0.814h0.506c0.197,0,0.439,0.043,0.727,0.109l0.264,0.066
				c0.527,0.154,0.924,0.594,1.012,1.123c0.154,0.197,0.264,0.439,0.287,0.682l0.021,0.176c0.021,0.131,0.021,0.33,0.043,0.572
				c0.023,0.154,0.023,0.285,0.045,0.396c0.045,0.242,0.066,0.506,0.066,0.77c0,0.154,0,0.396,0.021,0.682
				c0.021,0.33,0.021,0.748,0.021,1.211c0,0.418,0,0.814,0.023,1.145c0.021,0.395,0.021,0.748,0.021,1.033s0.021,0.727,0.043,1.32
				c0.066,1.254,0.111,2.684,0.133,3.652c0.021,0.506,0.045,0.881,0.045,1.1c0,0.111,0.021,0.266,0.064,0.463l0.045,0.373
				c0.461,0.287,0.639,0.705,0.639,1.102c0,0.439-0.221,0.857-0.529,1.078c-0.285,0.242-0.615,0.33-0.99,0.285l-0.307-0.021
				c-0.154-0.021-0.266-0.021-0.33-0.045c-0.221,0-0.508-0.021-0.838-0.088l-0.924-0.064c-0.484-0.023-0.836-0.045-1.033-0.066
				H138.8C138.427,89.227,138.118,89.094,137.854,88.809z"/>
		</g>
	</g>
	<g>
		<path fill="#FFFFFF" d="M720.485,102.098c-11.719,0-21.252-9.531-21.252-21.25c0-11.717,9.533-21.25,21.252-21.25
			c11.717,0,21.25,9.533,21.25,21.25C741.735,92.566,732.202,102.098,720.485,102.098z M720.485,61.598
			c-10.615,0-19.252,8.635-19.252,19.25s8.637,19.25,19.252,19.25c10.613,0,19.25-8.635,19.25-19.25S731.099,61.598,720.485,61.598z
			"/>
		<g>
			<path fill="#F1F2F2" d="M725.171,84.182c0,0.748-0.109,1.451-0.352,2.09c-0.33,0.814-0.682,1.408-1.145,1.869
				c-0.154,0.154-0.309,0.287-0.439,0.396c-0.176,0.154-0.463,0.352-0.859,0.594c-0.307,0.199-0.549,0.354-0.703,0.463l-0.285,0.197
				c-0.242,0.176-0.484,0.264-0.771,0.264c-0.109,0-0.242-0.021-0.352-0.043c-0.242,0.066-0.527,0.133-0.814,0.176
				c-0.221,0.045-0.418,0.045-0.594,0.045c-0.77,0-1.342-0.242-1.693-0.529c-0.441-0.33-0.838-0.836-1.123-1.893l-0.197-0.615
				c-0.045-0.109-0.045-0.242-0.045-0.375c0-0.703,0.551-1.385,1.342-1.385c0.594,0,1.145,0.418,1.299,0.99l0.197,0.615
				c0.066,0.197,0.111,0.352,0.176,0.484h0.242c0.441-0.088,0.596-0.109,1.014-0.527c0.285-0.266,0.527-0.551,0.748-0.859
				c0.197-0.33,0.242-0.594,0.242-1.057c0-0.176-0.023-0.373-0.09-0.57c-0.352-1.299-0.879-2.135-1.803-2.928
				c-0.287-0.264-0.529-0.527-0.727-0.814c0-0.021-0.021-0.043-0.045-0.109c-0.043-0.043-0.064-0.088-0.088-0.109l-0.088-0.133
				c-0.043-0.066-0.066-0.109-0.088-0.176l-0.066-0.176c-0.021-0.066-0.043-0.133-0.043-0.197v-0.242
				c-0.021-0.154,0.021-0.354,0.088-0.551c0.088-0.242,0.154-0.439,0.309-0.594c0.924-0.881,1.539-2.398,1.539-3.367
				c0-0.551-0.197-0.945-0.66-0.945c-0.066,0-0.109,0-0.176,0.066l-0.109,0.152c-0.111,0.176-0.133,0.396-0.133,0.572
				c0,0.111,0.021,0.221,0.021,0.309v0.264c0.023,0.375-0.109,0.682-0.352,0.969c-0.264,0.285-0.615,0.418-0.99,0.418
				c-0.33,0-0.66-0.109-0.924-0.375c-0.285-0.242-0.418-0.549-0.439-0.924v-0.242c0-0.109-0.021-0.219-0.021-0.352
				c0-0.109,0.021-0.264,0.021-0.396c0.021-0.902,0.572-2.09,1.451-2.684c0.418-0.264,0.836-0.418,1.254-0.463
				c0.242-0.021,0.484-0.021,0.727-0.021c0.793,0,1.387,0.285,1.738,0.748c0.682,0.066,1.035,0.617,1.277,1.254
				c0.352,0.924,0.461,1.871,0.461,2.686c0,1.408-0.33,2.441-0.352,2.332c0.021,0.109,0.021,0.197,0.021,0.264
				c0.023,0.021,0.045,0.066,0.066,0.109c0.242,0.375,0.396,0.594,0.682,0.969c0.33,0.439,0.551,0.639,0.748,1.32
				C725.149,82.729,725.171,82.443,725.171,84.182z"/>
		</g>
	</g>
	<g>
		<path fill="#FFFFFF" d="M430.485,102.098c-11.719,0-21.252-9.531-21.252-21.25c0-11.717,9.533-21.25,21.252-21.25
			c11.717,0,21.25,9.533,21.25,21.25C451.735,92.566,442.202,102.098,430.485,102.098z M430.485,61.598
			c-10.615,0-19.252,8.635-19.252,19.25s8.637,19.25,19.252,19.25c10.613,0,19.25-8.635,19.25-19.25S441.099,61.598,430.485,61.598z
			"/>
		<g>
			<path fill="#F1F2F2" d="M429.284,76.016c0.066,0.131,0.154,0.285,0.154,0.902c-0.066,0.439-0.33,0.725-0.66,0.945
				c-0.197,0.109-0.418,0.154-0.639,0.154c-0.482,0-0.945-0.242-1.209-0.682l-0.133-0.221c-0.197-0.373-0.307-0.836-0.307-1.43
				c0-1.783,1.385-3.586,3.344-3.586c1.299,0,2.883,0.658,3.41,1.914c0.242,0.594,0.352,1.254,0.352,1.957v1.299
				c0,0.703-0.021,1.408-0.131,2.354c-0.066,0.418-0.111,0.814-0.154,1.189c-0.088,0.77-0.309,1.914-0.506,2.771
				c-0.199,0.859-0.814,2.795-1.012,3.256h0.352c0.33,0,0.615,0,0.857,0.023l0.287,0.021c0.682,0.088,1.232,0.682,1.232,1.363
				c0,0.771-0.66,1.408-1.475,1.344l-0.287-0.023c-0.154-0.021-0.352-0.021-0.615-0.021h-2.068c-0.439,0-1.65,0.021-2.508-0.352
				c-0.572-0.287-1.123-0.814-1.123-1.584c0-0.133,0.021-0.287,0.066-0.441c0.043-0.152,0.088-0.307,0.109-0.418
				c0.045-0.152,0.133-0.395,0.242-0.703l0.309-0.881c0.109-0.33,0.197-0.637,0.309-0.902c0.725-2.156,3.014-4.84,3.014-7.832
				c0-0.242,0-0.506-0.045-0.77c-0.064-0.529-0.373-0.705-0.66-0.705c-0.152,0-0.285,0.066-0.373,0.154
				c-0.088,0.109-0.221,0.33-0.221,0.572v0.176L429.284,76.016z"/>
		</g>
	</g>
	<g>
		<path fill="#F1F2F2" d="M57.71,132.885h-3.611v10.609h-1.354v-10.609h-3.627v-1.104h8.592V132.885z"/>
		<path fill="#F1F2F2" d="M64.798,143.494h-1.295v-7.529h-2.549v-1.121h3.844V143.494z M64.167,131.574
			c0.244,0,0.451,0.086,0.623,0.262c0.172,0.174,0.258,0.383,0.258,0.625c0,0.256-0.086,0.469-0.254,0.641
			c-0.168,0.17-0.377,0.256-0.627,0.256c-0.227,0-0.428-0.09-0.602-0.27s-0.262-0.389-0.262-0.627c0-0.236,0.088-0.445,0.262-0.621
			C63.739,131.662,63.94,131.574,64.167,131.574z"/>
		<path fill="#F1F2F2" d="M77.839,143.494h-1.295v-5.678c0-1.373-0.254-2.059-0.764-2.059c-0.26,0-0.547,0.236-0.859,0.709
			s-0.469,0.734-0.469,0.785v6.242h-1.287v-5.678c0-1.373-0.258-2.059-0.771-2.059c-0.254,0-0.539,0.236-0.852,0.709
			s-0.469,0.734-0.469,0.785v6.242h-1.295v-8.65h1.246v1.303c0.242-0.459,0.531-0.824,0.867-1.1c0.334-0.273,0.668-0.41,1-0.41
			c0.348,0,0.66,0.137,0.938,0.41c0.277,0.275,0.469,0.641,0.572,1.1c0.244-0.459,0.535-0.824,0.873-1.1
			c0.336-0.273,0.668-0.41,0.996-0.41c1.045,0,1.568,0.936,1.568,2.805V143.494z"/>
		<path fill="#F1F2F2" d="M87.616,139.211h-5.934c0,0.979,0.283,1.787,0.85,2.424c0.568,0.635,1.264,0.953,2.088,0.953
			c0.785,0,1.598-0.141,2.432-0.422l0.225,1.037c-0.764,0.344-1.654,0.514-2.672,0.514c-1.285,0-2.32-0.412-3.105-1.236
			s-1.178-1.938-1.178-3.336c0-1.373,0.352-2.467,1.059-3.283c0.705-0.816,1.617-1.225,2.734-1.225c0.996,0,1.828,0.379,2.498,1.137
			s1.004,1.768,1.004,3.029V139.211z M86.206,138.156c0-0.676-0.211-1.244-0.631-1.705c-0.42-0.463-0.891-0.693-1.412-0.693
			c-0.668,0-1.223,0.221-1.664,0.664c-0.439,0.441-0.684,1.02-0.734,1.734H86.206z"/>
		<path fill="#F1F2F2" d="M102.392,135.965c0.289-0.398,0.678-0.719,1.168-0.963c0.488-0.244,1.004-0.365,1.547-0.365
			c0.996,0,1.777,0.41,2.346,1.232c0.566,0.822,0.85,1.891,0.85,3.209c0,1.328-0.297,2.434-0.891,3.316
			c-0.596,0.881-1.396,1.322-2.404,1.322c-0.537,0-1.039-0.133-1.506-0.402c-0.469-0.268-0.838-0.623-1.109-1.066v4.666h-1.295
			v-12.07h1.295V135.965z M102.392,137.252v3.594c0.244,0.486,0.574,0.893,0.988,1.221c0.416,0.326,0.844,0.488,1.287,0.488
			c0.697,0,1.252-0.326,1.664-0.979s0.619-1.465,0.619-2.432c0-0.996-0.197-1.811-0.59-2.441s-0.941-0.945-1.645-0.945
			C103.804,135.758,103.028,136.256,102.392,137.252z"/>
		<path fill="#F1F2F2" d="M118.097,135.076l-0.521,1.246c-0.57-0.25-1.062-0.375-1.479-0.375c-0.381,0-0.756,0.109-1.121,0.328
			s-0.701,0.531-1.008,0.939c-0.307,0.406-0.461,0.635-0.461,0.684v5.596h-1.287v-8.65h1.287v1.752
			c0.691-1.307,1.588-1.959,2.689-1.959C116.849,134.637,117.483,134.783,118.097,135.076z"/>
		<path fill="#F1F2F2" d="M128.423,139.211h-5.934c0,0.979,0.283,1.787,0.85,2.424c0.568,0.635,1.264,0.953,2.088,0.953
			c0.785,0,1.598-0.141,2.432-0.422l0.225,1.037c-0.764,0.344-1.654,0.514-2.672,0.514c-1.285,0-2.32-0.412-3.105-1.236
			s-1.178-1.938-1.178-3.336c0-1.373,0.352-2.467,1.059-3.283c0.705-0.816,1.617-1.225,2.734-1.225c0.996,0,1.828,0.379,2.498,1.137
			s1.004,1.768,1.004,3.029V139.211z M127.013,138.156c0-0.676-0.211-1.244-0.631-1.705c-0.42-0.463-0.891-0.693-1.412-0.693
			c-0.668,0-1.223,0.221-1.664,0.664c-0.439,0.441-0.684,1.02-0.734,1.734H127.013z"/>
		<path fill="#F1F2F2" d="M137.464,136.08c-0.727-0.236-1.408-0.355-2.051-0.355c-0.703,0-1.26,0.117-1.668,0.352
			c-0.41,0.236-0.615,0.549-0.615,0.943c0,0.248,0.094,0.465,0.283,0.65c0.188,0.186,0.564,0.359,1.129,0.52l1.236,0.357
			c0.57,0.16,1.035,0.352,1.395,0.576s0.629,0.496,0.809,0.814c0.18,0.316,0.27,0.688,0.27,1.107c0,0.824-0.346,1.477-1.037,1.955
			s-1.572,0.717-2.639,0.717c-1.062,0-1.939-0.16-2.633-0.48l0.25-1.121c0.725,0.344,1.502,0.516,2.332,0.516
			c0.719,0,1.305-0.135,1.756-0.402c0.451-0.27,0.676-0.625,0.676-1.068c0-0.299-0.111-0.564-0.336-0.801
			c-0.225-0.234-0.75-0.48-1.58-0.734c-0.67-0.205-1.162-0.357-1.479-0.461c-0.314-0.102-0.609-0.252-0.879-0.451
			c-0.271-0.199-0.479-0.438-0.619-0.715s-0.211-0.586-0.211-0.93c0-0.746,0.326-1.34,0.979-1.775
			c0.652-0.438,1.52-0.656,2.598-0.656c0.697,0,1.473,0.119,2.324,0.357L137.464,136.08z"/>
		<path fill="#F1F2F2" d="M147.665,136.08c-0.725-0.236-1.408-0.355-2.051-0.355c-0.703,0-1.258,0.117-1.668,0.352
			c-0.41,0.236-0.613,0.549-0.613,0.943c0,0.248,0.094,0.465,0.281,0.65s0.564,0.359,1.129,0.52l1.236,0.357
			c0.57,0.16,1.035,0.352,1.395,0.576s0.631,0.496,0.811,0.814c0.18,0.316,0.27,0.688,0.27,1.107c0,0.824-0.346,1.477-1.037,1.955
			c-0.693,0.479-1.572,0.717-2.641,0.717c-1.062,0-1.939-0.16-2.631-0.48l0.248-1.121c0.725,0.344,1.504,0.516,2.334,0.516
			c0.719,0,1.303-0.135,1.754-0.402c0.451-0.27,0.678-0.625,0.678-1.068c0-0.299-0.113-0.564-0.336-0.801
			c-0.225-0.234-0.752-0.48-1.582-0.734c-0.67-0.205-1.162-0.357-1.477-0.461c-0.316-0.102-0.609-0.252-0.881-0.451
			s-0.477-0.438-0.619-0.715c-0.141-0.277-0.211-0.586-0.211-0.93c0-0.746,0.326-1.34,0.98-1.775
			c0.652-0.438,1.518-0.656,2.598-0.656c0.697,0,1.471,0.119,2.324,0.357L147.665,136.08z"/>
		<path fill="#F1F2F2" d="M158.755,143.494h-1.295v-1.279c-0.93,0.99-1.91,1.486-2.939,1.486c-1.621,0-2.432-0.982-2.432-2.947
			v-5.91h1.295v5.537c0,0.736,0.117,1.285,0.35,1.648c0.232,0.361,0.625,0.543,1.178,0.543c0.791,0,1.641-0.492,2.549-1.479v-6.25
			h1.295V143.494z"/>
		<path fill="#F1F2F2" d="M169.106,135.076l-0.523,1.246c-0.57-0.25-1.062-0.375-1.479-0.375c-0.381,0-0.754,0.109-1.119,0.328
			s-0.701,0.531-1.01,0.939c-0.307,0.406-0.461,0.635-0.461,0.684v5.596h-1.285v-8.65h1.285v1.752
			c0.693-1.307,1.59-1.959,2.689-1.959C167.858,134.637,168.491,134.783,169.106,135.076z"/>
		<path fill="#F1F2F2" d="M179.433,139.211h-5.936c0,0.979,0.283,1.787,0.852,2.424c0.566,0.635,1.264,0.953,2.088,0.953
			c0.785,0,1.596-0.141,2.432-0.422l0.225,1.037c-0.764,0.344-1.654,0.514-2.674,0.514c-1.283,0-2.318-0.412-3.104-1.236
			c-0.787-0.824-1.18-1.938-1.18-3.336c0-1.373,0.354-2.467,1.059-3.283s1.617-1.225,2.736-1.225c0.996,0,1.828,0.379,2.498,1.137
			s1.004,1.768,1.004,3.029V139.211z M178.022,138.156c0-0.676-0.211-1.244-0.631-1.705c-0.422-0.463-0.893-0.693-1.412-0.693
			c-0.67,0-1.225,0.221-1.664,0.664c-0.439,0.441-0.686,1.02-0.734,1.734H178.022z"/>
		<path fill="#F1F2F2" d="M199.794,143.494h-1.287c-0.105-0.35-0.158-0.814-0.158-1.395c-0.736,1.078-1.736,1.617-3.004,1.617
			c-0.643,0-1.209-0.227-1.697-0.684c-0.49-0.457-0.734-1.045-0.734-1.764c0-0.428,0.084-0.803,0.256-1.129
			c0.172-0.328,0.424-0.602,0.756-0.826s0.736-0.402,1.213-0.531c0.475-0.131,1.039-0.221,1.693-0.27l1.451-0.117v-0.414
			c0-1.484-0.691-2.225-2.074-2.225c-0.326,0-0.74,0.07-1.242,0.211c-0.5,0.141-0.93,0.309-1.289,0.502l-0.342-0.93
			c1.18-0.604,2.275-0.904,3.287-0.904c1.971,0,2.955,1.043,2.955,3.129v3.719C199.577,142.236,199.649,142.906,199.794,143.494z
			 M198.282,140.928v-1.568c-1.168,0.105-1.969,0.203-2.402,0.295c-0.436,0.092-0.811,0.262-1.129,0.51
			c-0.318,0.25-0.477,0.588-0.477,1.014c0,0.387,0.135,0.699,0.406,0.938s0.617,0.357,1.037,0.357c0.459,0,0.916-0.137,1.369-0.41
			C197.542,141.787,197.94,141.41,198.282,140.928z"/>
		<path fill="#F1F2F2" d="M209.78,143.494h-1.295v-5.545c0-0.77-0.123-1.328-0.369-1.674s-0.633-0.518-1.158-0.518
			c-0.791,0-1.641,0.492-2.549,1.477v6.26h-1.295v-8.65h1.295v1.27c0.93-0.984,1.908-1.477,2.938-1.477
			c1.623,0,2.434,0.979,2.434,2.938V143.494z"/>
		<path fill="#F1F2F2" d="M219.948,143.494h-1.295v-1.246c-0.266,0.426-0.646,0.777-1.141,1.055
			c-0.496,0.277-1.018,0.414-1.564,0.414c-0.99,0-1.773-0.441-2.35-1.322c-0.576-0.883-0.863-2.002-0.863-3.359
			c0-1.266,0.301-2.316,0.9-3.148c0.602-0.834,1.396-1.25,2.387-1.25c1.09,0,1.967,0.443,2.631,1.328v-4.184h1.295V143.494z
			 M218.653,140.846v-3.594c-0.619-0.996-1.367-1.494-2.24-1.494c-0.715,0-1.279,0.316-1.693,0.949
			c-0.416,0.635-0.623,1.436-0.623,2.404c0,0.996,0.195,1.818,0.586,2.469c0.389,0.65,0.926,0.975,1.605,0.975
			c0.326,0,0.656-0.088,0.988-0.266c0.332-0.176,0.645-0.441,0.938-0.797C218.507,141.139,218.653,140.924,218.653,140.846z"/>
		<path fill="#F1F2F2" d="M46.521,168.604c-0.754,0.344-1.58,0.516-2.482,0.516c-1.361,0-2.447-0.414-3.258-1.242
			c-0.811-0.826-1.217-1.928-1.217-3.299c0-1.373,0.408-2.473,1.225-3.301c0.816-0.826,1.889-1.24,3.217-1.24
			c0.869,0,1.695,0.152,2.482,0.457l-0.342,1.07c-0.785-0.271-1.494-0.406-2.125-0.406c-0.951,0-1.705,0.307-2.262,0.922
			c-0.555,0.613-0.834,1.445-0.834,2.498c0,0.963,0.287,1.771,0.863,2.428s1.326,0.984,2.25,0.984c0.73,0,1.482-0.143,2.258-0.424
			L46.521,168.604z"/>
		<path fill="#F1F2F2" d="M53.401,160.037c1.189,0,2.137,0.416,2.838,1.246c0.703,0.83,1.055,1.922,1.055,3.277
			c0,1.367-0.352,2.469-1.055,3.305c-0.701,0.836-1.648,1.254-2.838,1.254c-1.195,0-2.143-0.418-2.844-1.25
			c-0.699-0.834-1.049-1.936-1.049-3.309c0-1.361,0.352-2.455,1.053-3.283C51.265,160.451,52.212,160.037,53.401,160.037z
			 M53.401,167.99c0.785,0,1.406-0.332,1.859-0.996s0.68-1.471,0.68-2.416c0-0.996-0.223-1.816-0.672-2.457
			c-0.447-0.643-1.07-0.963-1.867-0.963c-0.803,0-1.426,0.316-1.867,0.949c-0.443,0.635-0.664,1.457-0.664,2.471
			c0,0.963,0.223,1.771,0.672,2.428C51.989,167.662,52.61,167.99,53.401,167.99z"/>
		<path fill="#F1F2F2" d="M67.638,168.895h-1.295v-5.678c0-1.373-0.256-2.059-0.764-2.059c-0.262,0-0.547,0.236-0.859,0.709
			s-0.469,0.734-0.469,0.785v6.242h-1.287v-5.678c0-1.373-0.258-2.059-0.771-2.059c-0.256,0-0.539,0.236-0.852,0.709
			s-0.469,0.734-0.469,0.785v6.242h-1.295v-8.65h1.244v1.305c0.244-0.461,0.533-0.826,0.869-1.102c0.334-0.273,0.668-0.41,1-0.41
			c0.348,0,0.66,0.137,0.938,0.41c0.277,0.275,0.467,0.641,0.572,1.102c0.244-0.461,0.535-0.826,0.871-1.102
			c0.338-0.273,0.67-0.41,0.996-0.41c1.047,0,1.57,0.936,1.57,2.807V168.895z"/>
		<path fill="#F1F2F2" d="M71.788,161.365c0.287-0.398,0.676-0.719,1.166-0.963c0.488-0.244,1.006-0.365,1.547-0.365
			c0.996,0,1.779,0.41,2.346,1.232s0.852,1.891,0.852,3.209c0,1.328-0.299,2.434-0.893,3.316c-0.596,0.883-1.396,1.324-2.404,1.324
			c-0.535,0-1.039-0.135-1.506-0.404c-0.467-0.268-0.838-0.623-1.107-1.066v4.666h-1.295v-12.07h1.295V161.365z M71.788,162.652
			v3.594c0.242,0.486,0.572,0.895,0.986,1.221c0.416,0.326,0.844,0.49,1.287,0.49c0.697,0,1.252-0.328,1.664-0.98
			s0.619-1.463,0.619-2.432c0-0.996-0.197-1.811-0.59-2.441s-0.941-0.945-1.643-0.945C73.198,161.158,72.423,161.656,71.788,162.652
			z"/>
		<path fill="#F1F2F2" d="M86.729,168.895h-3.537v-10.592h-2.258v-1.121h3.553v10.592h2.242V168.895z"/>
		<path fill="#F1F2F2" d="M95.403,168.895h-1.295v-7.529H91.56v-1.121h3.844V168.895z M94.772,156.975
			c0.244,0,0.451,0.086,0.623,0.262c0.17,0.174,0.256,0.383,0.256,0.627c0,0.254-0.084,0.467-0.252,0.639
			c-0.17,0.172-0.379,0.258-0.627,0.258c-0.227,0-0.428-0.092-0.602-0.271c-0.176-0.18-0.262-0.389-0.262-0.625
			c0-0.238,0.086-0.447,0.262-0.623C94.345,157.062,94.546,156.975,94.772,156.975z"/>
		<path fill="#F1F2F2" d="M107.729,168.604c-0.752,0.344-1.58,0.516-2.482,0.516c-1.361,0-2.447-0.414-3.258-1.242
			c-0.811-0.826-1.215-1.928-1.215-3.299c0-1.373,0.408-2.473,1.225-3.301c0.814-0.826,1.887-1.24,3.215-1.24
			c0.869,0,1.697,0.152,2.482,0.457l-0.34,1.07c-0.785-0.271-1.494-0.406-2.125-0.406c-0.951,0-1.705,0.307-2.262,0.922
			c-0.557,0.613-0.834,1.445-0.834,2.498c0,0.963,0.287,1.771,0.863,2.428c0.574,0.656,1.324,0.984,2.248,0.984
			c0.73,0,1.484-0.143,2.258-0.424L107.729,168.604z"/>
		<path fill="#F1F2F2" d="M118.181,168.895h-1.287c-0.105-0.35-0.158-0.814-0.158-1.395c-0.734,1.078-1.736,1.619-3.004,1.619
			c-0.643,0-1.209-0.229-1.697-0.686c-0.49-0.457-0.734-1.045-0.734-1.764c0-0.426,0.086-0.803,0.256-1.129
			c0.172-0.326,0.424-0.602,0.756-0.826s0.736-0.402,1.213-0.531c0.475-0.131,1.039-0.221,1.693-0.27l1.451-0.117v-0.414
			c0-1.484-0.691-2.225-2.074-2.225c-0.326,0-0.74,0.07-1.242,0.211c-0.5,0.141-0.93,0.309-1.289,0.502l-0.342-0.93
			c1.18-0.604,2.275-0.904,3.287-0.904c1.971,0,2.955,1.043,2.955,3.129v3.719C117.964,167.639,118.036,168.307,118.181,168.895z
			 M116.669,166.33v-1.57c-1.166,0.105-1.969,0.203-2.402,0.295s-0.811,0.262-1.129,0.512c-0.318,0.248-0.477,0.586-0.477,1.012
			c0,0.387,0.135,0.699,0.406,0.938s0.617,0.357,1.037,0.357c0.459,0,0.916-0.137,1.369-0.41
			C115.929,167.188,116.327,166.811,116.669,166.33z"/>
		<path fill="#F1F2F2" d="M128.249,168.504c-0.869,0.398-1.723,0.598-2.564,0.598c-1.545,0-2.316-0.816-2.316-2.449v-5.287h-1.66
			v-1.121h1.66v-2.365h1.262v2.365h2.939v1.121h-2.939v4.947c0,0.525,0.117,0.934,0.35,1.225s0.547,0.436,0.945,0.436
			c0.709,0,1.408-0.158,2.1-0.473L128.249,168.504z"/>
		<path fill="#F1F2F2" d="M138.626,164.611h-5.936c0,0.979,0.283,1.787,0.85,2.424c0.568,0.637,1.264,0.955,2.088,0.955
			c0.787,0,1.598-0.143,2.434-0.424l0.223,1.037c-0.764,0.344-1.654,0.516-2.672,0.516c-1.283,0-2.318-0.414-3.105-1.238
			c-0.785-0.824-1.178-1.936-1.178-3.336c0-1.373,0.352-2.467,1.059-3.283c0.705-0.816,1.617-1.225,2.734-1.225
			c0.996,0,1.83,0.379,2.498,1.137c0.67,0.758,1.006,1.77,1.006,3.031V164.611z M137.214,163.557c0-0.676-0.211-1.244-0.631-1.705
			c-0.42-0.463-0.891-0.693-1.41-0.693c-0.67,0-1.225,0.221-1.666,0.664c-0.439,0.441-0.684,1.021-0.734,1.734H137.214z"/>
		<path fill="#F1F2F2" d="M148.536,168.895h-1.295v-1.246c-0.266,0.426-0.646,0.777-1.141,1.055
			c-0.496,0.277-1.018,0.416-1.564,0.416c-0.99,0-1.773-0.441-2.35-1.324s-0.863-2.002-0.863-3.357c0-1.268,0.301-2.318,0.9-3.15
			c0.602-0.834,1.396-1.25,2.387-1.25c1.09,0,1.967,0.443,2.631,1.328v-4.184h1.295V168.895z M147.241,166.246v-3.594
			c-0.619-0.996-1.367-1.494-2.24-1.494c-0.715,0-1.279,0.316-1.693,0.949c-0.416,0.635-0.623,1.436-0.623,2.404
			c0,0.996,0.195,1.818,0.586,2.469c0.389,0.65,0.926,0.977,1.605,0.977c0.326,0,0.656-0.09,0.988-0.266
			c0.332-0.178,0.645-0.443,0.938-0.797C147.095,166.539,147.241,166.324,147.241,166.246z"/>
		<path fill="#F1F2F2" d="M169.993,160.244l-1.244,8.65h-0.988l-2.033-4.898l-2.043,4.898h-0.986l-1.221-8.65h1.287
			c0.459,4.041,0.697,6.16,0.713,6.359l1.586-3.76h1.328l1.576,3.734l0.697-6.334H169.993z"/>
		<path fill="#F1F2F2" d="M175.821,160.037c1.189,0,2.137,0.416,2.84,1.246s1.055,1.922,1.055,3.277
			c0,1.367-0.352,2.469-1.055,3.305s-1.65,1.254-2.84,1.254c-1.195,0-2.143-0.418-2.842-1.25c-0.701-0.834-1.051-1.936-1.051-3.309
			c0-1.361,0.352-2.455,1.055-3.283C173.687,160.451,174.632,160.037,175.821,160.037z M175.821,167.99
			c0.787,0,1.406-0.332,1.859-0.996c0.455-0.664,0.682-1.471,0.682-2.416c0-0.996-0.225-1.816-0.672-2.457
			c-0.449-0.643-1.072-0.963-1.869-0.963c-0.803,0-1.424,0.316-1.867,0.949c-0.443,0.635-0.664,1.457-0.664,2.471
			c0,0.963,0.225,1.771,0.672,2.428C174.411,167.662,175.03,167.99,175.821,167.99z"/>
		<path fill="#F1F2F2" d="M189.509,160.477l-0.521,1.246c-0.57-0.25-1.062-0.373-1.479-0.373c-0.381,0-0.756,0.107-1.121,0.326
			s-0.701,0.531-1.008,0.939c-0.307,0.406-0.461,0.635-0.461,0.684v5.596h-1.287v-8.65h1.287v1.752
			c0.691-1.307,1.588-1.959,2.689-1.959C188.261,160.037,188.896,160.184,189.509,160.477z"/>
		<path fill="#F1F2F2" d="M200.425,168.895h-1.701l-3.67-4.301l-0.846,0.73v3.57h-1.295v-11.713h1.295v6.715l4.059-3.652h1.652
			l-3.943,3.537L200.425,168.895z"/>
		<path fill="#F1F2F2" d="M209.862,157.314l-0.34,1.055c-0.615-0.178-1.164-0.266-1.652-0.266c-0.465,0-0.783,0.131-0.959,0.395
			c-0.174,0.262-0.262,0.793-0.262,1.59v0.156h2.906v1.121h-2.906v7.529h-1.295v-7.529h-2.174v-1.121h2.174v-0.289
			c0-1.102,0.189-1.875,0.564-2.316c0.377-0.443,1.027-0.664,1.951-0.664C208.468,156.975,209.132,157.088,209.862,157.314z"/>
		<path fill="#F1F2F2" d="M219.351,168.895h-3.535v-10.592h-2.258v-1.121h3.553v10.592h2.24V168.895z"/>
		<path fill="#F1F2F2" d="M226.829,160.037c1.189,0,2.137,0.416,2.84,1.246s1.055,1.922,1.055,3.277
			c0,1.367-0.352,2.469-1.055,3.305s-1.65,1.254-2.84,1.254c-1.195,0-2.143-0.418-2.842-1.25c-0.701-0.834-1.051-1.936-1.051-3.309
			c0-1.361,0.352-2.455,1.055-3.283C224.694,160.451,225.64,160.037,226.829,160.037z M226.829,167.99
			c0.787,0,1.406-0.332,1.859-0.996c0.455-0.664,0.682-1.471,0.682-2.416c0-0.996-0.225-1.816-0.672-2.457
			c-0.449-0.643-1.072-0.963-1.869-0.963c-0.803,0-1.424,0.316-1.867,0.949c-0.443,0.635-0.664,1.457-0.664,2.471
			c0,0.963,0.225,1.771,0.672,2.428C225.419,167.662,226.038,167.99,226.829,167.99z"/>
		<path fill="#F1F2F2" d="M241.405,160.244l-1.244,8.65h-0.988l-2.033-4.898l-2.043,4.898h-0.988l-1.219-8.65h1.285
			c0.459,4.041,0.697,6.16,0.715,6.359l1.586-3.76h1.328l1.576,3.734l0.697-6.334H241.405z"/>
	</g>
	<g>
		<path fill="#F1F2F2" d="M336.568,143.494h-5.32v-1.188h2.018v-9.338h-2.018v-1.188h5.32v1.188h-1.941v9.338h1.941V143.494z"/>
		<path fill="#F1F2F2" d="M347.518,143.494h-1.295v-5.545c0-0.77-0.123-1.328-0.369-1.674s-0.633-0.518-1.158-0.518
			c-0.791,0-1.641,0.492-2.549,1.477v6.26h-1.295v-8.65h1.295v1.27c0.93-0.984,1.91-1.477,2.939-1.477
			c1.621,0,2.432,0.979,2.432,2.938V143.494z"/>
		<path fill="#F1F2F2" d="M357.686,143.203c-0.752,0.344-1.58,0.514-2.481,0.514c-1.361,0-2.447-0.412-3.259-1.24
			c-0.811-0.828-1.215-1.928-1.215-3.299c0-1.373,0.408-2.473,1.225-3.301c0.815-0.826,1.888-1.24,3.216-1.24
			c0.868,0,1.696,0.152,2.481,0.457l-0.34,1.07c-0.785-0.271-1.494-0.406-2.125-0.406c-0.951,0-1.705,0.307-2.262,0.92
			c-0.557,0.615-0.834,1.447-0.834,2.5c0,0.963,0.287,1.771,0.863,2.428c0.575,0.656,1.324,0.982,2.249,0.982
			c0.73,0,1.483-0.141,2.258-0.422L357.686,143.203z"/>
		<path fill="#F1F2F2" d="M364.567,134.637c1.19,0,2.136,0.414,2.839,1.244s1.055,1.924,1.055,3.279
			c0,1.367-0.352,2.469-1.055,3.305c-0.703,0.834-1.648,1.252-2.839,1.252c-1.195,0-2.144-0.416-2.843-1.248
			c-0.7-0.834-1.051-1.936-1.051-3.309c0-1.361,0.352-2.455,1.055-3.283C362.432,135.051,363.377,134.637,364.567,134.637z
			 M364.567,142.588c0.786,0,1.405-0.332,1.859-0.996s0.681-1.469,0.681-2.414c0-0.996-0.225-1.816-0.672-2.457
			c-0.449-0.643-1.071-0.963-1.868-0.963c-0.802,0-1.425,0.316-1.868,0.949c-0.442,0.635-0.664,1.457-0.664,2.471
			c0,0.963,0.225,1.771,0.673,2.428S363.775,142.588,364.567,142.588z"/>
		<path fill="#F1F2F2" d="M378.803,143.494h-1.295v-5.678c0-1.373-0.254-2.059-0.764-2.059c-0.26,0-0.546,0.236-0.859,0.709
			c-0.312,0.473-0.469,0.734-0.469,0.785v6.242h-1.286v-5.678c0-1.373-0.257-2.059-0.772-2.059c-0.254,0-0.537,0.236-0.85,0.709
			c-0.313,0.473-0.47,0.734-0.47,0.785v6.242h-1.295v-8.65h1.245v1.303c0.244-0.459,0.533-0.824,0.867-1.1
			c0.335-0.273,0.668-0.41,1-0.41c0.35,0,0.662,0.137,0.938,0.41c0.276,0.275,0.468,0.641,0.573,1.1
			c0.243-0.459,0.533-0.824,0.871-1.1c0.338-0.273,0.67-0.41,0.996-0.41c1.046,0,1.568,0.936,1.568,2.805V143.494z"/>
		<path fill="#F1F2F2" d="M382.953,135.965c0.288-0.398,0.677-0.719,1.167-0.963c0.489-0.244,1.005-0.365,1.548-0.365
			c0.996,0,1.777,0.41,2.345,1.232s0.851,1.891,0.851,3.209c0,1.328-0.297,2.434-0.892,3.316c-0.595,0.881-1.396,1.322-2.403,1.322
			c-0.537,0-1.039-0.133-1.507-0.402c-0.468-0.268-0.837-0.623-1.108-1.066v4.666h-1.295v-12.07h1.295V135.965z M382.953,137.252
			v3.594c0.244,0.486,0.573,0.893,0.988,1.221c0.415,0.326,0.844,0.488,1.287,0.488c0.697,0,1.252-0.326,1.664-0.979
			s0.618-1.465,0.618-2.432c0-0.996-0.196-1.811-0.589-2.441c-0.394-0.631-0.941-0.945-1.645-0.945
			C384.365,135.758,383.59,136.256,382.953,137.252z"/>
		<path fill="#F1F2F2" d="M397.895,143.494h-3.535v-10.592h-2.258v-1.121h3.553v10.592h2.24V143.494z"/>
		<path fill="#F1F2F2" d="M408.984,139.211h-5.935c0,0.979,0.284,1.787,0.851,2.424c0.567,0.635,1.264,0.953,2.088,0.953
			c0.785,0,1.597-0.141,2.432-0.422l0.225,1.037c-0.764,0.344-1.654,0.514-2.673,0.514c-1.284,0-2.319-0.412-3.104-1.236
			s-1.179-1.938-1.179-3.336c0-1.373,0.353-2.467,1.059-3.283c0.705-0.816,1.617-1.225,2.735-1.225c0.996,0,1.828,0.379,2.498,1.137
			s1.004,1.768,1.004,3.029V139.211z M407.574,138.156c0-0.676-0.211-1.244-0.631-1.705c-0.421-0.463-0.892-0.693-1.412-0.693
			c-0.669,0-1.224,0.221-1.664,0.664c-0.439,0.441-0.685,1.02-0.734,1.734H407.574z"/>
		<path fill="#F1F2F2" d="M419.012,143.104c-0.868,0.398-1.723,0.598-2.564,0.598c-1.544,0-2.316-0.816-2.316-2.449v-5.287h-1.66
			v-1.121h1.66v-2.365h1.262v2.365h2.939v1.121h-2.939v4.947c0,0.525,0.117,0.934,0.35,1.225s0.547,0.436,0.945,0.436
			c0.709,0,1.408-0.158,2.101-0.473L419.012,143.104z"/>
		<path fill="#F1F2F2" d="M429.389,139.211h-5.936c0,0.979,0.283,1.787,0.851,2.424c0.567,0.635,1.263,0.953,2.088,0.953
			c0.786,0,1.597-0.141,2.433-0.422l0.224,1.037c-0.764,0.344-1.655,0.514-2.673,0.514c-1.283,0-2.318-0.412-3.104-1.236
			s-1.179-1.938-1.179-3.336c0-1.373,0.353-2.467,1.059-3.283c0.705-0.816,1.617-1.225,2.734-1.225c0.996,0,1.83,0.379,2.499,1.137
			s1.005,1.768,1.005,3.029V139.211z M427.977,138.156c0-0.676-0.21-1.244-0.631-1.705c-0.42-0.463-0.891-0.693-1.41-0.693
			c-0.67,0-1.225,0.221-1.665,0.664c-0.439,0.441-0.685,1.02-0.734,1.734H427.977z"/>
		<path fill="#F1F2F2" d="M449.617,143.104c-0.869,0.398-1.725,0.598-2.564,0.598c-1.545,0-2.316-0.816-2.316-2.449v-5.287h-1.66
			v-1.121h1.66v-2.365h1.262v2.365h2.938v1.121h-2.938v4.947c0,0.525,0.115,0.934,0.348,1.225s0.549,0.436,0.947,0.436
			c0.707,0,1.408-0.158,2.1-0.473L449.617,143.104z"/>
		<path fill="#F1F2F2" d="M459.869,135.076l-0.523,1.246c-0.57-0.25-1.062-0.375-1.479-0.375c-0.381,0-0.754,0.109-1.119,0.328
			s-0.701,0.531-1.01,0.939c-0.307,0.406-0.461,0.635-0.461,0.684v5.596h-1.285v-8.65h1.285v1.752
			c0.693-1.307,1.59-1.959,2.689-1.959C458.621,134.637,459.254,134.783,459.869,135.076z"/>
		<path fill="#F1F2F2" d="M470.154,143.494h-1.287c-0.105-0.35-0.158-0.814-0.158-1.395c-0.736,1.078-1.736,1.617-3.004,1.617
			c-0.643,0-1.209-0.227-1.697-0.684c-0.49-0.457-0.734-1.045-0.734-1.764c0-0.428,0.084-0.803,0.256-1.129
			c0.172-0.328,0.424-0.602,0.756-0.826s0.736-0.402,1.213-0.531c0.475-0.131,1.039-0.221,1.693-0.27l1.451-0.117v-0.414
			c0-1.484-0.691-2.225-2.074-2.225c-0.326,0-0.74,0.07-1.242,0.211c-0.5,0.141-0.93,0.309-1.289,0.502l-0.342-0.93
			c1.18-0.604,2.275-0.904,3.287-0.904c1.971,0,2.955,1.043,2.955,3.129v3.719C469.938,142.236,470.01,142.906,470.154,143.494z
			 M468.643,140.928v-1.568c-1.168,0.105-1.969,0.203-2.402,0.295c-0.436,0.092-0.811,0.262-1.129,0.51
			c-0.318,0.25-0.477,0.588-0.477,1.014c0,0.387,0.135,0.699,0.406,0.938s0.617,0.357,1.037,0.357c0.459,0,0.916-0.137,1.369-0.41
			C467.902,141.787,468.301,141.41,468.643,140.928z"/>
		<path fill="#F1F2F2" d="M477.98,143.494h-1.295v-7.529h-2.547v-1.121h3.842V143.494z M477.35,131.574
			c0.244,0,0.451,0.086,0.623,0.262c0.172,0.174,0.258,0.383,0.258,0.625c0,0.256-0.084,0.469-0.254,0.641
			c-0.168,0.17-0.377,0.256-0.627,0.256c-0.227,0-0.428-0.09-0.602-0.27s-0.262-0.389-0.262-0.627c0-0.236,0.088-0.445,0.262-0.621
			C476.922,131.662,477.123,131.574,477.35,131.574z"/>
		<path fill="#F1F2F2" d="M490.34,143.494h-1.295v-5.545c0-0.77-0.123-1.328-0.369-1.674s-0.633-0.518-1.158-0.518
			c-0.791,0-1.641,0.492-2.547,1.477v6.26h-1.295v-8.65h1.295v1.27c0.93-0.984,1.908-1.477,2.938-1.477
			c1.621,0,2.432,0.979,2.432,2.938V143.494z"/>
		<path fill="#F1F2F2" d="M498.385,143.494h-1.295v-7.529h-2.549v-1.121h3.844V143.494z M497.754,131.574
			c0.242,0,0.451,0.086,0.621,0.262c0.172,0.174,0.258,0.383,0.258,0.625c0,0.256-0.084,0.469-0.252,0.641
			c-0.17,0.17-0.379,0.256-0.627,0.256c-0.227,0-0.428-0.09-0.602-0.27c-0.176-0.18-0.262-0.389-0.262-0.627
			c0-0.236,0.086-0.445,0.262-0.621C497.326,131.662,497.527,131.574,497.754,131.574z"/>
		<path fill="#F1F2F2" d="M510.744,143.494h-1.295v-5.545c0-0.77-0.123-1.328-0.369-1.674s-0.633-0.518-1.158-0.518
			c-0.791,0-1.641,0.492-2.547,1.477v6.26h-1.295v-8.65h1.295v1.27c0.93-0.984,1.908-1.477,2.938-1.477
			c1.621,0,2.432,0.979,2.432,2.938V143.494z"/>
		<path fill="#F1F2F2" d="M516.68,140.23c-0.809,0.395-1.213,0.74-1.213,1.039c0,0.16,0.094,0.295,0.279,0.406
			s0.438,0.166,0.76,0.166l2.912-0.084c0.691,0,1.23,0.17,1.615,0.508c0.385,0.336,0.576,0.816,0.576,1.436
			c0,0.98-0.438,1.76-1.311,2.342c-0.875,0.58-1.896,0.871-3.062,0.871c-0.959,0-1.742-0.201-2.35-0.602
			c-0.609-0.402-0.914-0.92-0.914-1.557c0-0.691,0.471-1.275,1.412-1.752c-0.781-0.365-1.17-0.814-1.17-1.346
			c0-0.607,0.502-1.176,1.51-1.701c-0.465-0.281-0.822-0.646-1.07-1.096c-0.25-0.447-0.373-0.922-0.373-1.42
			c0-0.812,0.275-1.48,0.83-2.004c0.553-0.523,1.244-0.785,2.074-0.785c0.598,0,1.137,0.125,1.619,0.375l2.564-0.391v1.262h-1.652
			c0.25,0.438,0.375,0.951,0.375,1.543c0,0.787-0.275,1.451-0.822,1.992c-0.549,0.543-1.242,0.814-2.084,0.814
			C517.008,140.248,516.84,140.242,516.68,140.23z M517.236,145.91c0.852,0,1.578-0.191,2.178-0.57c0.602-0.379,0.9-0.848,0.9-1.406
			c0-0.576-0.426-0.863-1.277-0.863c-0.283,0-0.77,0.016-1.461,0.049c-0.438,0.023-0.781,0.033-1.029,0.033
			c-0.123,0-0.312,0.1-0.568,0.299c-0.258,0.199-0.455,0.4-0.59,0.604c-0.137,0.201-0.203,0.41-0.203,0.627
			c0,0.336,0.188,0.625,0.564,0.867C516.125,145.789,516.621,145.91,517.236,145.91z M517.186,139.244
			c0.477,0,0.865-0.166,1.166-0.494c0.303-0.33,0.453-0.76,0.453-1.291c0-0.559-0.146-0.996-0.439-1.312
			c-0.295-0.314-0.688-0.473-1.18-0.473c-0.459,0-0.846,0.164-1.158,0.494s-0.469,0.76-0.469,1.291c0,0.52,0.156,0.947,0.469,1.283
			C516.34,139.076,516.727,139.244,517.186,139.244z"/>
		<path fill="#F1F2F2" d="M332.896,168.895h-1.295v-5.678c0-1.373-0.255-2.059-0.764-2.059c-0.261,0-0.547,0.236-0.859,0.709
			s-0.469,0.734-0.469,0.785v6.242h-1.287v-5.678c0-1.373-0.258-2.059-0.771-2.059c-0.255,0-0.539,0.236-0.852,0.709
			s-0.469,0.734-0.469,0.785v6.242h-1.295v-8.65h1.245v1.305c0.243-0.461,0.532-0.826,0.868-1.102c0.334-0.273,0.668-0.41,1-0.41
			c0.348,0,0.66,0.137,0.938,0.41c0.277,0.275,0.468,0.641,0.572,1.102c0.244-0.461,0.535-0.826,0.872-1.102
			c0.337-0.273,0.669-0.41,0.996-0.41c1.046,0,1.569,0.936,1.569,2.807V168.895z"/>
		<path fill="#F1F2F2" d="M342.633,168.895h-1.287c-0.104-0.35-0.157-0.814-0.157-1.395c-0.735,1.078-1.737,1.619-3.005,1.619
			c-0.643,0-1.208-0.229-1.697-0.686c-0.49-0.457-0.734-1.045-0.734-1.764c0-0.426,0.086-0.803,0.257-1.129s0.423-0.602,0.755-0.826
			s0.736-0.402,1.213-0.531c0.476-0.131,1.04-0.221,1.693-0.27l1.452-0.117v-0.414c0-1.484-0.692-2.225-2.075-2.225
			c-0.326,0-0.74,0.07-1.241,0.211s-0.931,0.309-1.29,0.502l-0.341-0.93c1.179-0.604,2.274-0.904,3.287-0.904
			c1.97,0,2.955,1.043,2.955,3.129v3.719C342.417,167.639,342.488,168.307,342.633,168.895z M341.122,166.33v-1.57
			c-1.167,0.105-1.969,0.203-2.403,0.295c-0.434,0.092-0.811,0.262-1.129,0.512c-0.318,0.248-0.477,0.586-0.477,1.012
			c0,0.387,0.135,0.699,0.406,0.938s0.617,0.357,1.037,0.357c0.46,0,0.916-0.137,1.37-0.41
			C340.381,167.188,340.779,166.811,341.122,166.33z"/>
		<path fill="#F1F2F2" d="M352.701,168.504c-0.868,0.398-1.723,0.598-2.564,0.598c-1.544,0-2.316-0.816-2.316-2.449v-5.287h-1.66
			v-1.121h1.66v-2.365h1.262v2.365h2.939v1.121h-2.939v4.947c0,0.525,0.117,0.934,0.35,1.225s0.547,0.436,0.945,0.436
			c0.709,0,1.408-0.158,2.101-0.473L352.701,168.504z"/>
		<path fill="#F1F2F2" d="M363.078,164.611h-5.936c0,0.979,0.283,1.787,0.851,2.424s1.263,0.955,2.088,0.955
			c0.786,0,1.597-0.143,2.433-0.424l0.224,1.037c-0.764,0.344-1.655,0.516-2.673,0.516c-1.283,0-2.318-0.414-3.104-1.238
			s-1.179-1.936-1.179-3.336c0-1.373,0.353-2.467,1.059-3.283c0.705-0.816,1.617-1.225,2.734-1.225c0.996,0,1.83,0.379,2.499,1.137
			s1.005,1.77,1.005,3.031V164.611z M361.666,163.557c0-0.676-0.21-1.244-0.631-1.705c-0.42-0.463-0.891-0.693-1.41-0.693
			c-0.67,0-1.225,0.221-1.665,0.664c-0.439,0.441-0.685,1.021-0.734,1.734H361.666z"/>
		<path fill="#F1F2F2" d="M373.154,160.477l-0.522,1.246c-0.569-0.25-1.062-0.373-1.478-0.373c-0.382,0-0.756,0.107-1.121,0.326
			s-0.701,0.531-1.008,0.939c-0.307,0.406-0.461,0.635-0.461,0.684v5.596h-1.287v-8.65h1.287v1.752
			c0.691-1.307,1.588-1.959,2.689-1.959C371.906,160.037,372.541,160.184,373.154,160.477z"/>
		<path fill="#F1F2F2" d="M381.065,168.895h-1.295v-7.529h-2.548v-1.121h3.843V168.895z M380.435,156.975
			c0.243,0,0.451,0.086,0.622,0.262c0.172,0.174,0.258,0.383,0.258,0.627c0,0.254-0.084,0.467-0.253,0.639s-0.378,0.258-0.627,0.258
			c-0.228,0-0.428-0.092-0.602-0.271c-0.175-0.18-0.262-0.389-0.262-0.625c0-0.238,0.087-0.447,0.262-0.623
			C380.007,157.062,380.207,156.975,380.435,156.975z"/>
		<path fill="#F1F2F2" d="M393.641,168.895h-1.286c-0.104-0.35-0.157-0.814-0.157-1.395c-0.736,1.078-1.738,1.619-3.006,1.619
			c-0.642,0-1.207-0.229-1.697-0.686s-0.734-1.045-0.734-1.764c0-0.426,0.086-0.803,0.258-1.129
			c0.171-0.326,0.423-0.602,0.755-0.826s0.735-0.402,1.212-0.531c0.477-0.131,1.041-0.221,1.693-0.27l1.453-0.117v-0.414
			c0-1.484-0.692-2.225-2.076-2.225c-0.326,0-0.74,0.07-1.24,0.211c-0.501,0.141-0.932,0.309-1.291,0.502l-0.34-0.93
			c1.178-0.604,2.273-0.904,3.287-0.904c1.97,0,2.955,1.043,2.955,3.129v3.719C393.426,167.639,393.497,168.307,393.641,168.895z
			 M392.131,166.33v-1.57c-1.168,0.105-1.969,0.203-2.404,0.295c-0.434,0.092-0.811,0.262-1.129,0.512
			c-0.317,0.248-0.477,0.586-0.477,1.012c0,0.387,0.136,0.699,0.406,0.938c0.271,0.238,0.617,0.357,1.038,0.357
			c0.46,0,0.916-0.137,1.37-0.41C391.389,167.188,391.787,166.811,392.131,166.33z"/>
		<path fill="#F1F2F2" d="M402.996,168.895h-3.536v-10.592h-2.258v-1.121h3.553v10.592h2.241V168.895z"/>
		<path fill="#F1F2F2" d="M412.924,161.482c-0.725-0.238-1.408-0.357-2.051-0.357c-0.702,0-1.258,0.117-1.668,0.352
			c-0.41,0.236-0.614,0.551-0.614,0.943c0,0.248,0.095,0.465,0.282,0.65s0.564,0.359,1.129,0.52l1.236,0.357
			c0.57,0.16,1.035,0.352,1.395,0.576c0.36,0.225,0.63,0.496,0.811,0.814c0.18,0.318,0.27,0.688,0.27,1.107
			c0,0.824-0.346,1.477-1.038,1.955s-1.571,0.719-2.64,0.719c-1.062,0-1.939-0.162-2.631-0.482l0.248-1.121
			c0.726,0.344,1.503,0.516,2.333,0.516c0.72,0,1.305-0.135,1.755-0.402c0.451-0.27,0.678-0.625,0.678-1.066
			c0-0.299-0.113-0.566-0.336-0.803c-0.225-0.234-0.752-0.479-1.582-0.734c-0.67-0.205-1.162-0.357-1.478-0.461
			c-0.315-0.102-0.608-0.252-0.88-0.451s-0.477-0.438-0.619-0.715c-0.141-0.275-0.211-0.586-0.211-0.93
			c0-0.746,0.326-1.338,0.979-1.775s1.519-0.656,2.599-0.656c0.697,0,1.472,0.119,2.324,0.357L412.924,161.482z"/>
		<path fill="#F1F2F2" d="M435.967,168.828c-0.244,0.1-0.545,0.148-0.904,0.148c-0.293,0-0.584-0.104-0.873-0.311
			c-0.287-0.207-0.658-0.613-1.111-1.217c-0.863,1.113-1.906,1.67-3.129,1.67c-0.98,0-1.809-0.312-2.486-0.936
			c-0.678-0.621-1.018-1.395-1.018-2.318c0-0.594,0.178-1.154,0.531-1.682c0.354-0.529,1.016-1.127,1.984-1.797
			c-0.918-1.08-1.378-2.02-1.378-2.822c0-0.775,0.256-1.402,0.769-1.885c0.512-0.48,1.157-0.723,1.938-0.723
			c0.725,0,1.322,0.207,1.793,0.619s0.705,0.984,0.705,1.715c0,0.525-0.16,1.029-0.48,1.51c-0.322,0.482-0.922,1.043-1.802,1.686
			l2.448,3.021c0.377-0.963,0.658-1.633,0.844-2.01c0.186-0.375,0.445-0.701,0.783-0.975s0.771-0.41,1.303-0.41h0.066v1.137h-0.066
			c-0.336,0-0.66,0.18-0.971,0.539c-0.309,0.359-0.719,1.24-1.229,2.641c0.416,0.498,0.738,0.854,0.971,1.07
			c0.232,0.215,0.494,0.324,0.781,0.324c0.133,0,0.311-0.018,0.531-0.051V168.828z M432.381,166.604l-2.789-3.438
			c-0.652,0.477-1.113,0.914-1.383,1.316c-0.268,0.4-0.402,0.846-0.402,1.332c0,0.609,0.215,1.121,0.645,1.535
			c0.428,0.416,0.938,0.623,1.531,0.623C430.906,167.973,431.705,167.516,432.381,166.604z M429.898,161.705
			c0.653-0.453,1.109-0.854,1.365-1.203c0.258-0.348,0.387-0.719,0.387-1.111c0-0.432-0.131-0.76-0.395-0.98
			c-0.263-0.221-0.58-0.332-0.95-0.332c-0.432,0-0.792,0.131-1.083,0.395c-0.291,0.262-0.436,0.627-0.436,1.092
			C428.787,160.162,429.157,160.875,429.898,161.705z"/>
		<path fill="#F1F2F2" d="M449.266,161.365c0.287-0.398,0.676-0.719,1.166-0.963c0.488-0.244,1.006-0.365,1.547-0.365
			c0.996,0,1.777,0.41,2.346,1.232c0.566,0.822,0.852,1.891,0.852,3.209c0,1.328-0.299,2.434-0.893,3.316
			c-0.596,0.883-1.396,1.324-2.404,1.324c-0.537,0-1.039-0.135-1.506-0.404c-0.469-0.268-0.838-0.623-1.107-1.066v4.666h-1.295
			v-12.07h1.295V161.365z M449.266,162.652v3.594c0.242,0.486,0.572,0.895,0.986,1.221c0.416,0.326,0.844,0.49,1.287,0.49
			c0.697,0,1.252-0.328,1.664-0.98s0.619-1.463,0.619-2.432c0-0.996-0.197-1.811-0.59-2.441s-0.941-0.945-1.643-0.945
			C450.676,161.158,449.9,161.656,449.266,162.652z"/>
		<path fill="#F1F2F2" d="M464.969,160.477l-0.521,1.246c-0.57-0.25-1.062-0.373-1.479-0.373c-0.381,0-0.756,0.107-1.121,0.326
			s-0.701,0.531-1.008,0.939c-0.307,0.406-0.461,0.635-0.461,0.684v5.596h-1.287v-8.65h1.287v1.752
			c0.691-1.307,1.588-1.959,2.689-1.959C463.721,160.037,464.355,160.184,464.969,160.477z"/>
		<path fill="#F1F2F2" d="M471.686,160.037c1.189,0,2.135,0.416,2.838,1.246s1.055,1.922,1.055,3.277
			c0,1.367-0.352,2.469-1.055,3.305s-1.648,1.254-2.838,1.254c-1.195,0-2.143-0.418-2.844-1.25
			c-0.699-0.834-1.051-1.936-1.051-3.309c0-1.361,0.352-2.455,1.055-3.283C469.549,160.451,470.496,160.037,471.686,160.037z
			 M471.686,167.99c0.785,0,1.404-0.332,1.859-0.996c0.453-0.664,0.68-1.471,0.68-2.416c0-0.996-0.225-1.816-0.672-2.457
			c-0.449-0.643-1.07-0.963-1.867-0.963c-0.803,0-1.426,0.316-1.869,0.949c-0.441,0.635-0.664,1.457-0.664,2.471
			c0,0.963,0.225,1.771,0.674,2.428C470.273,167.662,470.895,167.99,471.686,167.99z"/>
		<path fill="#F1F2F2" d="M485.207,168.604c-0.752,0.344-1.58,0.516-2.48,0.516c-1.361,0-2.449-0.414-3.26-1.242
			c-0.811-0.826-1.215-1.928-1.215-3.299c0-1.373,0.408-2.473,1.225-3.301c0.816-0.826,1.889-1.24,3.217-1.24
			c0.867,0,1.695,0.152,2.48,0.457l-0.34,1.07c-0.785-0.271-1.494-0.406-2.125-0.406c-0.951,0-1.705,0.307-2.262,0.922
			c-0.557,0.613-0.834,1.445-0.834,2.498c0,0.963,0.287,1.771,0.863,2.428c0.574,0.656,1.324,0.984,2.25,0.984
			c0.73,0,1.482-0.143,2.258-0.424L485.207,168.604z"/>
		<path fill="#F1F2F2" d="M495.699,164.611h-5.936c0,0.979,0.283,1.787,0.852,2.424c0.566,0.637,1.264,0.955,2.088,0.955
			c0.785,0,1.596-0.143,2.432-0.424l0.225,1.037c-0.764,0.344-1.654,0.516-2.674,0.516c-1.283,0-2.318-0.414-3.104-1.238
			c-0.787-0.824-1.18-1.936-1.18-3.336c0-1.373,0.354-2.467,1.059-3.283s1.617-1.225,2.736-1.225c0.996,0,1.828,0.379,2.498,1.137
			s1.004,1.77,1.004,3.031V164.611z M494.289,163.557c0-0.676-0.211-1.244-0.631-1.705c-0.422-0.463-0.893-0.693-1.412-0.693
			c-0.67,0-1.225,0.221-1.664,0.664c-0.439,0.441-0.686,1.021-0.734,1.734H494.289z"/>
		<path fill="#F1F2F2" d="M504.738,161.482c-0.725-0.238-1.408-0.357-2.051-0.357c-0.703,0-1.258,0.117-1.668,0.352
			c-0.41,0.236-0.613,0.551-0.613,0.943c0,0.248,0.094,0.465,0.281,0.65s0.564,0.359,1.129,0.52l1.236,0.357
			c0.57,0.16,1.035,0.352,1.395,0.576s0.631,0.496,0.811,0.814s0.27,0.688,0.27,1.107c0,0.824-0.346,1.477-1.037,1.955
			c-0.693,0.479-1.572,0.719-2.641,0.719c-1.062,0-1.939-0.162-2.631-0.482l0.248-1.121c0.725,0.344,1.504,0.516,2.334,0.516
			c0.719,0,1.303-0.135,1.754-0.402c0.451-0.27,0.678-0.625,0.678-1.066c0-0.299-0.113-0.566-0.336-0.803
			c-0.225-0.234-0.752-0.479-1.582-0.734c-0.67-0.205-1.162-0.357-1.477-0.461c-0.316-0.102-0.609-0.252-0.881-0.451
			s-0.477-0.438-0.619-0.715c-0.141-0.275-0.211-0.586-0.211-0.93c0-0.746,0.326-1.338,0.98-1.775
			c0.652-0.438,1.518-0.656,2.598-0.656c0.697,0,1.471,0.119,2.324,0.357L504.738,161.482z"/>
		<path fill="#F1F2F2" d="M514.939,161.482c-0.725-0.238-1.408-0.357-2.049-0.357c-0.703,0-1.26,0.117-1.67,0.352
			c-0.408,0.236-0.613,0.551-0.613,0.943c0,0.248,0.094,0.465,0.281,0.65c0.189,0.186,0.564,0.359,1.129,0.52l1.238,0.357
			c0.57,0.16,1.035,0.352,1.395,0.576s0.629,0.496,0.809,0.814s0.27,0.688,0.27,1.107c0,0.824-0.346,1.477-1.037,1.955
			s-1.572,0.719-2.641,0.719c-1.062,0-1.939-0.162-2.631-0.482l0.25-1.121c0.725,0.344,1.502,0.516,2.332,0.516
			c0.719,0,1.305-0.135,1.756-0.402c0.451-0.27,0.676-0.625,0.676-1.066c0-0.299-0.111-0.566-0.336-0.803
			c-0.225-0.234-0.752-0.479-1.582-0.734c-0.668-0.205-1.162-0.357-1.477-0.461c-0.316-0.102-0.609-0.252-0.881-0.451
			c-0.27-0.199-0.477-0.438-0.617-0.715c-0.141-0.275-0.213-0.586-0.213-0.93c0-0.746,0.328-1.338,0.98-1.775
			s1.52-0.656,2.598-0.656c0.697,0,1.473,0.119,2.324,0.357L514.939,161.482z"/>
		<path fill="#F1F2F2" d="M526.305,164.611h-5.936c0,0.979,0.283,1.787,0.852,2.424c0.566,0.637,1.264,0.955,2.088,0.955
			c0.785,0,1.596-0.143,2.432-0.424l0.225,1.037c-0.764,0.344-1.654,0.516-2.674,0.516c-1.283,0-2.318-0.414-3.104-1.238
			c-0.787-0.824-1.18-1.936-1.18-3.336c0-1.373,0.354-2.467,1.059-3.283s1.617-1.225,2.736-1.225c0.996,0,1.828,0.379,2.498,1.137
			s1.004,1.77,1.004,3.031V164.611z M524.895,163.557c0-0.676-0.211-1.244-0.631-1.705c-0.422-0.463-0.893-0.693-1.412-0.693
			c-0.67,0-1.225,0.221-1.664,0.664c-0.439,0.441-0.686,1.021-0.734,1.734H524.895z"/>
		<path fill="#F1F2F2" d="M535.344,161.482c-0.725-0.238-1.408-0.357-2.051-0.357c-0.703,0-1.258,0.117-1.668,0.352
			c-0.41,0.236-0.613,0.551-0.613,0.943c0,0.248,0.094,0.465,0.281,0.65s0.564,0.359,1.129,0.52l1.236,0.357
			c0.57,0.16,1.035,0.352,1.395,0.576s0.631,0.496,0.811,0.814s0.27,0.688,0.27,1.107c0,0.824-0.346,1.477-1.037,1.955
			c-0.693,0.479-1.572,0.719-2.641,0.719c-1.062,0-1.939-0.162-2.631-0.482l0.248-1.121c0.725,0.344,1.504,0.516,2.334,0.516
			c0.719,0,1.303-0.135,1.754-0.402c0.451-0.27,0.678-0.625,0.678-1.066c0-0.299-0.113-0.566-0.336-0.803
			c-0.225-0.234-0.752-0.479-1.582-0.734c-0.67-0.205-1.162-0.357-1.477-0.461c-0.316-0.102-0.609-0.252-0.881-0.451
			s-0.477-0.438-0.619-0.715c-0.141-0.275-0.211-0.586-0.211-0.93c0-0.746,0.326-1.338,0.98-1.775
			c0.652-0.438,1.518-0.656,2.598-0.656c0.697,0,1.471,0.119,2.324,0.357L535.344,161.482z"/>
	</g>
	<g>
		<path fill="#F1F2F2" d="M616.247,143.494h-6.375v-11.713h1.361v10.525h5.014V143.494z"/>
		<path fill="#F1F2F2" d="M623.046,134.637c1.189,0,2.137,0.414,2.839,1.244s1.054,1.924,1.054,3.279
			c0,1.367-0.352,2.469-1.054,3.305c-0.702,0.834-1.649,1.252-2.839,1.252c-1.195,0-2.143-0.416-2.843-1.248
			c-0.7-0.834-1.05-1.936-1.05-3.309c0-1.361,0.352-2.455,1.054-3.283C620.909,135.051,621.856,134.637,623.046,134.637z
			 M623.046,142.588c0.785,0,1.406-0.332,1.859-0.996s0.681-1.469,0.681-2.414c0-0.996-0.224-1.816-0.673-2.457
			c-0.447-0.643-1.07-0.963-1.867-0.963c-0.803,0-1.425,0.316-1.867,0.949c-0.443,0.635-0.664,1.457-0.664,2.471
			c0,0.963,0.224,1.771,0.672,2.428S622.255,142.588,623.046,142.588z"/>
		<path fill="#F1F2F2" d="M637.622,134.844l-1.245,8.65h-0.987l-2.034-4.898l-2.042,4.898h-0.988l-1.22-8.65h1.286
			c0.46,4.039,0.697,6.16,0.715,6.359l1.585-3.762h1.328l1.577,3.736l0.697-6.334H637.622z"/>
		<path fill="#F1F2F2" d="M656.1,136.08c-0.726-0.236-1.408-0.355-2.05-0.355c-0.703,0-1.26,0.117-1.669,0.352
			c-0.409,0.236-0.614,0.549-0.614,0.943c0,0.248,0.094,0.465,0.282,0.65s0.564,0.359,1.129,0.52l1.237,0.357
			c0.569,0.16,1.034,0.352,1.395,0.576c0.359,0.225,0.629,0.496,0.809,0.814c0.18,0.316,0.27,0.688,0.27,1.107
			c0,0.824-0.346,1.477-1.037,1.955s-1.572,0.717-2.64,0.717c-1.062,0-1.939-0.16-2.632-0.48l0.25-1.121
			c0.725,0.344,1.502,0.516,2.332,0.516c0.719,0,1.305-0.135,1.756-0.402c0.451-0.27,0.676-0.625,0.676-1.068
			c0-0.299-0.111-0.564-0.336-0.801c-0.225-0.234-0.751-0.48-1.581-0.734c-0.669-0.205-1.162-0.357-1.478-0.461
			c-0.315-0.102-0.609-0.252-0.88-0.451s-0.478-0.438-0.618-0.715s-0.212-0.586-0.212-0.93c0-0.746,0.327-1.34,0.979-1.775
			c0.652-0.438,1.52-0.656,2.598-0.656c0.697,0,1.473,0.119,2.324,0.357L656.1,136.08z"/>
		<path fill="#F1F2F2" d="M667.464,139.211h-5.936c0,0.979,0.283,1.787,0.851,2.424c0.567,0.635,1.263,0.953,2.088,0.953
			c0.786,0,1.597-0.141,2.433-0.422l0.224,1.037c-0.764,0.344-1.655,0.514-2.673,0.514c-1.283,0-2.318-0.412-3.104-1.236
			s-1.179-1.938-1.179-3.336c0-1.373,0.353-2.467,1.059-3.283c0.705-0.816,1.617-1.225,2.734-1.225c0.996,0,1.83,0.379,2.499,1.137
			s1.005,1.768,1.005,3.029V139.211z M666.052,138.156c0-0.676-0.21-1.244-0.631-1.705c-0.42-0.463-0.891-0.693-1.41-0.693
			c-0.67,0-1.225,0.221-1.665,0.664c-0.439,0.441-0.685,1.02-0.734,1.734H666.052z"/>
		<path fill="#F1F2F2" d="M677.407,143.494h-1.295v-5.545c0-0.77-0.123-1.328-0.369-1.674s-0.632-0.518-1.158-0.518
			c-0.791,0-1.641,0.492-2.548,1.477v6.26h-1.295v-8.65h1.295v1.27c0.93-0.984,1.909-1.477,2.938-1.477
			c1.621,0,2.432,0.979,2.432,2.938V143.494z"/>
		<path fill="#F1F2F2" d="M686.704,136.08c-0.725-0.236-1.408-0.355-2.05-0.355c-0.702,0-1.259,0.117-1.669,0.352
			c-0.409,0.236-0.613,0.549-0.613,0.943c0,0.248,0.094,0.465,0.281,0.65c0.188,0.186,0.564,0.359,1.129,0.52l1.237,0.357
			c0.569,0.16,1.034,0.352,1.395,0.576s0.63,0.496,0.81,0.814c0.18,0.316,0.27,0.688,0.27,1.107c0,0.824-0.346,1.477-1.037,1.955
			c-0.692,0.479-1.572,0.717-2.641,0.717c-1.062,0-1.939-0.16-2.631-0.48l0.249-1.121c0.726,0.344,1.503,0.516,2.333,0.516
			c0.719,0,1.305-0.135,1.755-0.402c0.451-0.27,0.677-0.625,0.677-1.068c0-0.299-0.112-0.564-0.336-0.801
			c-0.225-0.234-0.752-0.48-1.582-0.734c-0.669-0.205-1.162-0.357-1.477-0.461c-0.316-0.102-0.609-0.252-0.881-0.451
			c-0.271-0.199-0.477-0.438-0.618-0.715c-0.141-0.277-0.212-0.586-0.212-0.93c0-0.746,0.327-1.34,0.98-1.775
			c0.652-0.438,1.519-0.656,2.598-0.656c0.697,0,1.473,0.119,2.324,0.357L686.704,136.08z"/>
		<path fill="#F1F2F2" d="M698.068,139.211h-5.935c0,0.979,0.283,1.787,0.85,2.424c0.568,0.635,1.264,0.953,2.088,0.953
			c0.786,0,1.598-0.141,2.433-0.422l0.224,1.037c-0.764,0.344-1.654,0.514-2.672,0.514c-1.284,0-2.319-0.412-3.105-1.236
			c-0.785-0.824-1.178-1.938-1.178-3.336c0-1.373,0.352-2.467,1.059-3.283c0.705-0.816,1.617-1.225,2.734-1.225
			c0.996,0,1.829,0.379,2.498,1.137c0.67,0.758,1.005,1.768,1.005,3.029V139.211z M696.657,138.156c0-0.676-0.211-1.244-0.631-1.705
			c-0.42-0.463-0.891-0.693-1.411-0.693c-0.669,0-1.224,0.221-1.665,0.664c-0.439,0.441-0.684,1.02-0.734,1.734H696.657z"/>
		<path fill="#F1F2F2" d="M714.86,134.637c1.19,0,2.137,0.414,2.84,1.244c0.702,0.83,1.054,1.924,1.054,3.279
			c0,1.367-0.352,2.469-1.054,3.305c-0.703,0.834-1.649,1.252-2.84,1.252c-1.195,0-2.143-0.416-2.842-1.248
			c-0.701-0.834-1.051-1.936-1.051-3.309c0-1.361,0.352-2.455,1.055-3.283C712.725,135.051,713.671,134.637,714.86,134.637z
			 M714.86,142.588c0.786,0,1.406-0.332,1.859-0.996c0.454-0.664,0.682-1.469,0.682-2.414c0-0.996-0.225-1.816-0.673-2.457
			c-0.448-0.643-1.071-0.963-1.868-0.963c-0.802,0-1.424,0.316-1.867,0.949c-0.443,0.635-0.664,1.457-0.664,2.471
			c0,0.963,0.225,1.771,0.672,2.428C713.45,142.262,714.069,142.588,714.86,142.588z"/>
		<path fill="#F1F2F2" d="M728.499,131.914l-0.34,1.055c-0.615-0.178-1.164-0.266-1.652-0.266c-0.465,0-0.783,0.131-0.959,0.395
			c-0.174,0.262-0.262,0.791-0.262,1.588v0.158h2.906v1.121h-2.906v7.529h-1.295v-7.529h-2.174v-1.121h2.174v-0.291
			c0-1.1,0.188-1.873,0.564-2.314c0.377-0.443,1.027-0.664,1.951-0.664C727.104,131.574,727.769,131.688,728.499,131.914z"/>
		<path fill="#F1F2F2" d="M743.45,135.965c0.287-0.398,0.676-0.719,1.166-0.963c0.488-0.244,1.006-0.365,1.547-0.365
			c1.008,0,1.793,0.404,2.354,1.211c0.562,0.809,0.844,1.871,0.844,3.188c0,1.334-0.299,2.447-0.896,3.342s-1.398,1.34-2.4,1.34
			c-0.537,0-1.039-0.133-1.506-0.402c-0.469-0.268-0.838-0.623-1.107-1.066v1.246h-1.295v-11.713h1.295V135.965z M743.45,137.252
			v3.594c0.242,0.486,0.572,0.893,0.986,1.221c0.416,0.326,0.844,0.488,1.287,0.488c0.697,0,1.252-0.332,1.664-0.996
			s0.619-1.48,0.619-2.447c0-0.996-0.197-1.805-0.59-2.424c-0.393-0.621-0.941-0.93-1.643-0.93
			C744.86,135.758,744.085,136.256,743.45,137.252z"/>
		<path fill="#F1F2F2" d="M759.278,139.211h-5.936c0,0.979,0.283,1.787,0.852,2.424c0.566,0.635,1.264,0.953,2.088,0.953
			c0.785,0,1.596-0.141,2.432-0.422l0.225,1.037c-0.764,0.344-1.654,0.514-2.674,0.514c-1.283,0-2.318-0.412-3.104-1.236
			c-0.787-0.824-1.18-1.938-1.18-3.336c0-1.373,0.354-2.467,1.059-3.283s1.617-1.225,2.736-1.225c0.996,0,1.828,0.379,2.498,1.137
			s1.004,1.768,1.004,3.029V139.211z M757.868,138.156c0-0.676-0.211-1.244-0.631-1.705c-0.422-0.463-0.893-0.693-1.412-0.693
			c-0.67,0-1.225,0.221-1.664,0.664c-0.439,0.441-0.686,1.02-0.734,1.734H757.868z"/>
		<path fill="#F1F2F2" d="M768.591,143.494h-3.535v-10.592h-2.258v-1.121h3.553v10.592h2.24V143.494z"/>
		<path fill="#F1F2F2" d="M776.071,134.637c1.189,0,2.135,0.414,2.838,1.244s1.055,1.924,1.055,3.279
			c0,1.367-0.352,2.469-1.055,3.305c-0.703,0.834-1.648,1.252-2.838,1.252c-1.195,0-2.143-0.416-2.844-1.248
			c-0.699-0.834-1.051-1.936-1.051-3.309c0-1.361,0.352-2.455,1.055-3.283C773.935,135.051,774.882,134.637,776.071,134.637z
			 M776.071,142.588c0.785,0,1.404-0.332,1.859-0.996c0.453-0.664,0.68-1.469,0.68-2.414c0-0.996-0.225-1.816-0.672-2.457
			c-0.449-0.643-1.07-0.963-1.867-0.963c-0.803,0-1.426,0.316-1.869,0.949c-0.441,0.635-0.664,1.457-0.664,2.471
			c0,0.963,0.225,1.771,0.674,2.428C774.659,142.262,775.28,142.588,776.071,142.588z"/>
		<path fill="#F1F2F2" d="M789.626,143.494h-1.295v-5.545c0-0.77-0.123-1.328-0.369-1.674s-0.633-0.518-1.158-0.518
			c-0.791,0-1.641,0.492-2.547,1.477v6.26h-1.295v-8.65h1.295v1.27c0.93-0.984,1.908-1.477,2.938-1.477
			c1.621,0,2.432,0.979,2.432,2.938V143.494z"/>
		<path fill="#F1F2F2" d="M795.562,140.23c-0.809,0.395-1.213,0.74-1.213,1.039c0,0.16,0.094,0.295,0.279,0.406
			s0.438,0.166,0.76,0.166l2.912-0.084c0.691,0,1.23,0.17,1.615,0.508c0.385,0.336,0.576,0.816,0.576,1.436
			c0,0.98-0.438,1.76-1.311,2.342c-0.875,0.58-1.896,0.871-3.062,0.871c-0.959,0-1.742-0.201-2.35-0.602
			c-0.609-0.402-0.914-0.92-0.914-1.557c0-0.691,0.471-1.275,1.412-1.752c-0.781-0.365-1.17-0.814-1.17-1.346
			c0-0.607,0.502-1.176,1.51-1.701c-0.465-0.281-0.822-0.646-1.07-1.096c-0.25-0.447-0.373-0.922-0.373-1.42
			c0-0.812,0.275-1.48,0.83-2.004c0.553-0.523,1.244-0.785,2.074-0.785c0.598,0,1.137,0.125,1.619,0.375l2.564-0.391v1.262h-1.652
			c0.25,0.438,0.375,0.951,0.375,1.543c0,0.787-0.275,1.451-0.822,1.992c-0.549,0.543-1.242,0.814-2.084,0.814
			C795.89,140.248,795.722,140.242,795.562,140.23z M796.118,145.91c0.852,0,1.578-0.191,2.178-0.57
			c0.602-0.379,0.9-0.848,0.9-1.406c0-0.576-0.426-0.863-1.277-0.863c-0.283,0-0.77,0.016-1.461,0.049
			c-0.438,0.023-0.781,0.033-1.029,0.033c-0.123,0-0.312,0.1-0.568,0.299c-0.258,0.199-0.455,0.4-0.59,0.604
			c-0.137,0.201-0.203,0.41-0.203,0.627c0,0.336,0.188,0.625,0.564,0.867C795.007,145.789,795.503,145.91,796.118,145.91z
			 M796.067,139.244c0.477,0,0.865-0.166,1.166-0.494c0.303-0.33,0.453-0.76,0.453-1.291c0-0.559-0.146-0.996-0.439-1.312
			c-0.295-0.314-0.688-0.473-1.18-0.473c-0.459,0-0.846,0.164-1.158,0.494s-0.469,0.76-0.469,1.291c0,0.52,0.156,0.947,0.469,1.283
			C795.222,139.076,795.608,139.244,796.067,139.244z"/>
		<path fill="#F1F2F2" d="M807.87,143.494h-1.295v-7.529h-2.547v-1.121h3.842V143.494z M807.239,131.574
			c0.244,0,0.451,0.086,0.623,0.262c0.172,0.174,0.258,0.383,0.258,0.625c0,0.256-0.084,0.469-0.254,0.641
			c-0.168,0.17-0.377,0.256-0.627,0.256c-0.227,0-0.428-0.09-0.602-0.27s-0.262-0.389-0.262-0.627c0-0.236,0.088-0.445,0.262-0.621
			C806.812,131.662,807.013,131.574,807.239,131.574z"/>
		<path fill="#F1F2F2" d="M820.231,143.494h-1.295v-5.545c0-0.77-0.123-1.328-0.369-1.674s-0.633-0.518-1.158-0.518
			c-0.791,0-1.641,0.492-2.549,1.477v6.26h-1.295v-8.65h1.295v1.27c0.93-0.984,1.908-1.477,2.938-1.477
			c1.623,0,2.434,0.979,2.434,2.938V143.494z"/>
		<path fill="#F1F2F2" d="M826.167,140.23c-0.809,0.395-1.213,0.74-1.213,1.039c0,0.16,0.094,0.295,0.279,0.406
			s0.438,0.166,0.76,0.166l2.912-0.084c0.691,0,1.23,0.17,1.615,0.508c0.385,0.336,0.576,0.816,0.576,1.436
			c0,0.98-0.438,1.76-1.311,2.342c-0.875,0.58-1.896,0.871-3.062,0.871c-0.959,0-1.742-0.201-2.35-0.602
			c-0.609-0.402-0.914-0.92-0.914-1.557c0-0.691,0.471-1.275,1.412-1.752c-0.781-0.365-1.17-0.814-1.17-1.346
			c0-0.607,0.502-1.176,1.51-1.701c-0.465-0.281-0.822-0.646-1.07-1.096c-0.25-0.447-0.373-0.922-0.373-1.42
			c0-0.812,0.275-1.48,0.83-2.004c0.553-0.523,1.244-0.785,2.074-0.785c0.598,0,1.137,0.125,1.619,0.375l2.564-0.391v1.262h-1.652
			c0.25,0.438,0.375,0.951,0.375,1.543c0,0.787-0.275,1.451-0.822,1.992c-0.549,0.543-1.242,0.814-2.084,0.814
			C826.495,140.248,826.327,140.242,826.167,140.23z M826.724,145.91c0.852,0,1.578-0.191,2.178-0.57
			c0.602-0.379,0.9-0.848,0.9-1.406c0-0.576-0.426-0.863-1.277-0.863c-0.283,0-0.77,0.016-1.461,0.049
			c-0.438,0.023-0.781,0.033-1.029,0.033c-0.123,0-0.312,0.1-0.568,0.299c-0.258,0.199-0.455,0.4-0.59,0.604
			c-0.137,0.201-0.203,0.41-0.203,0.627c0,0.336,0.188,0.625,0.564,0.867C825.612,145.789,826.108,145.91,826.724,145.91z
			 M826.673,139.244c0.477,0,0.865-0.166,1.166-0.494c0.303-0.33,0.453-0.76,0.453-1.291c0-0.559-0.146-0.996-0.439-1.312
			c-0.295-0.314-0.688-0.473-1.18-0.473c-0.459,0-0.846,0.164-1.158,0.494s-0.469,0.76-0.469,1.291c0,0.52,0.156,0.947,0.469,1.283
			C825.827,139.076,826.214,139.244,826.673,139.244z"/>
		<path fill="#F1F2F2" d="M649.745,168.895h-1.295v-7.529h-2.548v-1.121h3.843V168.895z M649.114,156.975
			c0.244,0,0.451,0.086,0.623,0.262c0.172,0.174,0.258,0.383,0.258,0.627c0,0.254-0.085,0.467-0.254,0.639
			c-0.168,0.172-0.377,0.258-0.627,0.258c-0.227,0-0.428-0.092-0.602-0.271s-0.262-0.389-0.262-0.625
			c0-0.238,0.088-0.447,0.262-0.623C648.687,157.062,648.888,156.975,649.114,156.975z"/>
		<path fill="#F1F2F2" d="M662.105,168.895h-1.295v-5.545c0-0.77-0.123-1.328-0.369-1.674c-0.247-0.346-0.632-0.518-1.158-0.518
			c-0.792,0-1.641,0.492-2.548,1.477v6.26h-1.295v-8.65h1.295v1.271c0.93-0.986,1.908-1.479,2.938-1.479
			c1.622,0,2.433,0.98,2.433,2.939V168.895z"/>
		<path fill="#F1F2F2" d="M682.592,168.504c-0.868,0.398-1.724,0.598-2.565,0.598c-1.543,0-2.315-0.816-2.315-2.449v-5.287h-1.66
			v-1.121h1.66v-2.365h1.262v2.365h2.938v1.121h-2.938v4.947c0,0.525,0.116,0.934,0.349,1.225s0.548,0.436,0.946,0.436
			c0.708,0,1.408-0.158,2.101-0.473L682.592,168.504z"/>
		<path fill="#F1F2F2" d="M692.71,168.895h-1.295v-5.545c0-0.77-0.123-1.328-0.369-1.674s-0.632-0.518-1.158-0.518
			c-0.791,0-1.641,0.492-2.548,1.477v6.26h-1.295v-11.713h1.295v4.334c0.93-0.986,1.909-1.479,2.938-1.479
			c1.621,0,2.432,0.98,2.432,2.939V168.895z"/>
		<path fill="#F1F2F2" d="M703.169,164.611h-5.935c0,0.979,0.284,1.787,0.851,2.424c0.567,0.637,1.264,0.955,2.088,0.955
			c0.785,0,1.597-0.143,2.432-0.424l0.225,1.037c-0.764,0.344-1.654,0.516-2.673,0.516c-1.284,0-2.319-0.414-3.104-1.238
			s-1.179-1.936-1.179-3.336c0-1.373,0.353-2.467,1.059-3.283c0.705-0.816,1.617-1.225,2.735-1.225c0.996,0,1.828,0.379,2.498,1.137
			s1.004,1.77,1.004,3.031V164.611z M701.759,163.557c0-0.676-0.211-1.244-0.631-1.705c-0.421-0.463-0.892-0.693-1.412-0.693
			c-0.669,0-1.224,0.221-1.664,0.664c-0.439,0.441-0.685,1.021-0.734,1.734H701.759z"/>
		<path fill="#F1F2F2" d="M724.337,160.244l-1.246,8.65h-0.987l-2.034-4.898l-2.041,4.898h-0.988l-1.221-8.65h1.287
			c0.459,4.041,0.697,6.16,0.714,6.359l1.585-3.76h1.328l1.578,3.734l0.697-6.334H724.337z"/>
		<path fill="#F1F2F2" d="M730.163,160.037c1.189,0,2.137,0.416,2.84,1.246s1.055,1.922,1.055,3.277
			c0,1.367-0.352,2.469-1.055,3.305s-1.65,1.254-2.84,1.254c-1.195,0-2.143-0.418-2.842-1.25c-0.701-0.834-1.051-1.936-1.051-3.309
			c0-1.361,0.352-2.455,1.055-3.283C728.028,160.451,728.974,160.037,730.163,160.037z M730.163,167.99
			c0.787,0,1.406-0.332,1.859-0.996c0.455-0.664,0.682-1.471,0.682-2.416c0-0.996-0.225-1.816-0.672-2.457
			c-0.449-0.643-1.072-0.963-1.869-0.963c-0.803,0-1.424,0.316-1.867,0.949c-0.443,0.635-0.664,1.457-0.664,2.471
			c0,0.963,0.225,1.771,0.672,2.428C728.753,167.662,729.372,167.99,730.163,167.99z"/>
		<path fill="#F1F2F2" d="M743.851,160.477l-0.521,1.246c-0.57-0.25-1.062-0.373-1.479-0.373c-0.381,0-0.756,0.107-1.121,0.326
			s-0.701,0.531-1.008,0.939c-0.307,0.406-0.461,0.635-0.461,0.684v5.596h-1.287v-8.65h1.287v1.752
			c0.691-1.307,1.588-1.959,2.689-1.959C742.603,160.037,743.237,160.184,743.851,160.477z"/>
		<path fill="#F1F2F2" d="M754.767,168.895h-1.701l-3.67-4.301l-0.846,0.73v3.57h-1.295v-11.713h1.295v6.715l4.059-3.652h1.652
			l-3.943,3.537L754.767,168.895z"/>
		<path fill="#F1F2F2" d="M758.753,161.365c0.287-0.398,0.676-0.719,1.166-0.963c0.488-0.244,1.006-0.365,1.547-0.365
			c0.996,0,1.777,0.41,2.346,1.232c0.566,0.822,0.852,1.891,0.852,3.209c0,1.328-0.299,2.434-0.893,3.316
			c-0.596,0.883-1.396,1.324-2.404,1.324c-0.537,0-1.039-0.135-1.506-0.404c-0.469-0.268-0.838-0.623-1.107-1.066v4.666h-1.295
			v-12.07h1.295V161.365z M758.753,162.652v3.594c0.242,0.486,0.572,0.895,0.986,1.221c0.416,0.326,0.844,0.49,1.287,0.49
			c0.697,0,1.252-0.328,1.664-0.98s0.619-1.463,0.619-2.432c0-0.996-0.197-1.811-0.59-2.441s-0.941-0.945-1.643-0.945
			C760.163,161.158,759.388,161.656,758.753,162.652z"/>
		<path fill="#F1F2F2" d="M773.692,168.895h-3.535v-10.592h-2.258v-1.121h3.553v10.592h2.24V168.895z"/>
		<path fill="#F1F2F2" d="M784.741,168.895h-1.287c-0.105-0.35-0.158-0.814-0.158-1.395c-0.736,1.078-1.736,1.619-3.004,1.619
			c-0.643,0-1.209-0.229-1.697-0.686c-0.49-0.457-0.734-1.045-0.734-1.764c0-0.426,0.084-0.803,0.256-1.129s0.424-0.602,0.756-0.826
			s0.736-0.402,1.213-0.531c0.475-0.131,1.039-0.221,1.693-0.27l1.451-0.117v-0.414c0-1.484-0.691-2.225-2.074-2.225
			c-0.326,0-0.74,0.07-1.242,0.211c-0.5,0.141-0.93,0.309-1.289,0.502l-0.342-0.93c1.18-0.604,2.275-0.904,3.287-0.904
			c1.971,0,2.955,1.043,2.955,3.129v3.719C784.524,167.639,784.597,168.307,784.741,168.895z M783.229,166.33v-1.57
			c-1.168,0.105-1.969,0.203-2.402,0.295c-0.436,0.092-0.811,0.262-1.129,0.512c-0.318,0.248-0.477,0.586-0.477,1.012
			c0,0.387,0.135,0.699,0.406,0.938s0.617,0.357,1.037,0.357c0.459,0,0.916-0.137,1.369-0.41
			C782.489,167.188,782.888,166.811,783.229,166.33z"/>
		<path fill="#F1F2F2" d="M794.694,168.604c-0.754,0.344-1.58,0.516-2.482,0.516c-1.361,0-2.447-0.414-3.258-1.242
			c-0.811-0.826-1.217-1.928-1.217-3.299c0-1.373,0.408-2.473,1.225-3.301c0.816-0.826,1.889-1.24,3.217-1.24
			c0.869,0,1.695,0.152,2.482,0.457l-0.342,1.07c-0.785-0.271-1.494-0.406-2.125-0.406c-0.951,0-1.705,0.307-2.262,0.922
			c-0.555,0.613-0.834,1.445-0.834,2.498c0,0.963,0.289,1.771,0.863,2.428c0.576,0.656,1.326,0.984,2.25,0.984
			c0.73,0,1.482-0.143,2.258-0.424L794.694,168.604z"/>
		<path fill="#F1F2F2" d="M805.187,164.611h-5.936c0,0.979,0.283,1.787,0.852,2.424c0.566,0.637,1.264,0.955,2.088,0.955
			c0.785,0,1.596-0.143,2.432-0.424l0.225,1.037c-0.764,0.344-1.654,0.516-2.674,0.516c-1.283,0-2.318-0.414-3.104-1.238
			c-0.787-0.824-1.18-1.936-1.18-3.336c0-1.373,0.354-2.467,1.059-3.283s1.617-1.225,2.736-1.225c0.996,0,1.828,0.379,2.498,1.137
			s1.004,1.77,1.004,3.031V164.611z M803.776,163.557c0-0.676-0.211-1.244-0.631-1.705c-0.422-0.463-0.893-0.693-1.412-0.693
			c-0.67,0-1.225,0.221-1.664,0.664c-0.439,0.441-0.686,1.021-0.734,1.734H803.776z"/>
	</g>
</g>
</svg>
